<svg width="35" height="378" viewBox="0 0 35 378" fill="none" xmlns="http://www.w3.org/2000/svg">
<g clip-path="url(#clip0_203_2626)">
<path d="M15.6354 167.567C15.4165 161.075 15.5946 153.724 15.5965 147.134L15.5995 108.582L15.5935 5.06151C15.5983 4.26991 15.6354 3.22538 16.2242 2.64296C16.6953 2.46386 16.5049 2.48708 17.0226 2.58552C17.3345 2.7906 17.4107 3.18709 17.5245 3.54802L17.5147 121.583L17.5088 154.215L17.5189 163.117C17.5274 164.357 17.9131 168.04 16.9716 168.752C16.5095 168.84 16.6728 168.833 16.1818 168.658C15.7979 168.343 15.7616 168.044 15.6354 167.567Z" fill="#B9925B"/>
<path d="M0.241455 190.954C0.275804 190.713 0.66911 190.351 0.890247 190.314C3.98848 189.804 6.55054 189.101 9.18438 187.247C11.9348 185.329 14.0007 182.582 15.0808 179.408C15.391 178.49 15.7651 176.468 16.3438 175.895C16.5096 175.86 16.9419 175.744 17.0216 175.905C17.6849 177.25 18.1929 179.235 18.7752 180.597C19.4254 182.117 19.8748 182.792 20.7822 184.053C22.7852 186.84 26.1513 188.952 29.462 189.749C30.4169 189.977 32.2486 190.133 33.0199 190.526L32.9848 190.932C32.8839 191.114 32.6345 191.432 32.4249 191.461C26.3636 192.272 21.2061 195.335 18.7388 201.105C18.0135 202.8 17.7513 203.931 17.2244 205.636C16.8417 205.986 17.0186 205.898 16.4731 205.958C15.9294 205.428 14.9505 202.267 14.6229 201.403C12.4411 195.643 7.69268 192.835 1.89234 191.688C1.30137 191.572 0.685615 191.408 0.241455 190.954ZM16.5956 199.667C17.0613 197.385 17.6828 194.681 18.0375 192.408C19.1487 192.449 22.9354 191.408 24.097 191.023L24.1458 190.831L23.8841 190.779C21.9875 190.24 20.0251 189.644 18.0645 189.794C17.9198 189.805 17.8435 189.781 17.7251 189.69C17.8109 187.225 17.1611 184.629 16.6904 182.176C15.81 185.147 15.0675 186.516 15.284 189.625C14.9091 189.612 14.9238 189.422 14.3651 189.511C12.5235 189.801 10.6375 190.508 8.80556 190.8L8.65565 191.049C11.5904 191.61 12.0283 192.077 15.3575 192.313C15.331 192.605 15.1809 194.223 15.2146 194.413C15.5098 196.074 16.3128 198.026 16.5956 199.667ZM21.198 193.963C21.5447 193.577 21.9072 193.441 21.9547 193.093C21.0606 192.974 20.0016 193.562 19.1464 193.371L18.9974 193.58C19.5235 194.594 19.2815 194.403 19.3301 195.426C20.0314 195.268 20.5584 194.506 21.198 193.963ZM20.6234 187.046C20.1079 186.652 19.8862 186.082 19.5066 186.05C19.4578 186.24 18.9498 188.739 18.9498 188.728C20.5048 187.737 20.8982 188.579 21.4363 188.139C21.3722 187.754 20.9098 187.346 20.6234 187.046Z" fill="#B9925B" fill-opacity="0.988235"/>
<path d="M14.7971 172.975C14.5507 171.064 17.1108 169.889 18.4044 172.296C18.4772 174.713 16.0324 175.052 14.7971 172.975Z" fill="#B9925B"/>
<path d="M17.3323 210.695C16.6662 210.793 16.0512 210.801 15.4766 210.379C15.1683 210.155 14.9654 209.814 14.9155 209.436C14.7234 208.085 16.2685 206.723 17.3187 207.5C17.4209 208.543 17.0644 209.959 17.3323 210.695Z" fill="#B9925B"/>
<path d="M17.3322 210.694C17.0643 209.959 17.4208 208.542 17.3186 207.499C18.9869 208.255 18.5078 209.711 17.3322 210.694Z" fill="#B9925B" fill-opacity="0.988235"/>
<path d="M15.6549 377.891C15.5343 375.397 15.5982 372.604 15.6004 370.089L15.5978 357.725L15.6002 318.203L15.5983 250.853C15.6013 239.531 15.5963 228.201 15.6205 216.88C15.6221 216.073 15.6484 213.895 15.9948 213.221C16.3697 212.926 16.2051 212.985 16.7071 213.002C17.0484 213.179 17.4801 213.579 17.4997 213.905C17.6393 216.234 17.5121 219.533 17.5083 221.796L17.5097 246.072L17.5277 377.891H15.6549Z" fill="#B9925B"/>
</g>
<defs>
<clipPath id="clip0_203_2626">
<rect width="377.891" height="35" fill="white" transform="matrix(0 -1 1 0 0 377.891)"/>
</clipPath>
</defs>
</svg>
