<svg width="228" height="332" viewBox="0 0 228 332" fill="none" xmlns="http://www.w3.org/2000/svg">
<path d="M180.054 4.62142C180.417 4.57364 180.77 4.64402 181.136 4.69042C182.63 5.70315 182.613 11.0045 182.696 12.8417C183.533 31.455 181.501 50.757 166.848 64.077C163.742 67.9305 153.14 72.8971 150.954 76.8345C147.466 83.1148 146.227 93.023 142.261 99.6688C143.981 98.2432 146.031 96.8318 147.63 95.378C149.98 93.2421 151.595 90.2193 154.578 88.7288C157.501 87.268 159.595 87.2417 162.564 88.1199C168.333 94.7212 156.157 96.7215 152.04 97.2339C148.61 97.6607 142.897 102.722 141.155 105.593C138.109 110.847 136.617 116.965 134.197 122.55C129.08 134.355 124.191 147.063 117.597 158.123C120.52 155.518 123.114 152.161 126.124 149.426C136.509 139.992 146.144 129.801 156.687 120.523C159.014 118.474 161.365 114.139 163.785 111.753C172.44 103.219 182.44 96.2203 193.851 91.9077C201.644 88.6447 209.885 88.3684 217.72 91.6171C218.88 92.0979 220.859 93.2365 219.786 94.782C217.526 98.0401 213.996 101.091 211.521 104.068C204.151 112.932 195.544 116.796 184.027 115.717C179.619 115.444 174.42 115.986 169.942 117.18C159.861 119.868 153.258 128.329 145.898 135.143C145.045 135.932 141.215 139.483 140.823 140.182C141.384 140.569 143.054 139.429 143.809 139.286C147.17 138.648 151.239 137.764 154.601 137.583C159.871 133.472 168.598 130.289 173.014 137.304C172.435 139.327 171.664 140.708 169.751 141.836C164.312 145.042 158.908 141.023 153.685 140.9C148.516 140.778 141.637 142.845 136.912 144.891C132.988 146.37 130.619 149.801 127.603 152.558C114.269 164.746 105.371 179.145 96.7976 194.895C89.5604 208.191 82.3728 221.904 75.523 235.448C73.2435 239.955 70.5678 244.454 68.27 248.974C67.5125 250.439 65.6823 252.644 65.2735 253.724L65.4561 254.002C66.112 253.753 68.3949 251.098 69.1047 250.37C72.3457 247.053 75.5916 244.103 79.039 241.048C87.0484 233.949 97.9648 229.884 105.017 221.914C109.377 216.985 112.204 209.472 115.626 203.662C121.819 192.7 131.999 186.048 142.519 179.806C144.087 178.876 147.931 175.567 149.505 176.527C150.364 178.408 148.131 183.042 147.57 185.05C144.33 196.649 141.038 204.923 132.945 214.052C134.5 213.358 136.076 212.57 137.743 212.218C141.452 211.436 144.337 211.289 147.654 209.142C155.001 204.385 161.245 198.372 166.977 191.795C168.535 190.008 169.968 187.873 171.331 185.92C170.866 179.468 171.669 172.155 179.99 172.137C181.277 172.902 181.748 173.519 182.643 174.662C183.799 183.896 176.646 184.181 172.434 189.981C169.257 194.355 165.97 197.77 161.992 201.414C163.437 200.948 166.709 199.352 168.359 198.679C173.683 196.506 181.494 193.454 187.045 192.505C190.717 188.781 195.638 185.13 201.239 186.421C202.229 186.65 203.268 187.36 203.761 188.266C204.158 188.998 204.247 189.859 204.008 190.657C203.136 193.589 198.634 194.846 195.932 194.889C179.404 195.147 165.063 202.817 150.668 210.668C153.63 210.648 156.706 210.363 160.07 210.739C166.642 211.474 174.845 213.901 180.745 217.093C181.343 217.417 181.515 218.02 181.59 218.594C180.829 219.725 176.33 221.548 174.872 222.317C169.105 225.359 164.221 229.552 158.238 232.226C148.569 236.548 138.318 236.071 128.328 233.195C123.539 231.834 118.428 230.273 113.479 229.605C100.344 228.152 89.0815 236.844 79.4649 244.817C77.3882 247.026 75.5146 248.291 73.5272 250.317C74.4857 250.03 75.448 249.504 76.4876 249.184C78.443 248.58 80.5477 248.122 82.4617 247.454C85.2262 246.485 87.8482 245.203 90.7518 244.606C98.354 243.038 104.778 244.08 111.705 247.518C114.1 248.705 116.667 250.377 118.931 251.444C122.338 253.047 124.319 253.158 127.701 255.269C124.941 256.959 121.135 258.081 118.286 259.361C112.094 262.316 103.745 262.924 97.6252 259.459C88.7286 254.423 83.9642 248.395 73.3352 253.539C66.214 256.531 62.1082 263.536 57.4629 269.227C50.8209 277.363 45.2658 286.167 39.0366 294.619C34.8144 300.25 30.398 305.734 25.7957 311.058C23.8169 313.373 17.0265 322.391 14.1064 322.186C13.4532 321.832 13.6408 322.048 13.3763 321.393C13.6034 319.915 15.437 318.456 16.3988 317.33L21.7079 311.02C25.9201 306.108 29.9872 301.074 33.9037 295.924C40.8955 286.706 53.8178 269.949 56.6992 259.181C57.5649 255.946 57.6745 252.472 57.302 249.157C56.656 243.408 53.7112 237.942 52.9029 231.988C51.4397 221.21 56.4102 212.313 57.3498 201.953C57.617 199.006 57.1446 189.595 58.5898 187.702C59.6332 187.186 60.3232 187.899 60.8195 188.845C67.0654 200.759 72.2491 213.785 71.6573 227.479C71.4832 231.507 70.0455 236.655 69.2114 240.712C72.1986 235.132 75.975 227.753 78.3575 221.956C79.8635 217.312 80.9087 212.323 81.545 207.477C81.9438 204.44 83.4429 196.364 82.0524 193.767C80.4054 190.691 77.0258 186.992 74.8446 184.163C72.01 180.479 69.4505 176.592 67.1872 172.532C65.4265 169.418 63.8133 166.223 62.3531 162.957C59.496 156.581 60.2464 156.627 54.621 152.29C46.9574 146.382 54.4517 133.957 61.1038 144.018C63.2792 147.307 61.3777 151.918 62.4099 154.798C66.3603 165.824 73.4753 178.549 81.3014 187.365C79.8519 181.123 77.4735 175.06 76.2954 168.6C74.2826 157.562 75.7375 145.976 78.7044 135.273C76.9792 129.01 74.8373 123.238 72.8325 117.084C72.0391 114.649 71.6715 110.874 70.9181 108.292C69.9925 105.175 68.7503 103.096 68.2273 99.7917C67.4992 95.1906 69.3708 87.4991 75.6001 89.5736C76.6127 89.9109 77.6873 91.2892 78.0219 92.3635C79.7865 98.0272 76.2456 101.853 74.0012 106.569C75.0588 112.683 76.2527 118.236 78.5227 124.018C79.0499 125.36 79.6019 128.727 80.5277 129.626C80.6506 129.555 80.7737 129.485 80.8966 129.414C81.6949 125.192 84.804 117.479 86.3181 113.889C87.6656 110.694 89.9552 104.562 92.0279 104.161C92.312 104.244 92.5131 104.358 92.717 104.577C93.5428 105.467 97.0071 117.627 97.6275 119.746C99.1716 125.02 100.673 130.442 101.379 135.902C103.366 151.271 100.292 168.585 93.6651 182.548C91.4661 187.181 86.8772 192.984 86.0017 197.858C85.2687 201.938 86.6734 203.809 86.5619 207.336C87.2942 205.484 88.2986 203.736 89.2057 201.963C99.5804 181.697 112.789 163.032 122.029 142.183C124.86 135.796 127.876 129.48 128.403 122.387C129.35 109.738 128.721 96.6852 124.794 84.5594C123.84 81.6154 119.34 80.4845 118.988 75.5022C118.643 70.6207 118.617 67.5649 124.41 66.8446C126.445 67.5685 126.953 68.0472 128.518 69.4457C129.77 73.1914 130.39 75.4723 129.134 79.4396C127.318 85.1748 130.646 91.3651 130.948 97.1613C131.029 98.7265 131.64 100.818 131.801 102.471C132.35 108.126 131.713 113.945 131.941 119.559C132.938 117.258 134.026 113.93 134.863 111.453C138.945 99.3827 145.547 85.2452 147.603 72.7726C149.327 62.3147 146.968 52.6436 149.608 41.7833C154.034 23.579 164.837 14.0541 180.054 4.62142ZM179.382 8.20966C165.932 16.8635 156.57 26.3125 152.642 42.6085C152.03 45.1479 151.374 49.4803 151.26 51.9552C151.005 57.5129 151.371 62.3231 150.813 67.9425C151.912 65.61 152.588 63.3912 153.639 61.0402C156.767 54.049 159.941 46.9153 163.808 40.2953C164.881 38.4582 166.198 36.0241 167.641 34.5107L168.056 34.3996C168.358 35.2889 167.76 36.1276 167.323 36.8753C164.69 43.2693 161.49 49.5968 158.753 55.9418C156.472 61.231 154.286 66.7346 152.09 72.0822C155.09 69.1888 159.189 66.5714 162.589 63.7619C173.104 55.0755 178.345 42.3747 179.658 29.0438C179.932 26.2637 180.302 9.24421 179.382 8.20966ZM83.4826 185.827C84.1519 180.16 83.8226 173.896 84.6183 168.337C84.9617 165.939 85.906 156.253 86.8064 154.945C87.7843 155.872 86.6561 166.971 86.4755 169.116C85.8527 176.518 86.5229 184.99 85.5119 192.242C86.7173 189.834 88.395 186.695 89.4261 184.28C91.9749 179.281 95.2355 172.037 95.451 166.397C95.7213 157.91 93.7136 149.506 92.4529 141.161C92.0417 138.438 92.074 134.982 91.8776 132.152C91.7371 130.125 90.3551 121.486 91.7404 120.241L92.1325 120.362C92.5048 122.615 92.4369 126.94 92.8292 129.953C93.8198 137.562 95.3214 144.429 96.8613 151.906C97.2737 153.908 97.1309 156.645 97.6887 158.359L97.9581 158.483C98.5615 157.651 98.4368 155.476 98.5192 154.404C99.1362 146.384 99.2094 140.503 97.937 132.479C97.5974 130.338 91.7585 108.732 91.5625 108.569C90.5969 110.462 89.2224 114.264 88.3743 116.472C82.9506 130.589 77.3597 147.32 78.3719 162.56C78.7516 168.273 80.9167 175.327 82.4365 180.806C82.9181 182.541 83.0842 184.38 83.4826 185.827ZM111.888 226.136C122.79 226.092 133.836 224.747 144.769 224.567C147.587 224.52 150.473 223.402 153.251 223.32L153.226 223.342L153.666 223.578C151.353 225.849 139.498 226.448 136.047 226.76C133.202 227.018 129.683 227.492 126.837 227.733C125.829 227.8 122.119 227.911 121.412 228.392C122.152 229.047 128.513 230.149 130.003 230.654C147.437 236.579 157.608 229.977 172.311 220.768C170.089 220.798 165.068 222.005 163.959 221.513L163.895 221.167C164.719 220.281 174.864 219.262 177.524 218.523C171.442 214.868 159.614 212.969 152.472 213.194C140.596 213.851 132.091 215.95 121.909 222.23C119.1 223.961 115.043 225.119 111.888 226.136ZM162.574 117.13C166.727 115.134 172.395 111.634 176.465 109.897C179.479 108.611 193.193 102.428 195.371 102.494L195.381 102.734C194.027 104.1 187.322 107.072 185.181 108.084C183.565 108.894 175.672 112.565 174.911 113.312L175.034 113.542C180.195 113.07 184.106 113.116 189.22 113.132C198.248 113.16 205.438 107.217 210.883 100.63C211.929 99.3814 213.455 98.373 214.387 96.96L214.338 96.5913C213.703 96.4958 212.801 96.8442 211.289 97.2982C207.993 98.2886 203.829 99.3585 200.562 100.723C200.562 100.723 200.175 100.575 200.119 100.554L200.097 100.157C203.225 96.7353 212.205 94.6588 216.741 94.1116C214.124 92.8961 207.788 91.4446 204.943 92.0524C194.971 92.4603 180.384 100.878 172.789 107.344C169.804 109.885 165.391 114.293 162.574 117.13ZM162.824 140.527C163.762 140.578 164.635 140.629 165.578 140.62C165.815 139.805 164.844 138.746 165.251 138.296C165.859 137.624 167.576 136.991 168.004 136.156C167.219 135.58 164.325 135.84 163.262 135.887C161.05 136.476 158.823 137.641 156.715 138.544C158.654 139.258 160.819 140.129 162.824 140.527ZM178.585 174.976C176.477 175.848 175.561 176.725 174.586 178.882C173.983 180.213 173.233 183.542 173.636 184.914L173.968 184.994L174.272 184.705C176.091 182.453 176.718 179.655 179.308 178.006C179.849 177.662 179.695 175.884 178.937 175.103L178.585 174.976ZM56.3016 149.588C55.9585 148.649 55.6381 147.964 55.6879 146.958C56.4487 145.633 58.4611 146.237 58.6361 144.934C58.0294 144.041 56.8135 143.297 55.7487 143.106C54.9053 143.641 54.4384 143.847 54.1166 144.878C53.7753 145.971 55.2738 149.721 56.1486 150.238L56.5167 150.193C56.4525 149.716 56.5583 149.891 56.3016 149.588ZM193.439 191.258C195.318 190.657 198.396 190.17 199.702 189.172L199.824 188.742C199.556 188.54 199.457 188.428 199.123 188.372C197.214 188.871 194.557 189.555 192.931 190.71L192.745 191.134C193.087 191.289 193.078 191.325 193.439 191.258ZM60.7344 203.202C60.5937 202.327 60.4461 201.453 60.2916 200.579C60.0667 201.934 60.07 203.247 59.8618 204.46C59.177 207.999 58.4331 211.527 57.6306 215.042C57.2793 216.542 56.1983 220.707 56.0032 221.913C55.6877 223.861 55.4288 231.665 55.9255 233.388C57.7693 239.785 59.6038 243.611 60.0161 250.491C61.5148 245.839 62.9309 237.721 63.5257 232.734C63.5288 232.11 63.5397 231.449 63.5673 230.828C63.7857 225.883 63.3333 221.037 63.5524 216.089C65.0531 219.394 65.4901 227.363 64.8293 230.647C65.7845 234.246 64.3156 243.43 63.5715 247.307C63.3259 248.585 62.6119 250.373 62.5538 251.388L62.7862 251.553C63.5366 251.003 63.582 249.95 63.8536 249.21C70.0159 232.442 70.613 216.189 62.7938 199.851C62.2525 198.719 61.6369 195.828 60.8048 194.951C60.6683 195.11 60.4156 199.845 60.2916 200.579C60.8518 200.719 61.467 200.77 61.7471 201.379C62.5168 203.051 63.4891 207.499 62.7524 209.146L62.4282 209.165C61.5004 207.963 61.0415 204.819 60.7344 203.202ZM123.536 69.5715C120.891 71.8105 121.728 73.9031 122.277 76.9205C122.634 75.7175 122.835 74.8153 123.546 73.763C125.636 71.8408 125.531 73.5896 126.636 72.8739C126.21 71.2479 125.112 70.0743 123.536 69.5715ZM87.4997 248.137C88.7949 248.268 90.1629 248.293 91.3686 248.282C93.6591 248.26 103.647 250.419 104.596 252.147L104.417 252.555C99.0311 251.847 92.9581 250.357 87.5563 250.292C88.9554 251.23 90.7191 252.036 92.2572 252.915C94.2772 254.066 96.4746 255.667 98.4673 256.687C105.673 261.116 114.439 259.038 121.409 255.178C111.668 251.564 105.966 245.661 95.0117 246.79C92.3547 247.102 90.0525 247.258 87.4997 248.137ZM73.9273 91.6559C69.9827 93.6235 70.4095 100.373 71.8205 103.904C71.9868 104.32 72.1476 104.397 72.5187 104.578C73.3043 102.165 77.0625 92.8584 73.9273 91.6559ZM145.617 180.734C132.472 190.325 123.778 193.284 115.84 209.337C114.705 211.632 112.396 215.219 111.532 217.378C113.335 215.436 126.082 203.186 127.768 202.343L127.964 202.531C127.286 204.649 122.43 209.636 120.672 211.45C116.648 215.71 112.621 220.132 108.042 223.794C107.102 224.547 106.086 224.99 105.335 225.965L105.385 226.145C107.234 225.843 109.991 224.012 111.875 223.351C133.793 215.667 139.477 201.843 145.899 181.119L145.824 180.829L145.617 180.734Z" fill="#C69F5E"/>
<path d="M174.185 20.8433C174.963 22.4514 171.526 28.409 170.295 29.6084C169.578 28.0828 172.834 21.8576 174.185 20.8433Z" fill="#C69F5E"/>
<path d="M177.946 11.4717C178.397 11.6094 178.213 11.4807 178.486 11.9083C178.209 13.562 177.652 14.3956 176.604 15.6913C176.334 15.5424 176.364 15.5167 176.16 15.2529C176.077 13.9624 177.22 12.545 177.946 11.4717Z" fill="#C69F5E"/>
<path d="M142.47 185.092L142.947 185.333L143.043 185.77C142.15 188.489 134.707 195.877 132.496 198.055C132.385 198 132.089 197.745 131.975 197.652C132.097 196.266 141.054 186.572 142.47 185.092Z" fill="#C69F5E"/>
<path d="M63.5524 216.089C65.0531 219.394 65.4901 227.363 64.8293 230.648C63.7298 231.431 64.5174 231.759 63.5256 232.734C63.5288 232.11 63.5397 231.449 63.5673 230.828C63.7857 225.883 63.3333 221.037 63.5524 216.089Z" fill="#C9A167"/>
<path d="M60.2915 200.579C60.8517 200.719 61.4669 200.77 61.747 201.379C62.5167 203.051 63.4891 207.498 62.7523 209.145L62.4281 209.165C61.5003 207.963 61.0414 204.818 60.7344 203.202C60.5937 202.327 60.446 201.452 60.2915 200.579Z" fill="#C9A167"/>
<path d="M60.2915 200.579C60.4461 201.452 60.5937 202.327 60.7344 203.202L60.5385 204.413L60.2541 204.603L59.8618 204.46C60.07 203.247 60.0667 201.934 60.2915 200.579Z" fill="#C9A167" fill-opacity="0.0705882"/>
</svg>
