<svg width="149" height="154" viewBox="0 0 149 154" fill="none" xmlns="http://www.w3.org/2000/svg">
<path d="M71.8981 1.39545C71.98 1.38925 72.062 1.38401 72.144 1.3797C90.5134 0.494629 108.877 7.49175 122.53 19.7326C135.554 31.6088 144.119 47.6032 146.795 65.0456C147.486 69.5257 147.894 74.5122 147.8 79.0567C147.55 97.1953 140.756 114.63 128.673 128.137C117.513 140.669 102.415 149.001 85.8814 151.753C82.7746 152.262 80.1599 152.443 77.0426 152.614L76.9766 152.617C74.8909 152.725 72.1704 152.623 70.0886 152.498C53.7866 151.422 38.324 144.863 26.2039 133.883C19.9791 128.277 14.0603 121.294 10.1074 113.901C8.36685 110.594 6.88514 107.156 5.67552 103.62C3.18213 96.593 1.74344 89.2344 1.40648 81.784C0.274108 60.7882 7.55148 40.2081 21.6228 24.6128C31.3778 13.9855 44.0959 6.54386 58.125 3.2544C62.6488 2.20946 67.2596 1.58715 71.8981 1.39545ZM76.3149 149.648C93.687 149.522 111.737 140.943 123.852 128.641C137.253 115.049 144.748 96.6975 144.702 77.5889C144.724 63.0331 140.514 48.7858 132.585 36.5903C119.961 16.9867 98.2425 4.53943 74.7871 4.87601C74.1995 4.88566 73.612 4.90105 73.0248 4.92218C57.8785 5.38043 44.1736 10.0589 32.1942 19.4493C29.5558 21.4762 27.0777 23.7044 24.7818 26.114C11.0286 40.7567 3.70381 60.3128 4.44545 80.4095C5.13316 99.6414 13.4425 117.806 27.5333 130.879C40.7599 143.223 58.2443 149.95 76.3149 149.648Z" fill="#BEA166"/>
<path d="M74.2664 18.893C77.288 18.71 76.4342 21.8101 76.5505 23.7366C76.6443 25.2775 76.3892 27.1521 76.594 28.659C77.5251 35.5053 79.8216 42.3797 82.8661 48.57C86.309 55.4878 90.7678 61.8486 96.0945 67.4401C98.7594 70.2587 101.629 72.8753 104.68 75.2684C105.504 75.9113 106.344 76.5331 107.2 77.134C108.087 77.746 109.515 78.4747 109.871 79.5034C110.57 81.2727 108.186 82.348 106.914 81.4562C102.577 78.4153 98.1938 75.0043 94.513 71.1721C87.0052 63.3554 79.9769 53.268 76.5272 42.9097L76.555 59.5052C76.5602 60.7049 76.5557 61.9046 76.5407 63.1041C76.5362 63.5795 76.4845 65.0847 76.609 65.4571C79.5537 74.261 86.4223 84.4805 92.0072 91.4835C93.864 93.795 95.7982 96.0433 97.8066 98.2247C98.869 99.3587 100.181 100.454 101.127 101.676C101.673 102.44 101.298 103.858 100.501 104.257C98.6222 105.198 96.0863 101.8 94.9197 100.516C89.3918 94.5191 84.4611 87.9944 80.1997 81.0358C78.9228 78.9439 77.5611 76.6542 76.5002 74.449C76.6428 77.719 76.5377 81.5427 76.5445 84.8633V107.304L76.543 124.985L76.5437 130.507C76.5437 131.285 76.6248 132.833 76.5167 133.556C76.1536 135.974 72.9857 135.762 72.8108 133.261L72.8112 98.0097C72.7848 90.1758 72.8009 82.342 72.8595 74.5088C71.8644 76.2647 71.0097 77.928 69.9583 79.6989C67.1255 84.458 63.9825 89.0253 60.5498 93.3694C58.1834 96.3306 55.6914 99.188 53.0807 101.934C52.3899 102.659 51.6885 103.455 50.9082 104.072C50.4277 104.452 49.6495 104.685 49.0652 104.502C48.365 104.267 47.8864 103.426 47.8771 102.718C47.8698 101.872 48.4888 101.214 49.0658 100.674C50.8653 98.991 52.4908 97.1457 54.1057 95.2876C59.1637 89.5081 63.642 83.2436 67.476 76.585C68.842 74.2197 70.2431 71.6912 71.3102 69.1781C71.7479 68.147 72.4581 66.5883 72.7122 65.5224C72.8511 64.9397 72.8094 63.3222 72.8089 62.6386L72.8055 58.2888C72.795 53.1153 72.8148 47.9417 72.8651 42.7683C72.5745 43.4973 72.3143 44.2494 72.0169 44.9896C66.8585 57.835 57.9494 69.4377 47.1181 77.9972C45.6085 79.1905 43.5841 80.7659 41.9018 81.7134C41.34 81.9765 40.8882 81.8194 40.3721 81.6803C39.286 81.3878 38.925 79.5206 39.7216 78.8206C40.699 77.9626 42.1102 77.1046 43.1915 76.2827C44.2795 75.4563 45.428 74.5248 46.4968 73.6581C51.0824 69.8545 55.0075 65.7197 58.6258 61.0095C64.7874 53.0614 69.2256 43.9115 71.6563 34.1455C72.0776 32.4159 72.5454 30.6197 72.7382 28.8488C72.9362 27.0327 72.5234 20.9114 73.0639 19.831C73.3339 19.2914 73.719 19.0899 74.2664 18.893Z" fill="#BEA166"/>
</svg>
