<svg width="378" height="35" viewBox="0 0 378 35" fill="none" xmlns="http://www.w3.org/2000/svg">
<path d="M210.324 15.6354C216.815 15.4165 224.167 15.5946 230.757 15.5965L269.309 15.5995L372.829 15.5935C373.621 15.5983 374.665 15.6354 375.248 16.2242C375.427 16.6953 375.404 16.5049 375.305 17.0226C375.1 17.3345 374.704 17.4107 374.343 17.5245L256.308 17.5147L223.676 17.5088L214.774 17.5189C213.534 17.5274 209.851 17.9131 209.139 16.9716C209.051 16.5095 209.058 16.6728 209.233 16.1818C209.548 15.7979 209.847 15.7616 210.324 15.6354Z" fill="#B9925B"/>
<path d="M186.937 0.241211C187.178 0.27556 187.54 0.668866 187.577 0.890003C188.087 3.98824 188.79 6.55029 190.643 9.18414C192.562 11.9346 195.308 14.0005 198.483 15.0805C199.4 15.3908 201.422 15.7648 201.995 16.3436C202.031 16.5094 202.147 16.9417 201.986 17.0214C200.64 17.6846 198.655 18.1927 197.293 18.775C195.773 19.4252 195.099 19.8746 193.837 20.782C191.051 22.7849 188.939 26.1511 188.141 29.4617C187.913 30.4167 187.757 32.2483 187.365 33.0197L186.959 32.9845C186.777 32.8836 186.458 32.6343 186.43 32.4247C185.619 26.3634 182.555 21.2058 176.786 18.7386C175.09 18.0133 173.96 17.7511 172.255 17.2242C171.905 16.8415 171.992 17.0184 171.932 16.4729C172.463 15.9292 175.624 14.9503 176.488 14.6227C182.248 12.4409 185.056 7.69244 186.203 1.89209C186.319 1.30113 186.483 0.68537 186.937 0.241211ZM178.224 16.5954C180.506 17.0611 183.21 17.6826 185.482 18.0372C185.441 19.1485 186.483 22.9352 186.867 24.0967L187.06 24.1455L187.112 23.8839C187.651 21.9873 188.247 20.0248 188.096 18.0643C188.085 17.9195 188.11 17.8432 188.2 17.7248C190.665 17.8107 193.262 17.1609 195.714 16.6901C192.743 15.8098 191.375 15.0673 188.266 15.2837C188.278 14.9088 188.468 14.9236 188.379 14.3648C188.09 12.5232 187.383 10.6372 187.09 8.80532L186.841 8.6554C186.281 11.5902 185.813 12.0281 185.578 15.3573C185.285 15.3307 183.668 15.1806 183.478 15.2144C181.817 15.5096 179.865 16.3125 178.224 16.5954ZM183.928 21.1978C184.313 21.5445 184.45 21.9069 184.797 21.9545C184.916 21.0603 184.328 20.0013 184.52 19.1461L184.311 18.9971C183.296 19.5232 183.488 19.2812 182.465 19.3299C182.622 20.0311 183.385 20.5582 183.928 21.1978ZM190.844 20.6231C191.238 20.1077 191.808 19.8859 191.841 19.5064C191.651 19.4576 189.152 18.9495 189.163 18.9495C190.154 20.5046 189.312 20.8979 189.752 21.4361C190.136 21.3719 190.545 20.9095 190.844 20.6231Z" fill="#B9925B" fill-opacity="0.988235"/>
<path d="M204.915 14.7969C206.827 14.5505 208.001 17.1105 205.595 18.4042C203.178 18.4769 202.839 16.0321 204.915 14.7969Z" fill="#B9925B"/>
<path d="M167.196 17.332C167.098 16.6659 167.089 16.051 167.512 15.4763C167.736 15.168 168.077 14.9652 168.455 14.9153C169.806 14.7232 171.168 16.2682 170.391 17.3185C169.348 17.4206 167.932 17.0642 167.196 17.332Z" fill="#B9925B"/>
<path d="M167.196 17.3324C167.932 17.0646 169.348 17.421 170.391 17.3189C169.635 18.9871 168.179 18.5081 167.196 17.3324Z" fill="#B9925B" fill-opacity="0.988235"/>
<path d="M0 15.6549C2.49323 15.5343 5.28687 15.5982 7.80151 15.6004L20.1659 15.5978L59.6873 15.6002L127.038 15.5983C138.359 15.6013 149.689 15.5963 161.011 15.6205C161.818 15.6221 163.995 15.6484 164.67 15.9948C164.965 16.3697 164.906 16.2051 164.888 16.7071C164.712 17.0484 164.311 17.4801 163.986 17.4997C161.656 17.6393 158.357 17.5121 156.095 17.5083L131.819 17.5097L0 17.5277V15.6549Z" fill="#B9925B"/>
</svg>
