<svg width="105" height="107" viewBox="0 0 105 107" fill="none" xmlns="http://www.w3.org/2000/svg">
<g filter="url(#filter0_g_180_958)">
<path d="M51.5837 4.05614C51.968 4.02423 52.3675 3.9983 52.7529 4.00009C65.5451 4.03403 77.7932 9.17911 86.7722 18.2907C94.2769 25.9413 99.1134 35.8089 100.563 46.4275C100.899 48.9591 100.9 51.1773 100.941 53.7211C101.283 74.8204 86.8215 94.5208 66.5893 100.519C62.206 101.819 58.0013 102.568 53.4343 102.555C52.1939 102.559 50.6558 102.597 49.4324 102.513C39.0354 101.787 29.1473 97.7376 21.2276 90.9625C11.3345 82.482 5.20114 70.4295 4.16841 57.44C3.07352 44.1356 7.34996 30.9464 16.0434 20.8158C23.1733 12.4478 33.5722 6.78692 44.34 4.79498C46.7498 4.34919 49.1438 4.25249 51.5837 4.05614ZM55.6074 101.241C57.3412 101.195 58.5879 100.997 60.3033 100.724C70.216 99.0943 79.3298 94.285 86.2697 87.0217C93.623 79.3842 98.245 69.5299 99.4164 58.9928C99.6599 56.6723 99.6727 53.81 99.6097 51.4908C99.298 38.8693 93.9886 26.8877 84.8478 18.1787C77.0252 10.6876 66.843 6.14665 56.0427 5.33238C54.1891 5.1926 51.3866 5.26033 49.506 5.31224C46.853 5.66608 44.3416 5.97498 41.733 6.60938C31.1726 9.14159 21.8122 15.2463 15.2374 23.8895C7.31325 34.3038 3.88377 47.4549 5.71304 60.4127C8.24401 78.9409 22.3927 94.9524 40.2929 99.7296C44.9557 100.974 50.8379 101.712 55.6074 101.241Z" fill="#242520"/>
<path d="M52.5244 29.8361C53.5348 27.0121 54.9053 25.1572 57.8994 24.2447C59.8781 23.6237 62.024 23.8304 63.8477 24.8179C65.7453 25.8318 67.0884 27.5748 67.7096 29.6213C72.9337 29.8656 76.1843 33.0899 76.7117 38.3915C76.7838 39.117 76.3571 40.349 76.5035 41.0447C76.5249 41.1465 78.2076 42.2364 78.4857 42.4665C79.2784 43.1101 79.9497 43.8901 80.4685 44.7696C82.2275 47.753 81.8975 50.1652 81.1 53.2696C81.5526 54.4447 82.15 55.2854 82.5121 56.5734C83.6117 59.9867 82.1522 64.5325 79.5072 66.89C76.9141 69.2012 77.5847 67.3885 77.3669 70.9015C77.1963 73.4709 76.1681 75.9088 74.447 77.8243C72.3425 80.2134 69.8929 81.3475 66.7636 81.5494C66.3914 81.7739 65.7259 82.3491 65.334 82.6383C63.7846 83.7815 62.267 84.3567 60.3434 84.3698C58.8106 84.4186 57.2963 84.0243 55.9819 83.2343C54.2068 82.1437 53.0447 80.3276 52.571 78.3211C52.0414 79.8493 51.4338 81.1434 50.2405 82.2783C48.7454 83.6928 46.7467 84.4504 44.6898 84.3823C42.2011 84.3083 40.2065 83.3514 38.5145 81.5446C38.1467 81.5288 37.7794 81.5015 37.4134 81.4626C31.1479 80.7501 27.0041 74.5645 27.7344 68.4925C27.6305 68.4423 27.5281 68.3891 27.4273 68.3328C25.2949 67.1385 23.2864 64.3759 22.676 62.024C21.8 58.649 22.3142 56.2364 23.9989 53.2824C22.5277 47.8518 23.6469 43.9025 28.7341 41.0924C27.5494 34.74 31.116 29.6427 37.7717 29.6533C39.027 26.2837 41.2607 24.2736 44.919 23.878C48.5558 23.8215 51.5156 26.4536 52.5244 29.8361ZM71.2671 78.9296C74.2713 76.9039 76.1974 73.4457 76.1362 69.8302C75.7593 67.5244 76.4478 67.7233 78.0169 66.5022C80.53 64.3057 81.1398 62.5248 81.6356 59.3698C81.9496 57.3706 79.7347 53.5688 79.7968 53.3194C80.512 50.4451 81.1416 48.5123 79.3231 45.3368C78.2483 43.4603 76.8608 42.9504 75.194 41.6403C75.0267 41.5061 75.4659 38.7171 75.3995 38.3191C75.3061 34.0886 71.2524 30.1189 66.9574 30.75C65.5921 27.6571 63.6913 24.731 59.7799 25.1644C55.9515 25.2592 53.6439 28.7213 53.2851 32.2132C53.0789 34.2185 53.1409 36.1902 53.1392 38.2011L53.142 48.2768L53.171 66.0562C53.1745 68.7346 53.0757 71.5036 53.1401 74.1751C53.1951 76.4561 53.8778 79.8621 55.6454 81.453C57.0556 82.7222 58.7045 83.2829 60.5925 83.1996C62.9166 83.0971 64.3381 82.0158 65.9916 80.5363C67.855 80.3876 69.7189 80.1044 71.2671 78.9296ZM30.0502 41.698C27.4019 43.178 25.7698 44.3622 24.9039 47.3677C24.2641 49.5886 24.5782 51.1827 25.2563 53.2468C25.36 53.5626 24.3783 55.2465 24.2406 55.5994C23.0144 58.3322 23.2365 61.1836 24.7334 63.7501C26.1516 66.1816 27.1757 66.5952 29.2087 68.0256C27.694 72.6873 31.5537 78.6933 35.9825 80.025C38.6887 80.8389 38.8248 80.0111 41.0891 82.1711C42.3799 83.4025 46.4989 83.4948 47.9153 82.4557C49.6014 81.5871 50.661 80.0647 51.1462 78.2929C52.0894 74.8498 52.3282 68.7493 50.5781 65.5418C49.8006 63.755 47.5412 62.539 45.817 62.0727C44.9118 61.8279 41.3789 61.0733 40.8863 61.54C38.8725 63.4478 40.1915 68.7339 36.314 69.7378C35.9722 69.6461 36.0876 69.7245 35.877 69.4468C35.8539 69.2383 35.8102 69.0414 35.9888 68.8862C37.4696 67.5988 37.869 66.9059 38.2944 64.9684C38.3712 64.4496 38.9556 61.9861 38.9394 61.8019C37.2118 61.7616 34.0204 64.5474 32.9238 63.6447C32.7469 62.7677 34.0829 62.5803 34.7019 62.2251C39.1366 59.6805 43.7781 59.5663 48.4285 61.8217C45.3727 55.6784 40.4659 52.8574 33.6638 54.2582C32.6363 54.4698 30.4138 55.5278 29.6482 54.894C29.1493 53.6521 35.1832 52.7785 36.0671 52.7169C35.1761 51.9243 31.5005 48.1848 32.3056 47.0164C32.4286 46.9705 32.6313 46.861 32.7232 46.9355C33.4781 47.5475 34.1867 48.8943 34.7912 49.5968C35.4355 50.2897 36.3256 51.4543 37.07 52.0166C38.3027 52.948 40.2424 53.0655 41.7054 53.5991C45.7394 55.0707 48.4402 58.4169 49.9919 62.3143C50.4712 63.518 51.1999 64.1262 51.8548 65.186C51.755 62.3744 51.8131 59.291 51.813 56.4623L51.8145 41.4912C51.8149 38.3427 51.8881 35.166 51.6999 32.0268C51.4937 28.586 48.6869 24.992 45.0205 25.1306C44.8453 25.1365 44.6703 25.1484 44.4959 25.1661C39.7542 25.7493 39.5323 30.114 38.298 30.7611C37.7518 30.8281 37.0961 30.6268 36.6654 30.7049C31.1402 31.7065 28.7926 36.3832 30.0502 41.698Z" fill="#242520"/>
<path d="M60.8412 32.8111C61.092 32.8812 61.6111 32.994 61.5425 33.3501C61.1661 35.3028 60.6474 37.3781 60.9791 39.3746C61.2128 40.7809 62.4016 42.0987 63.0374 43.3559C63.1843 43.6463 63.3874 44.5772 63.5376 44.6817L63.7939 44.6041C64.2536 44.2016 64.4179 43.7567 64.7335 43.287C65.9507 41.4762 66.372 39.6952 67.0098 37.6685C67.145 37.2387 67.2246 37.1233 67.5784 36.9597C68.4979 37.1951 68.0078 38.3526 67.8879 39.0217C67.3808 42.0003 65.2812 45.143 63.0511 47.1471C59.7722 50.0936 59.6296 52.0947 59.0451 56.2504C60.3766 55.1702 61.703 54.2475 63.3152 53.6039C64.6935 53.0538 66.7275 52.9842 67.8798 52.1131C69.7392 50.7075 70.8677 48.4638 72.2795 46.9123C72.66 46.8856 72.7869 46.9987 72.9653 47.2925C73.0207 47.9405 72.5736 48.4414 72.2055 48.9843C71.2225 50.5477 70.5085 51.1807 69.394 52.5681L69.4918 52.7057C70.5357 52.7389 74.877 53.6543 75.4068 54.5546C75.4198 54.9013 75.4576 54.7641 75.2405 55.0687C74.9021 55.1665 74.36 55.0812 74.0458 54.9637C68.5351 52.9017 62.3184 53.7747 58.5831 58.6368C58.0476 59.3339 57.4484 60.745 56.7782 61.2903C56.4758 61.3307 56.4271 61.3433 56.1535 61.216C55.614 60.3031 57.3743 58.3884 57.6108 57.4617C57.8862 56.3833 57.9555 55.1335 58.0539 54.0275C58.3744 50.427 59.9355 48.3895 62.4731 45.9677C61.7607 41.9792 58.5665 40.6579 59.9033 35.1796C60.0742 34.4792 60.1462 33.29 60.8412 32.8111Z" fill="#242520"/>
<path d="M64.7894 60.499C66.7586 60.2009 68.5982 61.2738 70.2749 62.1476C70.8331 62.4385 72.1794 62.8352 72.247 63.507C71.4346 64.4065 68.8484 62.7122 68.0458 62.3242C63.7828 60.2636 60.4321 63.4193 58.4435 66.9014C63.8695 68.2737 61.783 71.0672 64.29 73.8741C64.9444 74.4762 67.2318 75.4927 67.0835 76.2271C66.5417 76.5064 66.2142 76.2836 65.7033 76.1088C62.8139 75.1205 62.1625 72.9223 61.2805 70.2909C60.8163 68.9058 59.2126 68.3434 57.9015 67.8675C57.5658 68.5351 57.1189 69.8841 56.2878 69.7892C55.9918 69.5219 56.0828 69.6581 55.9636 69.2499C56.076 68.4061 58.0701 64.9364 58.681 64.1869C60.3457 62.1452 62.1729 60.8477 64.7894 60.499Z" fill="#242520"/>
<path d="M42.7795 32.8688C44.0634 32.9146 43.9562 34.7084 44.2505 35.6247C45.4042 39.2166 43.3127 41.2003 42.4795 44.2624C43.7634 45.3933 44.9092 45.8365 46.0476 47.4829C46.7941 48.5625 47.8208 50.8548 47.6 52.1194C47.4765 52.3729 47.3625 52.3998 47.1124 52.5154L47.0547 52.5137C46.7454 52.5048 46.8167 52.438 46.6538 51.9262C45.9329 49.6634 45.2161 47.722 43.165 46.3179C41.0723 44.8243 39.283 43.5864 38.0425 41.2128C37.5345 40.2407 36.8165 38.1786 37.1473 37.111C37.9959 36.3674 38.4576 38.9886 38.6235 39.5211C39.1381 41.1726 40.2333 42.2839 41.3741 43.5247C41.8086 41.6253 43.0774 40.6966 43.2108 38.5216C43.2495 37.9058 43.2341 37.2878 43.165 36.6746C43.0525 35.7386 42.505 33.621 42.7795 32.8688Z" fill="#242520"/>
<path d="M45.8715 68.7636C46.0609 68.7149 46.2057 68.7439 46.4023 68.7617C46.6878 68.9458 46.6131 68.8393 46.6901 69.1547C46.5125 69.9511 45.4452 70.0697 44.8705 70.7218C44.3099 71.3579 43.8536 72.1362 43.4299 72.8728C42.2758 74.879 40.7981 75.4871 38.7776 76.3801C38.7444 76.3856 38.7112 76.3903 38.6779 76.3944C38.3345 76.4333 38.2132 76.4184 37.9515 76.2116C37.8715 75.8988 37.8732 76.0313 38.0052 75.6801C38.6204 75.0886 39.9018 74.7823 40.7799 74.0347C43.1277 72.036 42.7055 69.9846 45.8715 68.7636Z" fill="#242520"/>
</g>
<defs>
<filter id="filter0_g_180_958" x="-1.39575" y="-0.471069" width="108" height="108.781" filterUnits="userSpaceOnUse" color-interpolation-filters="sRGB">
<feFlood flood-opacity="0" result="BackgroundImageFix"/>
<feBlend mode="normal" in="SourceGraphic" in2="BackgroundImageFix" result="shape"/>
<feTurbulence type="fractalNoise" baseFrequency="0.99900001287460327 0.99900001287460327" numOctaves="3" seed="1401" />
<feDisplacementMap in="shape" scale="8" xChannelSelector="R" yChannelSelector="G" result="displacedImage" width="100%" height="100%" />
<feMerge result="effect1_texture_180_958">
<feMergeNode in="displacedImage"/>
</feMerge>
</filter>
</defs>
</svg>
