<svg width="108" height="110" viewBox="0 0 108 110" fill="none" xmlns="http://www.w3.org/2000/svg">
<g filter="url(#filter0_g_172_925)">
<g clip-path="url(#clip0_172_925)">
<path d="M52.097 3.91119C52.6993 3.86753 53.4338 3.86548 54.0415 3.87149C65.4909 4.03174 76.6451 7.88897 85.3171 15.4628C108.496 35.7071 109.269 70.6682 87.6908 92.3275C80.2738 99.6698 70.6387 104.355 60.2835 105.655C58.8404 105.841 57.1681 106.089 55.7258 106.094C53.9949 106.101 51.7539 106.147 50.0567 106.018C40.3009 105.318 30.9853 101.682 23.3352 95.5873C12.5522 86.8515 5.70315 74.1721 4.30921 60.3647C2.79222 46.5251 6.89891 32.6564 15.7067 21.8741C22.9789 13.0711 33.0803 7.06412 44.2874 4.87798C46.6694 4.40323 49.6556 4.1583 52.097 3.91119ZM56.1839 104.919C69.8059 103.701 81.2013 98.5092 90.055 87.8895C98.8823 77.2333 103.089 63.4939 101.742 49.7223C100.468 36.4108 93.9363 24.1577 83.5946 15.6802C74.7889 8.38658 62.6621 4.32735 51.2397 5.25518C38.8592 5.78765 26.8013 11.6368 18.4382 20.7408C11.1078 28.86 6.58206 39.1208 5.52869 50.0088C4.97762 55.5847 5.36185 61.8072 6.724 67.2318C9.095 77.0785 14.4026 85.9719 21.9431 92.7332C31.4355 101.327 43.4195 105.438 56.1839 104.919Z" fill="white"/>
<path d="M52.7125 20.2353L54.506 20.2776C54.7328 20.4036 54.9562 20.5354 55.1762 20.6728C56.1899 21.3135 56.2495 21.8599 56.5088 22.9736C58.1261 23.6687 59.087 24.2135 60.4662 25.2604C63.0368 27.212 66.4162 32.8235 66.7186 35.9393C66.8695 35.8908 67.0222 35.8479 67.1763 35.8105C70.8828 34.8942 77.2427 35.5512 80.4922 37.6068C86.984 41.7134 84.4039 48.1474 81.1407 53.3611C82.1818 54.754 82.0838 56.1395 80.9662 57.421C82.6534 60.0998 84.2998 63.1824 84.2998 66.4575C84.2888 68.4866 83.4653 70.4268 82.0133 71.8443C78.1278 75.6437 72.0803 74.9989 67.3764 74.939C65.9529 75.7121 65.0781 84.4231 56.6353 87.8268C55.9666 89.2181 55.6145 89.7433 54.1773 90.2604C52.106 90.5108 51.5919 89.5477 50.7215 87.9261C49.3832 87.3781 48.5249 86.9683 47.3312 86.1355C44.132 83.9034 40.8043 78.4777 40.2137 74.6633C40.0026 74.7245 39.4704 74.8757 39.2721 74.9026C35.1664 75.4609 29.8252 75.0748 26.3027 72.7997C22.1857 70.1407 21.9799 65.1897 23.9821 61.2197C24.5632 60.0676 25.4031 58.648 25.8483 57.4602C25.8486 57.4594 25.2096 55.5597 25.1196 55.113L25.803 53.1926C19.288 43.0978 23.1065 35.6388 35.177 35.4717C37.1116 35.4449 38.4039 35.4592 40.3451 35.8533C40.5238 34.7728 41.1077 33.245 41.5851 32.2597C43.7362 27.8215 45.9171 24.7421 50.5864 22.9997C51.1189 21.4991 51.3595 21.0727 52.7125 20.2353ZM40.0483 73.9382C39.6822 73.0372 39.1615 72.1429 39.4698 71.2388L39.6815 71.125C40.6073 71.5893 40.5691 72.9214 40.5839 73.7982C42.4751 73.378 43.0195 73.3038 44.9422 73.9092C43.6953 74.1424 42.2917 74.3703 41.0891 74.7314C42.7 79.5712 44.8843 83.9775 49.6102 86.5118C49.9531 86.6958 50.2766 86.8212 50.6574 86.7219C51.4158 85.7192 51.625 85.2907 52.7169 84.6767C54.5145 84.7076 55.9593 84.7411 56.4578 86.815C58.1652 86.6667 60.5002 84.3521 61.5947 83.1154C64.1185 80.2635 64.7365 77.6671 66.1716 74.5121C65.3987 74.4499 63.7842 74.4456 63.284 73.8925C63.8841 73.2522 65.6107 73.6316 66.4032 73.828C66.5977 72.9491 66.732 71.8307 67.4838 71.2985L67.6851 71.4087C67.8338 72.286 67.5015 72.998 67.1955 73.8247C72.2905 74.5958 82.0183 74.3686 83.1254 67.5046C83.6834 64.0451 81.9083 61.0517 80.4549 58.0546C77.2231 58.1283 76.5491 57.5513 76.3751 54.3229L77.6617 52.8818C78.6581 52.5755 79.2757 52.2814 80.2359 52.7309C80.7008 52.5707 80.8887 52.1145 81.1214 51.7065C88.191 39.3088 77.9034 34.8852 66.9888 36.7376C67.2352 37.3061 67.5336 37.8412 67.463 38.4513L67.2817 38.646C66.6011 38.4346 66.3043 37.5128 66.0256 36.8946C65.3047 37.0357 64.7488 37.2056 64.1384 36.6956C64.404 35.929 65.4761 36.051 66.1845 36.0169C65.3926 34.7788 65.0741 33.5728 64.4511 32.2878C62.5329 28.3315 60.5796 25.7482 56.5984 23.8687C55.8412 24.7789 55.2757 25.4355 54.1025 25.9035C52.4339 26.5691 51.3738 24.1714 50.5284 23.9125C45.4485 26.5502 43.445 30.022 41.3596 35.3793C41.276 35.5944 41.2707 35.7099 41.3413 35.9202C42.0365 36.2933 42.6459 35.9048 43.2278 36.3226C43.2105 36.7411 43.2592 36.5759 42.9793 36.955C42.1967 37.2937 41.1655 36.3087 40.7624 37.2449C40.5433 37.7538 40.6489 38.1113 40.1974 38.607L39.9349 38.6607C39.4713 37.9643 39.835 37.4139 40.1147 36.6834C38.1801 36.5054 36.3134 36.2888 34.4402 36.3887C29.9081 36.6302 24.1797 38.2865 23.7572 43.678C23.5435 46.4079 24.8476 50.514 26.5427 52.5695C27.1814 52.8626 27.6932 52.4069 28.291 52.5463C28.7457 52.6523 29.7011 53.1718 30.152 53.3961C31.7406 56.513 30.1205 58.4015 26.7654 58.0024C18.5652 71.157 28.1073 75.0794 40.0483 73.9382ZM78.8347 53.5646C77.8281 53.7428 77.16 54.7077 77.3475 55.7127C77.5351 56.7178 78.5063 57.3768 79.5096 57.1798C80.4995 56.9854 81.148 56.0297 80.963 55.0379C80.7779 54.0461 79.8282 53.3886 78.8347 53.5646ZM28.6404 57.1792C30.3868 56.1591 30.2758 53.9316 28.6304 53.5622C28.302 53.4882 27.9631 53.4745 27.6298 53.5218C25.8007 54.2722 25.5152 56.0774 27.4001 57.1451C27.5629 57.2374 28.4131 57.1899 28.6404 57.1792ZM53.5631 85.5317C52.86 85.5592 52.2283 85.9698 51.9179 86.6013C51.6075 87.233 51.6682 87.9838 52.0759 88.5573C52.4835 89.131 53.1729 89.4349 53.8713 89.3492C54.8913 89.2241 55.631 88.3169 55.5484 87.2927C55.4658 86.2684 54.59 85.4916 53.5631 85.5317ZM55.8364 23.1043C55.2954 22.0654 54.8472 20.9858 53.4613 21.1174C50.5739 22.3291 51.5248 24.8568 53.9922 25.0101C54.9935 24.379 55.2491 24.1301 55.8364 23.1043Z" fill="white"/>
<path d="M47.6093 44.3313C48.6703 41.4241 51.2616 38.1124 52.5136 35.1708C52.715 34.6975 53.2215 33.9018 53.7306 33.7578C54.3853 34.0417 58.7348 42.5974 59.7139 44.0327C60.653 44.5644 70.0848 44.1727 72.2403 44.3576C71.743 44.9776 71.4164 45.5051 71.0229 46.1907C69.2813 49.2245 67.6453 52.2868 65.7062 55.2018C67.2493 56.8363 69.2028 60.8754 70.3819 62.9417C70.6819 63.4675 71.6248 64.9152 71.765 65.3605C70.9176 66.1905 69.5989 65.63 68.6252 65.802C66.4395 66.1881 60.4693 64.5876 59.3384 66.5302C58.3146 68.2887 54.5343 75.8999 53.633 76.3347C53.3623 76.208 53.1237 76.0941 53.0041 75.8021C51.6087 72.3929 48.8821 68.9552 47.5329 65.5801C46.2711 65.838 36.2563 65.9866 35.714 65.4815C35.7244 64.3985 40.5714 56.3054 41.5586 55.171C39.7747 52.5838 37.3716 47.8098 35.5476 44.9545C35.3974 44.7194 35.5066 44.5735 35.6049 44.3703C36.2834 44.1346 39.0892 44.2621 40.0059 44.2786C38.9529 45.2004 37.5215 44.786 36.9385 45.1877L36.9913 45.4706C37.7516 47.5454 40.9533 51.738 41.9238 54.3655C42.1073 53.8963 42.3382 53.5481 42.5251 53.1257C43.5228 50.8714 46.123 47.4841 46.8555 45.3033L46.6845 45.1856C45.267 45.0525 44.0453 44.9189 42.6563 44.6054C43.0495 44.5492 43.416 44.4096 43.7945 44.2846C45.1554 44.2599 46.2492 44.2534 47.6093 44.3313ZM54.0106 63.1303C56.1313 62.7901 57.6859 62.3984 59.2581 60.7997C60.8589 59.1411 61.662 57.1413 61.6006 54.8171C61.5257 52.5575 60.5481 50.4222 58.8862 48.8892C57.3801 47.5054 56.1448 47.2067 54.2522 46.8308C53.9906 48.2762 54.1838 49.5469 54.1303 50.9163C54.0095 54.0102 54.5241 60.2946 54.0106 63.1303ZM48.331 61.1379C49.8183 62.5309 51.0982 62.9152 53.1121 63.0698C53.0412 58.9253 53.1017 51.5697 53.0935 47.1258C53.0372 47.0485 52.981 46.9713 52.9249 46.8939L52.4487 46.9452C48.5188 48.0745 45.7663 50.4853 45.7221 54.9225C45.6957 57.5785 46.4639 59.2634 48.331 61.1379ZM60.3326 45.1871C60.8537 46.2261 64.9773 53.7781 65.374 53.9724L65.5773 53.7499C67.1598 50.9207 68.9746 47.9623 70.4873 45.1294C69.2935 45.0759 65.8517 44.8282 64.8688 44.9236C63.6574 45.023 61.4337 45.3097 60.3326 45.1871ZM54.001 74.2527L54.055 74.1304C54.5682 72.9844 58.5815 66.1978 58.6158 65.7731C57.8718 65.6989 56.9809 65.8594 56.1596 65.8178C55.5736 65.7882 53.6995 65.4875 53.2557 65.589C51.671 65.7356 50.161 65.6243 48.6414 65.8884C49.2788 67.1063 53.1691 74.2436 53.743 74.4932L54.001 74.2527ZM59.2636 45.0528C58.0338 45.3017 55.7421 45.3569 54.4778 45.2218C54.1581 45.593 54.1833 45.4492 54.192 45.836C54.5446 46.1867 55.6439 46.2855 56.2067 46.4428C58.4642 47.0738 59.6575 48.3677 61.285 49.9722C61.3183 49.822 61.3596 49.6354 61.409 49.4126C60.9147 48.0986 59.8278 46.2894 59.2636 45.0528ZM48.6411 47.4261C49.7119 46.8893 52.9513 45.9834 53.1534 45.3904C52.7197 45.2226 48.8935 45.2044 48.0231 45.1413C47.5186 46.088 45.9628 48.7493 45.9767 49.6766L46.1349 49.7354C47.0104 49.2422 47.7642 48.1181 48.6411 47.4261ZM46.0696 60.1791C45.6896 61.4943 47.4591 63.4997 48.0043 65.0189C49.0532 64.7995 51.8879 64.7094 52.8593 64.9338L53.0384 64.9855C53.3087 63.6822 49.8392 63.7927 48.8419 62.6341C48.8714 62.6683 45.8496 60.0515 46.0696 60.1791ZM54.4639 64.983C56.0343 64.4861 57.6805 65.0728 59.1566 64.7829C59.5734 64.701 61.3766 61.0571 61.3684 60.5435C61.2707 60.4259 61.1715 60.2869 61.0536 60.1978C59.6311 61.8585 58.3623 63.1319 56.1818 63.752C55.6193 63.9119 54.4243 64.246 54.1397 64.7441L54.2144 65.0249L54.4639 64.983ZM53.5417 35.4249C51.9641 38.3337 50.2598 41.506 48.5121 44.2991L53.7057 44.2505L58.8559 44.2651C57.9779 43.0325 54.1268 35.7137 53.5417 35.4249ZM42.2934 55.2512C43.0858 56.0879 43.7227 57.0592 44.1741 58.1196C44.4757 58.6046 44.9547 59.5982 45.5831 59.5079C45.7102 59.0794 45.4583 58.6423 45.281 58.2159C44.5234 55.6956 44.6421 54.3597 45.2957 51.8038C45.4823 51.0743 45.7382 50.3133 45.7826 49.5693C44.7361 50.8944 43.2853 53.651 42.2934 55.2512ZM61.7828 50.2262C61.6157 50.7119 62.315 53.5682 62.4591 54.2829C62.8696 56.3176 61.5979 58.4505 61.6406 59.6439C62.3027 59.78 62.5929 58.9675 62.8955 58.442C63.52 57.2224 64.0806 56.259 65.0052 55.2384C64.4601 54.35 62.4076 50.5987 61.7828 50.2262ZM41.8124 55.8919C41.2249 57.8776 39.1995 60.5677 38.2551 62.4868C37.8949 63.2186 37.2257 63.8403 37.0293 64.6688L37.1267 64.8503C38.7628 64.9442 40.5919 64.7964 42.2679 64.8125C43.6703 64.8134 45.7266 64.7579 47.0725 64.8452C46.4329 63.8409 42.1205 56.0601 41.8124 55.8919ZM60.2129 64.9461C61.6477 64.7731 63.9382 64.84 65.4417 64.8405C67.1412 64.8184 69.0451 64.7473 70.7227 64.8931C69.3768 63.3689 65.8866 56.3438 65.2392 55.9019C64.9886 56.835 60.9029 63.9163 60.2129 64.9461Z" fill="white"/>
<path d="M45.2811 58.2159C45.4583 58.6423 45.7103 59.0794 45.5831 59.5079C44.9547 59.5982 44.4757 58.6046 44.1741 58.1196L45.2811 58.2159Z" fill="white"/>
<path d="M65.2108 54.4286L65.6725 54.6868C65.8217 55.2077 65.7219 55.1521 65.4749 55.777L65.113 55.4806C64.9662 54.9566 65.0421 55.0329 65.2108 54.4286Z" fill="white"/>
<path d="M41.8072 54.4417C41.9839 54.5254 42.1003 54.6292 42.2577 54.7471C42.3479 55.2928 42.2764 55.2209 42.0579 55.8115C41.8972 55.7164 41.8145 55.618 41.6789 55.4885C41.5535 54.9503 41.6202 55.043 41.8072 54.4417Z" fill="white"/>
<path d="M40.0059 44.2786C41.2182 44.2475 42.5837 44.2194 43.7945 44.2846C43.416 44.4096 43.0495 44.5492 42.6563 44.6054C44.0453 44.9189 45.267 45.0525 46.6845 45.1856C44.4152 45.5911 39.3304 44.4746 36.9914 45.4705L36.9385 45.1877C37.5215 44.786 38.9529 45.2004 40.0059 44.2786Z" fill="white"/>
</g>
</g>
<defs>
<filter id="filter0_g_172_925" x="-0.343018" y="0" width="108" height="110" filterUnits="userSpaceOnUse" color-interpolation-filters="sRGB">
<feFlood flood-opacity="0" result="BackgroundImageFix"/>
<feBlend mode="normal" in="SourceGraphic" in2="BackgroundImageFix" result="shape"/>
<feTurbulence type="fractalNoise" baseFrequency="0.99900001287460327 0.99900001287460327" numOctaves="3" seed="1836" />
<feDisplacementMap in="shape" scale="8" xChannelSelector="R" yChannelSelector="G" result="displacedImage" width="100%" height="100%" />
<feMerge result="effect1_texture_172_925">
<feMergeNode in="displacedImage"/>
</feMerge>
</filter>
<clipPath id="clip0_172_925">
<rect width="100" height="102" fill="white" transform="translate(3.65698 4)"/>
</clipPath>
</defs>
</svg>
