<svg width="106" height="108" viewBox="0 0 106 108" fill="none" xmlns="http://www.w3.org/2000/svg">
<g filter="url(#filter0_g_180_965)">
<path d="M51.1176 4.05854C52.9388 3.88729 54.9403 4.13073 56.7571 4.29007C67.6388 5.15257 77.889 9.74558 85.7753 17.2928C95.75 26.9336 101.01 39.3488 101.235 53.1779C101.452 66.476 96.341 79.3086 87.0398 88.8153C78.6718 97.4433 66.3326 103.163 54.2703 103.344C52.4406 103.368 49.256 103.385 47.4777 103.159C38.4985 101.996 29.969 98.5775 22.878 92.926C8.86277 81.7559 2.00877 64.1363 4.50523 46.4013C7.32041 26.402 22.1725 9.69927 41.9852 5.30182C45.1822 4.59224 47.8891 4.39996 51.1176 4.05854ZM55.0516 102.071C57.6446 102.142 59.8384 101.654 62.3352 101.128C70.5681 99.3896 78.3966 95.2982 84.5274 89.4866C94.0688 80.5255 99.6341 68.1236 99.9856 55.0386C100.363 41.9922 95.5297 29.3323 86.5535 19.8569C78.0355 10.8369 66.2524 5.61475 53.8486 5.36229C52.6885 5.33371 51.2681 5.34025 50.1115 5.42005C49.15 5.56282 48.219 5.61671 47.2542 5.69943C45.4636 5.85294 43.6235 6.20978 41.8721 6.60789C31.0059 9.14253 21.4138 15.5009 14.8473 24.5221C7.16853 34.9821 3.90425 48.0391 5.75727 60.8821C7.65166 73.6167 14.489 85.0914 24.787 92.8185C32.6982 98.6664 42.524 102.226 52.4068 102.124C53.2897 102.115 54.1685 102.083 55.0516 102.071Z" fill="#242520"/>
<path d="M52.1665 80.2938C51.8442 76.4712 52.1658 72.072 52.0595 68.1871C52.0192 66.7118 52.1884 63.9947 51.8066 62.6682C50.8051 59.1884 47.6812 56.3543 46.0464 53.0776C45.129 51.2391 44.4526 49.8045 44.1148 47.7194C43.8062 45.8144 43.8292 43.3041 44.1206 41.4067C44.9847 35.7808 48.8947 27.3906 52.5454 23.0738L52.6475 22.9539C53.7524 24.1827 54.3926 25.2956 55.2643 26.696C58.6859 32.193 61.6758 38.9983 61.4767 45.5772C61.3198 50.7653 58.8368 54.1366 55.9567 58.1486C55.3489 58.9953 53.9263 61.0711 53.7065 62.1001C52.9815 65.4945 53.5081 70.1085 53.3773 73.6504C53.3338 74.8304 53.2843 78.0754 53.3594 79.0209C53.3045 79.379 53.2219 79.5164 53.3393 79.8144C53.5965 79.6163 53.7382 79.1616 53.8682 78.8444C54.0906 78.5574 54.1301 78.1977 54.3153 77.9657C55.99 75.8784 55.4677 73.2819 55.8785 70.8287C56.3442 68.0476 56.8652 65.5758 58.0828 63.0055C62.5088 53.6628 72.9463 50.3213 82.5185 49.8527C82.0859 57.2908 80.6282 65.4721 74.7923 70.7142C70.8021 74.2983 64.9365 75.6123 59.7654 76.448C58.8047 76.6034 57.2834 76.8958 56.3646 76.9314C53.6325 81.2573 53.2479 84.1951 53.3403 89.1731C53.3511 89.7606 53.3308 90.197 52.6903 90.3499C52.5577 90.2808 52.2972 90.1281 52.2744 89.8216C51.9538 85.5127 51.8915 80.4197 48.8431 77.0149C48.5287 76.6637 44.6201 76.3508 43.8986 76.1248C33.4402 74.2933 27.3531 70.8971 24.2707 60.1497C23.7477 58.3261 22.4715 51.7148 22.8418 50.1344C23.4323 49.5509 27.6356 50.3113 28.6682 50.4811C38.0263 52.0202 46.5221 57.6122 48.7531 67.3016C49.4533 70.3426 49.6294 72.8862 49.9778 75.9455C50.0377 76.4706 51.7847 79.4049 52.1665 80.2938ZM32.3536 60.5795C32.231 60.1306 32.1841 59.6808 32.7007 59.4956C33.1337 59.5698 34.8475 60.8381 35.2833 61.1491C39.823 64.3903 44.018 68.0196 47.3758 72.5024C47.7804 73.0428 48.2566 73.6057 48.7293 74.0979C48.28 72.918 48.2394 71.4592 48.0586 70.1816C46.9541 62.3751 42.7529 57.0324 35.4818 53.7699C31.8773 52.1895 27.998 51.3311 24.0633 51.243C24.0684 56.8786 26.5036 65.1187 30.5104 69.155C35.1445 73.8232 42.1756 74.4917 48.2937 75.6485C47.5581 74.8779 46.8785 73.8725 46.2237 73.0144C45.4479 72.0137 44.6323 71.0447 43.7789 70.1094C39.8969 65.909 36.74 63.8939 32.3536 60.5795ZM56.9221 73.9833C60.6359 68.2742 66.0294 63.7436 71.6203 59.9556C72.0509 59.6639 72.4131 59.4322 72.8842 59.7075C73.0105 59.9902 73.0283 60.0285 72.9849 60.333C72.8325 60.6592 72.6302 60.7642 72.3351 60.9722C65.7967 65.6089 61.7191 69.0852 57.1407 75.7151C58.3518 75.3391 60.6588 75.0534 62.0247 74.7903C68.9683 73.4532 74.2545 71.428 77.7309 64.8264C79.4307 61.5988 81.2042 54.9613 80.9986 51.3442L80.9009 51.2162L80.7057 51.2486C74.2234 51.5471 66.8303 54.1199 62.33 58.9519C58.7953 62.7471 56.9192 68.8356 56.9221 73.9833ZM52.2054 60.0859C51.9375 58.4874 51.9021 37.5934 52.2987 37.0396C52.4216 36.8679 52.6239 36.7995 52.8302 36.7799C52.8485 36.7782 52.8669 36.7792 52.8851 36.7787L52.9421 36.8469C53.5155 37.5473 53.3766 41.1469 53.3787 42.1952L53.3875 49.3575C53.3951 51.6116 53.388 53.8658 53.3659 56.1198C53.3586 57.0567 53.4577 58.7095 53.224 59.5757L53.3012 59.684C53.5579 59.4591 54.8006 57.6029 55.1063 57.1568C57.6406 53.5424 59.9181 50.4804 60.1351 45.8766C60.432 39.5765 57.9108 33.6661 54.7664 28.3398C54.4543 27.8112 53.0409 25.2934 52.6463 25.0677C48.4109 31.5152 43.985 40.0408 45.4501 48.1072C46.2414 52.4638 49.8835 56.3873 52.2054 60.0859Z" fill="#242520"/>
<path d="M53.3594 79.0209C53.5563 78.8523 53.6056 78.8585 53.8682 78.8444C53.7381 79.1616 53.5964 79.6163 53.3393 79.8144C53.2219 79.5164 53.3044 79.379 53.3594 79.0209Z" fill="#242520"/>
</g>
<defs>
<filter id="filter0_g_180_965" x="-1.36548" y="-0.370163" width="108" height="108" filterUnits="userSpaceOnUse" color-interpolation-filters="sRGB">
<feFlood flood-opacity="0" result="BackgroundImageFix"/>
<feBlend mode="normal" in="SourceGraphic" in2="BackgroundImageFix" result="shape"/>
<feTurbulence type="fractalNoise" baseFrequency="0.99900001287460327 0.99900001287460327" numOctaves="3" seed="9537" />
<feDisplacementMap in="shape" scale="8" xChannelSelector="R" yChannelSelector="G" result="displacedImage" width="100%" height="100%" />
<feMerge result="effect1_texture_180_965">
<feMergeNode in="displacedImage"/>
</feMerge>
</filter>
</defs>
</svg>
