<svg width="106" height="109" viewBox="0 0 106 109" fill="none" xmlns="http://www.w3.org/2000/svg">
<g filter="url(#filter0_g_180_946)">
<g clip-path="url(#clip0_180_946)">
<path d="M51.5601 4.03717C51.6463 4.03283 51.7325 4.02913 51.8189 4.02607C64.114 3.58066 76.5968 8.87687 85.4857 17.2255C105.345 35.8779 106.487 68.5978 87.9544 88.5805C80.0236 97.1315 69.7807 102.566 58.1655 104.145C56.687 104.346 55.2846 104.288 53.8077 104.337C52.3322 104.318 49.8545 104.369 48.4544 104.24C37.7089 103.216 27.6127 98.635 19.7664 91.2223C9.91279 81.8055 4.23836 68.8363 4.0092 55.2085C3.50222 28.121 23.9957 4.60604 51.5601 4.03717ZM53.0808 103.244C54.1923 103.206 55.8343 103.19 56.9059 103.078C68.202 101.869 78.691 96.6534 86.4713 88.3753C96.7996 77.3125 101.131 63.3468 99.5793 48.2438C97.2761 25.8232 79.0332 7.13549 56.3848 5.3922C55.1662 5.2984 53.6622 5.136 52.4508 5.21098C39.258 5.59018 27.6974 10.375 18.5928 20.0272C10.8208 28.398 6.12121 39.1596 5.26348 50.5498C5.08088 52.9338 5.13622 56.8954 5.40225 59.2689C6.75329 71.3222 11.8717 82.1513 20.7551 90.487C29.5035 98.7151 41.071 103.28 53.0808 103.244Z" fill="#242520"/>
<path d="M51.8162 35.1866C62.2876 34.7824 71.107 42.9372 71.5229 53.4081C71.9387 63.8791 63.7938 72.7076 53.3233 73.135C42.8362 73.5633 33.9908 65.4026 33.5743 54.9152C33.1578 44.4277 41.3283 35.5914 51.8162 35.1866ZM52.5262 71.9831C62.3682 71.9901 70.3505 64.0139 70.351 54.1719C70.3514 44.3299 62.3697 36.3529 52.5277 36.3591C42.6951 36.3653 34.7274 44.3378 34.727 54.1703C34.7266 64.0029 42.6936 71.9761 52.5262 71.9831Z" fill="#242520"/>
<path d="M51.8535 44.5499C64.7098 43.721 68.4424 61.4648 57.2498 66.7629C56.6181 67.0618 54.8915 67.7959 54.2375 67.5518C54.0228 67.3166 54.0712 67.4363 54.0704 67.0963C54.4979 66.2872 55.9765 66.2068 56.8005 65.7889C64.9551 61.6529 64.6837 49.3557 55.8814 46.1633C53.5511 45.3181 51.2165 45.5267 48.9717 46.5782C46.651 47.6652 45.3393 49.6395 44.5055 52.0152C44.4801 52.1109 44.4562 52.207 44.4341 52.3035C43.9121 54.4817 44.2983 56.7786 45.5042 58.6662C46.5549 60.3171 47.8236 61.1845 49.8333 61.7403C54.0508 62.9219 57.9596 58.7925 55.5996 54.7631C53.9358 51.9224 50.4837 54.4215 49.9515 53.5798C50.0222 52.7305 50.8534 52.3502 51.5806 52.217C56.3792 51.1435 59.2635 57.0162 56.4814 60.4683C51.9927 65.994 43.8438 62.0402 43.1572 55.5064C42.5416 49.6479 46.1532 45.4811 51.8535 44.5499Z" fill="#242520"/>
<path d="M52.2057 15.2601C52.5802 15.3259 52.6277 15.3409 52.8645 15.574C53.2895 16.869 53.1306 29.5579 53.0501 31.6149L52.9196 31.8819C52.5834 32.0773 52.7201 32.0539 52.3815 32.0352C51.5263 30.9149 51.9486 17.4115 52.2057 15.2601Z" fill="#242520"/>
<path d="M16.4672 53.7402C17.4565 53.6106 20.4609 53.709 21.5994 53.6978C24.1434 53.673 26.8018 53.7092 29.3544 53.7183C29.7903 53.7199 30.2909 53.7523 30.5849 54.0779L30.5296 54.3044C29.9734 54.8585 29.4451 54.7914 28.6473 54.8576C27.1569 54.9372 15.5776 55.0822 14.9364 54.7793C14.761 54.6965 14.6045 54.5507 14.547 54.3616C14.4883 54.1685 14.5177 54.1367 14.6089 53.9724C15.0829 53.7266 15.8864 53.7683 16.4672 53.7402Z" fill="#242520"/>
<path d="M52.2185 76.4035C52.4785 76.428 52.578 76.4678 52.82 76.5504C53.4133 77.105 52.9771 89.4893 53.0728 91.0294C53.0995 91.4599 52.9713 92.1739 52.7418 92.5739C52.4333 92.561 52.1749 92.4708 52.1407 92.1447C51.9342 90.1769 51.5666 77.4981 52.2185 76.4035Z" fill="#242520"/>
<path d="M75.5275 53.6551C77.495 53.5375 88.8368 53.3686 90.0674 53.8316C90.2783 53.9109 90.3726 53.9623 90.4629 54.1741L90.3084 54.3679C89.947 54.5713 89.6032 54.5273 89.1892 54.5191C85.2404 54.789 79.0572 54.7766 74.9589 54.5156C74.747 54.5021 74.6556 54.3519 74.5723 54.1983C74.7467 53.6271 75.0379 53.6985 75.5275 53.6551Z" fill="#242520"/>
<path d="M36.6296 69.9934C37.0214 70.1867 37.2068 70.2519 37.3042 70.6983C37.1544 71.2777 29.3663 78.7779 28.2795 80.2042C27.8407 80.0216 27.6587 79.8911 27.6079 79.4183C27.7966 78.7999 35.5643 70.864 36.6296 69.9934Z" fill="#242520"/>
<path d="M76.6088 29.0481C76.7802 29.1098 76.8658 29.2085 76.9743 29.3553C77.0983 29.5245 77.142 29.7395 77.094 29.9437C77.0199 30.2499 69.2253 38.309 68.4549 38.8206C68.144 38.6341 67.992 38.5102 67.9133 38.1637C68.1583 37.3888 75.5033 30.0419 76.6088 29.0481Z" fill="#242520"/>
<path d="M68.4146 69.6806C68.5428 69.7373 76.7329 78.1904 77.3614 78.9245L76.759 79.6797C75.8999 78.9551 67.9225 71.0274 67.8579 70.5141C67.9298 70.1445 68.1557 69.958 68.4146 69.6806Z" fill="#242520"/>
<path d="M28.4369 29.4541C28.929 29.5903 36.9101 37.6644 37.226 38.3062C37.1578 38.684 37.0702 38.6636 36.7507 38.9951C36.093 38.8015 28.2574 30.8124 27.9636 30.1357C28.0478 29.7366 28.0969 29.7957 28.4369 29.4541Z" fill="#242520"/>
</g>
</g>
<defs>
<filter id="filter0_g_180_946" x="-1.32739" y="-0.690338" width="108" height="109.953" filterUnits="userSpaceOnUse" color-interpolation-filters="sRGB">
<feFlood flood-opacity="0" result="BackgroundImageFix"/>
<feBlend mode="normal" in="SourceGraphic" in2="BackgroundImageFix" result="shape"/>
<feTurbulence type="fractalNoise" baseFrequency="0.99900001287460327 0.99900001287460327" numOctaves="3" seed="9920" />
<feDisplacementMap in="shape" scale="8" xChannelSelector="R" yChannelSelector="G" result="displacedImage" width="100%" height="100%" />
<feMerge result="effect1_texture_180_946">
<feMergeNode in="displacedImage"/>
</feMerge>
</filter>
<clipPath id="clip0_180_946">
<rect width="100" height="101.953" fill="white" transform="translate(2.67261 3.30966)"/>
</clipPath>
</defs>
</svg>
