<svg width="108" height="107" viewBox="0 0 108 107" fill="none" xmlns="http://www.w3.org/2000/svg">
<g filter="url(#filter0_g_179_938)">
<g clip-path="url(#clip0_179_938)">
<path d="M51.3294 4.04889C52.2797 4.01646 53.2308 4.00024 54.1818 4C66.4931 4.03172 79.4854 9.22151 88.1406 17.6544C96.0856 25.3066 101.221 35.2395 102.771 45.9491C103.181 48.8772 103.234 51.343 103.212 54.279C103.068 67.4378 97.5214 80.0086 87.7813 89.2532C80.9794 95.7269 72.3394 100.123 62.9469 101.891C61.3326 102.21 57.9475 102.748 56.3558 102.734C45.4282 103.509 32.7498 99.4536 24.1946 92.9873C13.0359 84.4909 5.88127 72.0508 4.32922 58.4462C1.50779 35.1041 17.0865 11.6953 40.8775 5.75231C44.4726 4.85433 47.6642 4.44553 51.3294 4.04889ZM54.9233 101.589C57.6812 101.406 60.6517 101.249 63.3408 100.666C88.0559 95.3052 103.507 73.4306 101.797 49.464C101.004 36.6864 94.8804 24.7576 84.8146 16.3805C76.4213 9.3664 63.6889 4.55035 52.4738 5.33564C52.3238 5.34649 52.174 5.36008 52.0244 5.37666C50.4643 5.48637 48.9901 5.49675 47.4183 5.71128C35.9617 7.17977 25.4515 12.6044 17.8472 20.9737C8.96082 30.9107 4.53304 43.8294 5.53401 56.8996C6.46727 69.8513 12.7332 81.9106 22.9435 90.4057C30.4885 96.7762 39.9751 100.627 49.9852 101.384C51.5664 101.507 53.3631 101.676 54.9233 101.589Z" fill="white"/>
<path d="M45.385 41.4702C48.3404 41.3632 51.1731 41.8283 54.1104 41.846C56.9103 41.8629 59.6639 41.07 62.4738 41.6007C64.0995 41.9076 65.4319 42.6327 66.6008 43.7601C69.4136 46.4732 69.8688 49.917 70.7304 53.4855C71.2086 55.4665 71.7963 57.6356 72.6513 59.4959C73.3799 61.0815 74.5346 62.3491 75.7031 63.6442C78.4181 66.6533 85.1356 67.2789 86.6489 69.5298C87.0406 70.1123 87.1608 70.7923 87.0057 71.4683C86.8259 72.2525 86.3884 72.9062 85.6691 73.324C84.5558 73.9708 83.461 73.8816 82.2683 73.5961C82.8461 74.7626 83.5925 76.2739 83.5104 77.5787C82.8846 87.5339 69.283 86.0717 62.4331 86.0539L44.6875 86.0519C41.243 86.0538 37.688 86.1609 34.2638 85.8973C31.7962 85.5723 29.0366 85.2423 27.0621 83.6223C23.4641 80.6701 22.7594 77.5596 24.9767 73.5889C24.7749 73.6433 24.5717 73.6929 24.3675 73.7376C22.7468 74.0859 20.6128 73.419 20.2835 71.6579C19.7385 68.7437 22.044 68.1494 24.3203 67.3946C27.2206 66.4327 29.8621 65.4085 31.9966 63.2305C38.5979 57.065 34.5175 43.5032 45.385 41.4702ZM33.1958 70.9769C38.5989 71.0624 49.0128 74.8863 53.5925 77.722C55.5354 76.7168 57.0253 76.0506 59.0179 75.1433C63.0465 73.149 68.0857 71.7708 72.5726 71.0257C72.8605 70.9779 73.3415 71.0779 73.4396 70.8568C72.9866 70.3715 70.7298 69.5994 70.0531 69.3342C63.3847 66.7213 61.8681 61.097 62.2935 54.6769C62.3485 53.8471 62.355 51.925 63.3875 51.7314C63.4959 51.8039 63.5421 51.7967 63.5669 51.9275C63.8187 53.257 63.4448 54.9185 63.3844 56.2855C63.2297 59.7858 64.2162 64.2725 67.3612 66.4298C68.4831 67.1995 69.7143 67.8668 70.9613 68.4292C73.086 69.3875 82.6174 72.9796 84.3928 72.6862C84.8603 72.6089 85.2563 72.3578 85.5202 71.9798C85.8357 71.528 85.9275 70.9524 85.7989 70.4245C85.7121 70.0681 85.5724 69.8121 85.2433 69.6172C83.8624 68.8 82.1105 68.4007 80.6142 67.7924C79.4881 67.3347 78.2256 66.8927 77.1822 66.2838C73.0281 63.8595 71.0659 59.5646 69.8954 55.2065C68.7907 51.0931 68.5878 45.9758 64.3395 43.5412C60.7134 41.4631 56.9729 43.1902 53.0805 43.0659C50.8413 42.9944 48.6033 42.348 46.3645 42.4212C45.2621 42.6366 44.0471 42.9023 43.0831 43.4492C37.923 46.3766 38.4291 53.7089 36.4176 58.5095C34.3494 63.7511 30.5196 66.7628 25.0307 68.4033C23.6842 68.8059 20.9977 69.5577 21.3845 71.2679C22.1256 74.5448 29.7059 70.7498 31.7278 70.1356C36.0278 68.8295 41.649 66.7358 42.9467 62.1493C43.2585 61.1342 43.4347 59.9889 43.681 59.0183C44.0518 57.5569 43.1667 52.4692 44.0218 51.6664C44.942 52.0543 44.8793 53.921 44.956 54.7776C45.2392 57.9459 44.996 61.2243 43.4646 64.0969C41.2727 68.3259 36.9797 69.1986 33.1958 70.9769ZM48.509 85.0215C48.8471 85.0312 49.1609 85.0541 49.4085 84.8863C49.0842 84.607 48.5678 84.5499 48.1302 84.4608C45.8354 83.7098 43.303 82.939 41.0475 82.0526C40.592 81.8736 40.297 81.6778 40.4833 81.211C40.8772 80.9946 41.3703 81.0826 41.7868 81.2076C45.8816 82.3642 50.3576 83.9763 54.5205 84.819C57.4864 85.2002 60.8667 85.0928 63.8431 85.0333C69.3758 84.9229 75.8932 85.8497 80.3159 81.9729C83.86 78.8663 82.5736 73.184 77.8904 72.3603C70.7614 71.1062 61.0845 75.1087 54.9663 78.3721C58.8564 80.015 62.6353 81.6201 66.9576 81.7506C67.4618 81.7659 68.303 81.7088 68.6733 82.0446C68.9417 83.5806 65.4771 82.6345 64.7505 82.5824C58.9399 82.1649 53.9769 78.9729 48.8347 76.6373C44.9138 74.8564 40.5994 73.207 36.3081 72.4788C33.0942 71.881 28.6454 71.5452 26.2157 74.1119C25.4213 74.9509 24.7316 76.9978 24.9196 78.0885C26.5344 87.454 42.3749 84.6455 48.509 85.0215Z" fill="white"/>
<path d="M48.1304 84.4608C48.5679 84.5499 49.0843 84.607 49.4087 84.8863C49.161 85.0541 48.8472 85.0312 48.5091 85.0215C48.4226 84.8864 48.2571 84.8007 48.1157 84.708L48.1304 84.4608Z" fill="white"/>
<path d="M52.3033 21.2041C61.5841 20.0218 65.7324 31.514 59.3318 37.0701C57.9937 38.2317 57.1015 38.5195 55.4214 39.0775C43.782 41.184 40.5744 23.4862 52.3033 21.2041ZM54.2959 38.2299C56.3654 37.9068 58.2179 36.8092 59.4484 35.177C60.7846 33.3855 61.4247 30.9123 61.0535 28.7304C60.5695 25.8854 58.5418 23.3294 55.6141 22.4876C54.8789 22.2762 53.9186 22.0935 53.1617 22.2807C45.5413 23.2391 43.7732 32.663 49.4191 36.7686C50.8123 37.7978 52.5413 38.316 54.2959 38.2299Z" fill="white"/>
</g>
</g>
<defs>
<filter id="filter0_g_179_938" x="-0.245361" y="-0.789597" width="108" height="108" filterUnits="userSpaceOnUse" color-interpolation-filters="sRGB">
<feFlood flood-opacity="0" result="BackgroundImageFix"/>
<feBlend mode="normal" in="SourceGraphic" in2="BackgroundImageFix" result="shape"/>
<feTurbulence type="fractalNoise" baseFrequency="0.99900001287460327 0.99900001287460327" numOctaves="3" seed="9146" />
<feDisplacementMap in="shape" scale="8" xChannelSelector="R" yChannelSelector="G" result="displacedImage" width="100%" height="100%" />
<feMerge result="effect1_texture_179_938">
<feMergeNode in="displacedImage"/>
</feMerge>
</filter>
<clipPath id="clip0_179_938">
<rect width="100" height="100" fill="white" transform="translate(3.75464 3.2104)"/>
</clipPath>
</defs>
</svg>
