<svg width="150" height="150" viewBox="0 0 150 150" fill="none" xmlns="http://www.w3.org/2000/svg">
<path d="M93.094 23.3472C92.2374 23.1707 91.4506 23.0931 90.7664 22.5341C87.8943 20.1879 90.7686 15.8822 94.037 17.713C94.3521 17.8895 94.8256 18.3429 95.1038 18.5893C95.4744 20.4675 95.4501 20.8711 94.6046 22.5933C95.2433 24.9243 95.371 25.8651 95.0266 28.2424C95.8931 26.9582 96.9006 25.6435 97.8259 24.3915C97.7609 23.9376 97.5921 23.292 97.4852 22.8282C98.2434 20.0269 100.009 19.2457 102.468 20.8702C104.035 23.8255 102.433 25.9431 99.1855 25.4455C97.2007 27.7274 95.1749 31.3035 93.6469 33.9082C95.8569 32.0345 97.0912 31.1727 99.5631 29.6767C100.021 28.1214 100.727 26.585 102.573 26.4215C103.414 26.3525 104.248 26.6217 104.891 27.1694C107.681 29.5349 103.768 34.3311 100.46 31.3037C100.364 31.3388 100.269 31.3754 100.174 31.4134C95.1951 33.4142 91.5073 38.4512 89.4866 43.2561C92.6213 39.9389 92.8964 40.3756 96.3993 38.0149C96.9993 34.687 99.2106 33.747 101.98 35.6159C102.3 36.4227 102.41 36.9256 102.603 37.7614L102.144 39.2502C100.354 40.8458 99.1935 41.2198 97.1483 39.7221C96.8744 39.8364 96.6037 39.9584 96.3365 40.0879C88.8303 43.7463 85.6778 52.0667 83.9878 59.7279C83.14 63.5721 82.5888 68.2358 81.3289 71.9008C83.5663 69.1233 86.5926 65.6669 86.8491 62.0333C86.9385 60.7681 85.9756 57.2815 87.5459 56.9755C88.1328 57.164 88.3499 57.4152 88.8107 57.8326L88.9986 57.804C89.2361 57.2658 89.2053 56.9168 89.286 56.3544C89.5176 54.537 90.3725 50.5082 92.1734 49.4809C95.2961 47.6992 95.0212 53.7085 94.6856 55.1982C94.8927 55.1944 95.0414 55.0943 95.1655 54.8869C95.976 53.1211 99.9691 47.6606 102.424 48.1913C106.7 49.1159 100.479 55.9711 99.5301 56.7687C100.771 56.5421 103.203 56.1102 103.764 57.6591C103.874 61.3267 94.6374 61.5061 93.2188 63.4391C94.008 64.0356 96.8725 63.2617 97.2829 65.1936C96.6772 67.2521 92.44 66.2632 91.0415 66.226C90.295 66.2061 88.8829 66.7328 88.1856 67.1935C84.3177 69.6252 81.5026 74.0468 78.9772 77.7423C77.9024 79.315 71.3914 94.3432 71.8758 95.1698C72.4573 94.7138 79.6876 85.2731 80.2015 84.1819C81.5909 81.2316 82.6003 75.1558 86.3435 73.1749C90.1211 71.1757 87.5487 77.5648 87.0658 78.6631C88.9402 77.0427 90.2884 74.535 92.5567 73.1403C93.4441 72.5947 96.232 70.7535 96.8666 72.2316C96.8338 73.3024 96.0521 74.7378 95.574 75.7066L95.63 75.8172C97.3569 75.1609 99.0007 75.2625 100.724 75.9011C102.238 76.4617 103.424 77.3129 101.86 78.8285C99.721 80.8998 96.8004 81.6342 93.8871 81.6511C94.5848 82.1717 96.3394 83.6556 95.9621 84.6577C95.2002 86.6805 91.3932 85.7349 89.8135 85.364C87.3016 84.7744 85.5744 85.2085 83.4628 86.6146C83.8821 87.2645 86.6644 86.74 87.0252 88.4009C86.2406 90.5944 81.0924 88.1797 78.6773 89.9743C67.689 98.1402 67.3412 112.978 64.4121 124.87C65.8493 123.262 67.9377 118.04 68.8759 115.885C69.1332 115.295 69.2372 114.207 69.3768 113.551C69.7091 111.991 69.2509 108.103 70.8211 107.272C71.3622 107.377 71.318 107.516 71.7725 108.041C72.1056 107.886 72.5082 106.58 72.7475 106.111C73.217 105.193 73.7791 104.325 74.4246 103.521C75.2332 102.522 80.436 97.4714 80.1513 101.558C79.9509 104.434 78.0127 107.678 75.9034 109.65C77.1331 109.249 79.8174 108.383 80.5049 109.939C80.4246 113.092 75.5058 114.873 73.2527 116.188C72.4021 116.684 71.0813 118.045 70.4073 118.746C71.2324 118.426 74.9687 117.138 75.1469 118.663C74.3481 120.125 70.3531 120.76 69.2074 121.534C65.6007 124.043 64.2557 128.6 62.3999 132.375C61.8981 133.396 60.2181 137.765 58.6935 136.213C58.4043 135.313 59.5418 131.058 59.699 129.309C59.9722 126.538 59.531 123.744 58.4175 121.192C55.6875 114.941 52.6176 115.283 46.7793 113.154C45.8083 112.799 44.2765 111.834 44.3895 110.633C45.4774 108.726 49.7533 109.06 51.5968 109.429C50.1437 108.157 49.4181 107.41 47.4899 106.978C45.7397 106.586 40.1312 104.468 40.1016 102.294C40.556 100.496 44.0326 100.673 45.434 100.763C42.5975 98.6163 40.3585 95.3521 40.3507 91.6825C40.3494 91.0019 40.9263 90.3918 41.6167 90.5664C44.1825 91.2155 46.498 93.2658 47.9747 95.4115C48.5643 96.2752 48.8401 97.2502 49.4805 98.1003L49.6472 98.0674C50.0499 95.968 48.3164 94.8782 50.6391 92.0778C50.7053 92.1033 50.771 92.1294 50.8367 92.1565C55.2366 93.9714 53.4646 101.113 54.9403 104.678C55.657 103.665 55.6592 98.1206 58.0314 97.8842C61.1035 99.2336 58.9748 106.394 59.093 108.631C59.8118 108.48 60.567 106.725 61.5979 107.173C62.4341 108.628 60.4937 111.68 60.3252 113.243C60.0018 116.243 61.0777 119.927 61.3928 123.001C61.588 124.905 61.6878 126.065 61.7537 127.926C62.5318 125.711 63.2306 120.938 63.607 118.481C64.1438 114.98 64.968 110.585 65.1816 107.084C65.2649 105.67 65.2222 104.252 65.0542 102.846C64.6878 99.759 63.3823 94.4308 60.513 92.4174C59.3147 91.8006 57.969 91.6189 56.6717 91.2764C55.5599 90.9827 54.2878 90.7081 53.3171 90.0603C52.7452 89.7218 52.5724 88.8716 53.1243 88.4175C54.5566 87.239 56.9304 87.2105 58.6339 87.2516C58.0276 86.8902 56.3433 85.9505 55.7385 85.8755C52.5422 85.4789 49.4231 85.5755 46.6099 83.6874C45.7427 83.1052 45.5752 82.3357 46.2918 81.5008C47.8247 79.7153 50.1771 79.4969 52.3567 79.3089C50.4895 78.6108 48.4635 77.9537 46.5946 77.1596C41.3109 74.9144 42.6715 72.6243 47.8343 72.4299C48.3163 72.4117 48.7362 72.6656 49.2188 72.5294C49.2097 72.2247 47.6936 70.8685 47.2891 70.3369C46.1688 68.8645 42.9333 64.6922 44.2418 62.8866C44.5352 62.4817 46.1023 62.5448 46.651 62.6767C50.2793 63.5477 52.3566 66.1734 54.382 69.0754C54.068 66.7054 54.1954 60.1128 57.7046 64.1247C60.6294 67.4685 58.695 74.2356 60.1047 76.4948C60.8341 75.7412 61.2595 70.6785 63.9986 69.4879C64.2703 69.5009 64.5734 69.4816 64.7543 69.7727C66.368 72.3685 65.0906 76.507 64.6994 79.2874C64.5514 80.339 64.5784 81.2695 64.5825 82.1562C65.1835 81.3408 67.251 78.303 68.2562 78.4186C70.2217 78.6448 68.8667 82.3108 68.3026 83.3932C65.6231 88.5344 66.575 94.1386 66.7283 99.6772C66.767 101.103 66.9129 102.529 66.8071 103.965C66.8791 104.874 66.9274 105.785 66.9523 106.697C67.1019 105.915 67.2902 105.042 67.3906 104.26C68.1935 101.325 68.8956 98.5661 69.7953 95.5902C71.5939 89.6409 73.5226 83.996 73.1004 77.6485C72.7951 73.0607 67.7005 69.9443 68.0341 65.3692C68.0629 64.973 68.309 64.8613 68.5784 64.6898C69.154 64.5849 69.6848 64.7726 70.2523 64.9211C70.576 64.1796 68.8649 59.8293 70.5542 58.8526C73.7496 58.766 75.036 66.5585 75.3237 66.7794C75.7582 66.065 75.7285 65.4984 76.6764 65.2503C78.4605 65.8173 75.899 71.9729 75.6264 73.4781C75.0406 76.7112 75.2126 79.7206 74.531 82.8788C75.3054 81.5361 76.0724 79.7308 76.8013 78.2859C79.5337 72.8688 82.4241 65.7908 78.9019 60.0593C78.0539 58.6795 76.0252 57.543 75.7748 56.1225C76.1965 55.1254 77.5027 55.6712 78.3069 55.9166C76.9526 54.13 73.7963 50.2113 74.3024 47.6178C74.5443 46.379 76.363 47.1109 77.1747 47.4414C74.4331 37.7504 82.1206 39.3947 81.1192 47.7531C81.6927 47.0361 82.4386 45.7655 83.4489 46.1291C84.4603 47.5715 81.9625 52.0504 81.9139 54.0698C81.8654 56.0843 81.9609 58.0857 82.3273 60.0597C82.7253 57.866 83.1817 55.6551 83.8415 53.5089C84.7512 50.5498 86.099 47.3841 86.3725 44.2917C86.6125 41.576 85.8081 37.7815 84.4378 35.4615C83.0826 35.3901 82.5539 35.2428 81.4428 34.4565C80.8102 33.2447 80.5374 32.0304 81.2937 30.7823C81.6898 30.128 82.3368 29.6647 83.0837 29.5002C84.3294 29.213 84.998 29.6173 85.9988 30.2299C86.0641 30.3462 86.1252 30.4648 86.1822 30.5852C86.9618 32.2088 86.8247 32.7417 86.2481 34.3721C87.333 38.0935 88.3043 38.0891 88.069 42.5171C89.9814 37.8372 91.0267 34.6293 89.5217 29.5979C88.403 29.2924 86.8298 28.9672 86.3317 27.8069C85.3273 25.4673 87.3296 23.0528 89.7794 24.0868C90.4419 24.3608 90.9661 24.8903 91.2333 25.5556C91.637 26.5759 91.3542 27.3915 90.9349 28.3393C91.2426 29.3425 91.53 30.382 91.7931 31.3993C91.9721 32.0909 91.9419 32.7165 92.225 33.3773L92.4152 33.181C92.6029 32.1386 92.8759 31.4919 93.0801 30.5261C93.6198 27.9751 93.404 25.8777 93.094 23.3472ZM56.5898 77.0568C55.3266 76.323 50.2859 73.2937 48.9812 74.8574C49.2283 75.3211 50.2362 75.654 50.7321 75.8049C55.9334 77.3866 58.7484 79.9851 60.9429 84.871C57.2351 82.455 55.0192 80.2983 50.4195 82.3645C52.9364 83.3042 53.7647 83.1873 56.3602 83.6727C58.9274 84.153 61.3862 86.4808 62.4836 88.8692C62.5651 89.0477 62.6392 89.2295 62.7059 89.4139C63.9417 91.4991 64.2495 93.6505 65.093 95.1461C64.2942 90.28 62.0086 85.7233 62.3657 80.8459C62.4549 79.6286 63.529 76.0727 63.1597 75.1107L62.9618 75.0159C61.7348 75.7945 61.3132 79.057 61.3274 80.4564C61.3326 80.9594 61.499 81.6143 61.2829 82.0696C60.1314 82.2448 57.5399 75.2187 57.4478 73.8265C57.3656 72.5838 57.358 68.7159 56.5874 67.9963L56.3281 68.0251C55.3862 69.2232 56.7023 72.7375 56.3807 74.0443C55.5618 74.0841 52.3383 67.6529 48.8445 66.791C48.8993 68.1347 53.3864 72.6745 54.3835 73.967C55.1465 74.956 55.9058 75.9275 56.5898 77.0568ZM81.2829 86.3947C87.352 80.4687 89.9177 84.1677 92.3854 82.9741L92.4275 82.7269C91.6775 81.4832 89.3836 82.2927 88.7014 81.8405C90.2052 79.64 98.8562 79.3517 98.7771 77.631C97.5073 76.996 92.9471 78.527 91.6071 79.036C91.0964 79.2301 90.8328 79.4756 90.2133 79.6309C90.1046 78.8943 91.8135 77.6441 92.301 76.9293C92.699 76.3454 92.9748 75.8578 93.3142 75.2461C89.8698 77.2998 87.8246 81.0293 83.7702 82.693C84.63 80.9052 85.3979 78.8814 85.6507 76.91C83.4535 79.4132 83.2165 82.8165 80.5948 86.3707C80.1989 86.9182 80.0029 87.1927 79.6999 87.7916C80.1923 87.3729 80.8453 86.85 81.2829 86.3947ZM72.1248 113.519C73.5212 110.631 76.0885 106.965 77.0607 104.582C76.9576 104.494 76.9236 104.441 76.8075 104.401C72.8146 107.373 71.4842 113.396 69.5596 117.788C70.7843 116.17 71.5822 115.197 73.3159 114.085C74.1913 113.576 76.3447 112.441 76.7729 111.641L76.6317 111.482C75.1301 111.537 73.3585 112.732 72.1248 113.519ZM72.7882 68.968C72.2136 68.4332 71.5701 67.7424 70.856 67.4652L70.6531 67.5851C70.7615 68.7988 72.5216 70.6182 73.0529 72.165C73.4518 72.9859 73.8416 73.8114 74.2222 74.6409C74.1571 72.8317 73.9046 64.2222 72.1515 63.4605C71.9709 64.6358 72.5845 67.6152 72.7882 68.968ZM99.8561 52.4368C97.4556 53.7669 93.797 60.0189 91.8229 60.0505C91.5415 59.2754 93.8448 54.5657 92.5824 53.7807C91.9418 54.1971 91.511 55.8849 91.3731 56.6452C90.9245 59.1228 90.2758 61.151 89.0706 63.3706C88.5019 64.1811 87.9574 64.9202 87.491 65.7956C90.9388 62.4606 93.1522 60.4599 97.9162 59.5431C98.6594 59.4 99.7248 59.1769 99.8275 58.3473C98.7113 57.7374 96.2659 59.0932 95.9191 58.3586C96.815 57.0014 99.8172 54.9558 100.19 52.6456C99.991 52.419 100.109 52.4688 99.8561 52.4368ZM79.8959 56.4326C80.1889 57.5748 80.625 59.5069 81.0119 60.5584C81.0043 58.3618 80.1986 46.2427 79.037 45.0786C78.9624 45.0039 78.8813 44.9431 78.7948 44.8835C78.0918 47.1631 79.4917 50.4297 78.973 51.3495C78.246 51.0111 77.7667 49.998 77.0118 49.6643L76.8649 49.8044C76.868 50.8317 78.6697 53.3506 79.1533 54.404C79.4846 55.1258 79.6557 55.6759 79.8959 56.4326ZM58.4537 117.445C58.644 117.882 58.7859 118.325 59.1215 118.646L59.2632 118.581C59.0767 117.736 58.7382 116.954 58.4681 116.17C57.375 112.998 57.2086 109.926 57.496 106.621C57.5495 106.008 57.7162 103.938 57.3647 103.457L57.0996 103.555C56.2994 105.336 56.3058 108.769 56.2569 110.767C54.9665 108.474 53.4901 106.255 52.7325 103.714C52.4162 102.654 52.4448 98.2208 51.7591 97.8089C50.6968 98.7139 51.9248 101.793 51.6397 103.138L51.4162 103.296C50.958 103.009 50.5468 102.116 50.1857 101.646C48.8392 99.8919 46.0003 95.2274 44.0017 94.5805C43.9893 96.8298 49.7886 101.926 49.7572 103.234L49.5545 103.394C48.6743 103.199 45.2489 101.788 44.9578 102.921C45.5522 103.782 47.7688 104.013 49.0623 104.594C50.0808 105.052 51.0186 105.672 51.8394 106.429C53.9285 108.325 55.3759 111.219 56.7385 113.702C55.2019 112.842 51.4692 110.192 49.7089 111.351L49.7414 111.579C50.28 111.951 51.4393 112.315 52.0789 112.515C55.2615 113.511 56.6446 114.678 58.4537 117.445Z" fill="#BA902A"/>
<path d="M80.5941 86.3711L81.2821 86.3951C80.8446 86.8504 80.1916 87.3733 79.6992 87.792C80.0021 87.1932 80.1981 86.9187 80.5941 86.3711Z" fill="#B7912E" fill-opacity="0.0431373"/>
<path d="M101.627 88.8519C111.373 89.0633 119.09 97.1586 118.834 106.903C118.579 116.648 110.449 124.328 100.705 124.029C91.0233 123.732 83.4028 115.665 83.6565 105.981C83.9104 96.2984 91.943 88.6417 101.627 88.8519ZM91.8877 94.3078C96.1486 98.421 100.415 103.358 104.436 107.754C105.924 109.38 109.514 112.999 110.698 114.561C111.304 115.191 112.237 116.108 112.775 116.755C113.854 115.15 114.76 113.915 115.448 112.057C118.745 103.155 112.981 92.3677 103.225 91.4417C102.173 91.342 100.962 91.399 99.8951 91.4718C96.2166 91.7274 94.9328 92.7806 91.8877 94.3078ZM106.022 120.959C107.273 120.646 109.339 119.48 110.403 118.714L89.835 96.3318C86.9252 100.032 85.5652 103.537 86.1336 108.347C86.6299 112.325 88.6643 115.949 91.8009 118.444C95.5744 121.397 101.466 122.662 106.022 120.959Z" fill="#BA902A"/>
<path d="M106.956 96.2477C112.128 96.2086 111.143 105.143 107.26 107.079C101.974 107.164 105.736 102.892 105.698 100.954C105.658 98.8832 103.853 97.6687 106.956 96.2477ZM106.988 105.325C108.091 103.596 108.998 101.836 108.652 99.7123C108.517 98.8887 108.058 98.1876 107.213 98.0124C106.662 99.5415 107.748 100.13 107.529 101.752C107.409 102.64 106.335 103.892 106.181 104.727C106.373 105.088 106.518 105.176 106.988 105.325Z" fill="#BA902A"/>
<path d="M110.701 108.207C111.325 108.029 111.997 108.206 112.453 108.669C112.91 109.131 113.078 109.804 112.893 110.427C112.708 111.049 112.198 111.522 111.563 111.659C110.624 111.862 109.693 111.283 109.46 110.351C109.227 109.418 109.776 108.469 110.701 108.207Z" fill="#BA902A"/>
<path d="M101.832 93.8001C102.579 93.5128 103.418 93.8856 103.705 94.6328C103.991 95.38 103.618 96.2182 102.871 96.5047C102.124 96.791 101.287 96.4179 101 95.6714C100.713 94.9248 101.086 94.0872 101.832 93.8001Z" fill="#BA902A"/>
<path d="M112.342 104.724C113.165 104.922 113.539 105.018 113.639 105.889C113.48 106.404 113.336 106.479 112.921 106.82C112.15 106.683 111.751 106.553 111.555 105.771C111.766 105.116 111.778 105.254 112.342 104.724Z" fill="#BA902A"/>
<path d="M100.857 99.0459C101.156 98.8475 101.542 98.8348 101.853 99.0129C102.164 99.191 102.349 99.5294 102.33 99.8877C102.31 100.246 102.091 100.563 101.762 100.707C101.311 100.904 100.784 100.723 100.548 100.291C100.313 99.8586 100.447 99.318 100.857 99.0459Z" fill="#BA902A"/>
<path d="M96.3951 94.6368C96.8769 94.5711 97.3243 94.8979 97.4082 95.3767C97.492 95.8556 97.1822 96.3151 96.7069 96.4169C96.383 96.4862 96.0472 96.373 95.8315 96.1217C95.6157 95.8705 95.5546 95.5214 95.6722 95.2118C95.7897 94.9023 96.067 94.6817 96.3951 94.6368Z" fill="#BA902A"/>
<path d="M91.6254 101.368C92.3644 101.315 93.6365 101.622 93.9464 102.364C94.4757 103.631 93.4769 105.196 93.1787 106.431C92.8588 107.757 93.579 109.02 94.1965 110.132C93.5669 111.488 93.5018 111.632 92.1709 112.34C90.7799 112.471 89.5106 111.139 89.1246 109.907C88.2092 106.987 88.2729 102.609 91.6254 101.368ZM91.8968 110.705C92.4672 109.442 91.1147 108.091 91.2392 106.618C91.3052 105.84 92.3144 104.068 92.1789 103.335C91.9944 103.17 91.9983 103.141 91.7714 103.054C89.7507 104.842 89.5759 109.092 91.8968 110.705Z" fill="#BA902A"/>
<path d="M100.261 111.636C100.658 111.581 101.147 111.65 101.559 111.784C103.047 112.268 103.896 113.356 103.382 114.933C102.986 116.15 100.587 115.81 99.6316 116.256C98.8229 116.633 98.0398 117.093 97.173 117.453C96.7224 117.527 95.2315 117.668 94.8703 117.345C91.171 114.045 97.8334 112.449 100.261 111.636ZM96.9874 115.88C97.5672 115.526 97.8647 115.354 98.482 115.073C99.2392 114.729 101.552 114.455 101.814 113.745C101.385 113.353 100.584 113.386 100.031 113.409L99.8761 113.417C99.1888 113.662 95.8683 114.926 95.5522 115.461C95.6815 115.85 95.5963 115.713 96.0187 115.968C96.3091 115.967 96.745 116.001 96.9874 115.88Z" fill="#BA902A"/>
<path d="M96.9017 107.746C97.565 107.848 98.0408 108.44 98.5304 108.916C98.1469 109.334 97.7716 109.802 97.4075 110.24C95.6787 109.969 95.5289 108.735 96.9017 107.746Z" fill="#BA902A"/>
<path d="M105.685 116.415C106.198 116.45 106.597 116.876 106.599 117.39C106.6 117.905 106.203 118.333 105.689 118.37C105.324 118.396 104.974 118.216 104.783 117.904C104.591 117.591 104.591 117.198 104.78 116.885C104.97 116.571 105.319 116.39 105.685 116.415Z" fill="#BA902A"/>
<path d="M101.176 118.078C101.569 117.892 102.039 118.056 102.23 118.447C102.422 118.837 102.264 119.309 101.876 119.506C101.62 119.635 101.315 119.617 101.076 119.458C100.838 119.3 100.703 119.025 100.724 118.739C100.745 118.453 100.917 118.201 101.176 118.078Z" fill="#BA902A"/>
<path d="M50.5888 27.7381C55.8221 27.3566 60.381 31.2736 60.7917 36.5047C61.2026 41.7358 57.3111 46.3165 52.0824 46.7566C46.812 47.2003 42.187 43.271 41.7729 37.9983C41.3588 32.7256 45.3139 28.1226 50.5888 27.7381ZM52.5054 44.6489C56.6707 43.9618 59.4778 40.0117 58.7569 35.8521C58.0359 31.6924 54.0633 28.9174 49.9096 29.6721C45.8033 30.4181 43.0668 34.3357 43.7795 38.448C44.4923 42.5601 48.3876 45.3283 52.5054 44.6489Z" fill="#BA902A"/>
<path d="M51.0641 13.7227C53.4391 14.1479 51.671 23.8174 51.6303 25.8846C51.4355 25.8925 51.2099 25.9461 51.167 25.8031C50.408 23.2789 50.3453 19.2132 50.0928 16.5701C49.9429 15.0015 50.4284 14.3814 51.0641 13.7227Z" fill="#BA902A"/>
<path d="M51.1072 48.689L51.4374 48.8829C52.053 50.3754 52.5167 56.6838 52.2343 58.503C52.1418 59.0981 51.7737 59.2187 51.3422 59.463C51.1406 59.3803 50.6626 59.1096 50.5664 58.9445C49.6094 57.3025 50.8066 50.4583 51.1072 48.689Z" fill="#BA902A"/>
<path d="M29.4566 35.911C30.6287 35.8537 38.8667 36.2667 39.1976 37.0351C38.8927 37.4065 38.46 37.405 37.9721 37.4799C36.1006 37.4982 29.6201 38.3881 28.4655 37.2953C28.3067 36.7968 28.3191 37.0099 28.4389 36.4825C28.7494 36.0745 28.975 36.0522 29.4566 35.911Z" fill="#BA902A"/>
<path d="M71.3662 35.9529C72.3361 35.8095 73.7117 35.8585 74.2108 36.816C74.0152 38.5073 68.1017 37.6442 66.6862 37.5323C65.8944 37.5213 63.8844 37.5784 63.3066 37.1051L63.3346 36.8697C64.2031 36.2943 69.9261 36.0365 71.3662 35.9529Z" fill="#BA902A"/>
<path d="M36.7981 21.0166C38.5919 21.6283 41.2518 25.5317 42.5146 27.1467C42.7215 27.4111 42.6673 27.5744 42.591 27.8208L42.2741 27.8535C41.0983 27.1489 36.5259 23.1972 36.1191 21.9544C36.2636 21.379 36.2967 21.4931 36.7981 21.0166Z" fill="#BA902A"/>
<path d="M65.5681 21.0674C65.7601 21.1002 66.0378 21.2134 66.2267 21.2827C67.0723 22.3128 64.9604 23.838 64.2217 24.5247C63.0337 25.6288 61.7327 26.6889 60.4791 27.7226C60.2516 27.9173 60.268 27.9186 59.9749 27.9478L59.8613 27.7065C60.1839 26.3301 64.3089 21.9163 65.5681 21.0674Z" fill="#BA902A"/>
<path d="M59.7705 46.263C61.3906 46.1971 65.3001 50.1613 66.379 51.4572C66.6563 51.7903 66.5945 52.0557 66.5391 52.4586C66.3148 52.5847 65.831 52.7946 65.6294 52.7249C64.5425 52.3484 60.1711 46.978 59.7705 46.263Z" fill="#BA902A"/>
<path d="M42.0778 46.2632C42.2636 46.2699 42.2666 46.3045 42.4174 46.4246C42.2788 47.4865 37.6531 52.5625 36.5536 52.8871C35.6067 52.0184 36.1364 51.2803 36.9406 50.4919C38.5007 48.9623 40.3067 47.5445 42.0778 46.2632Z" fill="#BA902A"/>
<path d="M36.189 29.3696C36.6703 29.2118 37.1995 29.3362 37.5605 29.6917C37.9213 30.0474 38.0533 30.5748 37.9024 31.0584C37.7516 31.5421 37.3432 31.9011 36.8443 31.9886C36.145 32.1113 35.4699 31.6727 35.2976 30.9841C35.1252 30.2955 35.5144 29.5906 36.189 29.3696Z" fill="#BA902A"/>
<path d="M57.1915 21.317C57.6487 21.146 58.1626 21.2351 58.5354 21.5502C58.9082 21.8651 59.0818 22.357 58.9895 22.8362C58.8972 23.3155 58.5532 23.7076 58.0902 23.8616C57.3921 24.0937 56.6368 23.724 56.3919 23.0304C56.1468 22.3367 56.5026 21.5747 57.1915 21.317Z" fill="#BA902A"/>
<path d="M65.2966 29.3701C65.7504 29.1842 66.2694 29.2595 66.6517 29.5666C67.0342 29.8737 67.2195 30.3643 67.1358 30.8476C67.0523 31.3308 66.7128 31.7304 66.2494 31.8913C65.5596 32.1308 64.8045 31.7773 64.5464 31.0942C64.2882 30.4112 64.6208 29.6468 65.2966 29.3701Z" fill="#BA902A"/>
<path d="M44.7315 21.2285C44.8597 21.2383 44.9876 21.2514 45.1152 21.2679C47.0315 21.5243 46.5613 23.1164 45.2328 23.9988C43.6749 23.7393 42.9925 22.2992 44.7315 21.2285Z" fill="#BA902A"/>
<path d="M44.8571 50.3313C45.5241 50.2116 46.164 50.6478 46.2965 51.3124C46.4289 51.977 46.005 52.6252 45.3432 52.7704C44.9036 52.8668 44.4462 52.7181 44.1473 52.3818C43.8483 52.0454 43.7542 51.5739 43.9015 51.1487C44.0487 50.7234 44.4141 50.4108 44.8571 50.3313Z" fill="#BA902A"/>
<path d="M57.3171 50.2065C59.1103 50.4236 59.3762 51.8385 57.8148 52.8516C56.1341 52.6215 55.9653 51.3039 57.3171 50.2065Z" fill="#BA902A"/>
<path d="M65.6581 42.3607C66.0632 42.2082 66.519 42.2871 66.8493 42.5668C67.1795 42.8464 67.3326 43.2829 67.2491 43.7076C67.1656 44.1322 66.8586 44.4784 66.4471 44.6121C65.8304 44.8125 65.1667 44.4838 64.9522 43.8719C64.7378 43.2601 65.0512 42.5889 65.6581 42.3607Z" fill="#BA902A"/>
<path d="M36.2023 42.2764C37.0155 42.4539 37.7097 42.6058 37.8994 43.4824C37.7949 44.0204 37.5016 44.1858 37.0727 44.5372C35.0082 44.6786 34.9083 43.5556 36.2023 42.2764Z" fill="#BA902A"/>
<path d="M66.8066 103.965L67.3901 104.261C67.2897 105.042 67.1014 105.916 66.9518 106.697C66.9269 105.785 66.8786 104.874 66.8066 103.965Z" fill="#B7912E" fill-opacity="0.027451"/>
</svg>
