<svg width="150" height="150" viewBox="0 0 150 150" fill="none" xmlns="http://www.w3.org/2000/svg">
<path d="M64.9128 15.3799C65.4978 15.3741 66.8632 15.843 67.0153 16.5083C68.344 22.4135 64.3551 34.8351 71.9893 37.4097C76.1074 38.7985 82.5492 37.4053 86.983 38.1908C90.1564 38.6893 93.1687 40.1192 95.3861 42.4778C98.7558 46.062 100.566 52.5301 96.4041 56.274C97.43 56.444 100.177 57.2107 100.822 57.0001C101.163 56.5624 101.953 53.9088 102.207 53.166C101.518 51.133 101.392 48.0833 101.605 45.9421C102.019 41.7978 104.455 37.9577 107.625 35.3415C111.133 32.447 114.998 31.1686 119.477 30.6259C120.608 30.4888 121.758 30.3367 122.894 30.4549C123.129 33.2447 123.314 36.4063 122.968 39.1984C122.036 46.7277 117.249 52.6234 110.294 55.5219C107.944 56.5015 105.123 57.0857 103.149 58.5953C106.051 60.635 107.766 62.4824 109.157 65.8325C112.394 73.6277 109.144 85.1235 100.846 88.3538C105.772 91.7875 106.948 95.6276 106.458 101.515C106.193 104.701 104.649 108.091 102.192 110.158C102.161 110.193 102.13 110.228 102.099 110.262C96.9827 115.812 87.1299 114.015 80.4023 114.258C79.2222 114.301 77.6847 114.484 76.7966 115.343C73.7891 118.249 77.7706 128.538 73.7376 132.764C72.6045 133.951 70.9791 134.811 69.3171 134.829C67.6667 134.847 65.8062 134.205 64.6298 133.021C63.8067 132.192 63.3016 131.124 63.0249 129.999C62.2472 126.835 62.6562 120.298 62.6748 116.732C54.8361 114.309 50.1996 110.781 50.8613 102.125C49.9583 101.973 49.305 101.72 48.4287 101.458C34.1292 97.172 30.8981 76.9513 43.9703 69.176C44.7243 68.7276 45.8591 68.3696 46.5155 67.8074C46.3466 67.4565 44.8649 66.8093 44.4323 66.5178C42.8207 65.432 41.4725 64.1345 40.3739 62.5305C37.8751 58.8821 36.7936 54.2025 37.6331 49.8399C38.1263 47.2776 39.3417 44.7517 41.0944 42.8132C48.1147 35.0497 58.6009 40.22 62.1791 37.7148C62.5898 37.4273 62.8925 37.0207 63.0208 36.5339C63.6036 34.3233 63.2455 24.318 63.227 21.3058C63.2185 19.9141 63.0725 18.3335 63.3618 16.9667C63.5269 16.1866 64.2983 15.7834 64.9128 15.3799ZM79.4392 75.4413C81.5014 75.352 83.6499 75.3691 85.7168 75.4284C87.9943 75.4939 92.6931 75.6502 92.4807 72.2214C92.4348 71.4618 92.0768 70.7548 91.4915 70.2685C90.5827 69.5206 83.6053 69.7473 82.015 69.7466L68.8859 69.7434L59.5006 69.7481C57.0129 69.7513 54.7322 69.7322 52.2282 70.0261C38.7134 71.6055 35.0837 87.9949 45.5724 95.9364C48.421 98.0931 51.1736 98.4348 54.3909 99.6817C55.2754 100.024 54.8317 102.146 54.7126 102.852C54.2225 105.759 55.1401 108.628 57.6354 110.322C59.5158 111.773 60.896 111.984 62.5935 112.987C63.3291 107.184 65.9124 102.319 72.5672 101.709C78.1671 101.196 84.2026 101.925 89.8472 101.663C90.8469 101.655 96.7911 100.583 97.1008 101.265C98.4873 104.318 93.6748 104.961 91.6766 105.182C88.0028 105.347 84.301 105.248 80.6232 105.243C77.8161 105.24 74.7826 105.043 72.0545 105.787C70.6531 106.169 69.3782 106.889 68.4031 107.976C67.5269 108.953 67.0506 110.067 66.7882 111.336C66.2537 113.922 66.5415 116.822 66.5247 119.457C66.5072 122.173 66.3423 124.967 66.5178 127.675C66.5865 128.735 66.8259 129.989 67.6791 130.714C68.0716 131.047 68.5569 131.199 69.0691 131.157C69.8213 131.094 70.6446 130.713 71.1151 130.114C73.9646 126.486 67.6224 112.047 78.5285 110.511C85.4506 109.537 95.7067 112.834 100.558 106.427C102.426 103.96 103.153 100.712 102.708 97.6659C102.4 95.5563 101.376 93.3569 99.6366 92.0611C98.5869 91.2886 97.3648 90.7832 96.076 90.589C94.926 90.4041 93.9123 90.4154 92.4841 90.4037C90.6887 90.3889 84.5059 91.0149 86.7322 87.3254C87.1509 86.7575 88.3938 86.5567 88.9926 86.5724C94.4575 86.7153 99.374 86.5333 103.298 82.1172C108.074 76.7422 107.827 67.2939 102.395 62.4638C97.0925 57.7495 88.3968 58.6085 81.7588 58.611L64.5253 58.6196C61.4521 58.6212 57.9593 58.6993 54.9247 58.5852C52.7874 57.1435 52.9409 54.8852 55.7112 54.753C58.2568 54.6316 60.854 54.7589 63.4129 54.7438L83.5189 54.7432C85.6396 54.7445 89.7742 54.9977 91.6681 54.6572C97.3444 53.6364 94.5369 46.5736 91.3973 44.3011C84.8275 39.5456 76.6448 44.0021 69.6359 40.7081C67.7242 39.7672 67.478 39.0171 66.2231 37.9908C65.509 39.6917 64.7089 40.6489 62.9229 41.4175C61.3904 42.0773 59.084 42.0575 57.4128 42.0369C50.793 41.9548 45.1281 41.7244 42.0666 48.6438C40.9475 51.1728 41.0061 54.7442 41.9954 57.3243C43.2958 60.715 45.6268 63.24 48.9955 64.6448C50.1438 65.1237 51.9121 65.5899 53.1609 65.6786C56.708 65.9301 60.4941 65.8539 64.0605 65.8624L83.6188 65.8828C86.2772 65.8815 89.7672 65.4648 92.2819 66.2342C93.8411 66.7113 95.2185 67.9473 95.852 69.4423C96.5716 71.1399 96.4885 73.1636 95.7999 74.8564C95.1032 76.5694 93.7025 77.8837 92.007 78.5926C89.7624 79.5315 81.3329 79.832 79.189 78.9025C78.6142 78.6533 78.1903 78.3301 77.898 77.7719C77.7205 76.6879 78.6237 75.9646 79.4392 75.4413ZM104.186 50.1599C105.706 47.9995 110.596 41.6743 112.952 41.1416L113.361 41.2611C113.772 42.2021 111.857 44.0031 111.187 44.7561C107.99 48.5509 106.79 50.5539 104.484 54.9145C105.492 54.4919 106.491 54.1523 107.515 53.7728C116.626 50.3942 121.456 43.1197 120.097 33.3618L118.606 33.424C109.771 35.4152 103.562 40.5133 104.186 50.1599Z" fill="#C79B3E"/>
<path d="M62.1366 75.0099C65.7338 74.7275 65.5423 76.999 68.103 78.1795C70.6712 79.3636 76.0778 79.2671 74.3572 83.9655C73.9138 85.1762 72.9597 85.6111 71.8218 86.1032C68.2297 86.4757 61.0957 83.0553 59.5848 79.5407C58.6504 77.367 60.2236 75.7598 62.1366 75.0099Z" fill="#C79B3E"/>
<path d="M66.6191 90.0023C69.072 89.7663 72.6906 91.2875 71.9454 94.5325C71.3158 97.2744 66.7533 96.3303 64.8295 96.5422C63.9917 96.6345 62.1922 97.7589 61.3018 98.2703C61.0521 98.4104 59.9385 98.8095 59.6094 98.9352C56.7963 98.2813 55.2285 95.6588 57.2324 93.2334C59.1249 90.9429 63.7453 90.2421 66.6191 90.0023Z" fill="#C79B3E"/>
<path d="M79.3111 85.7408C80.9749 85.3588 82.6314 86.405 83.0014 88.0715C83.3712 89.7381 82.3129 91.3869 80.6437 91.7445C78.9918 92.0985 77.3636 91.0535 76.9976 89.4041C76.6314 87.7548 77.6645 86.119 79.3111 85.7408Z" fill="#C79B3E"/>
<path d="M52.4392 82.2861C53.3278 82.1418 54.2348 82.3967 54.9181 82.9828C55.6015 83.5689 55.9917 84.4264 55.9845 85.3265C55.9731 86.7699 54.9534 88.0084 53.5393 88.2967C52.4551 88.5176 51.3363 88.1354 50.6141 87.2973C49.8918 86.4592 49.679 85.2962 50.0576 84.2566C50.4363 83.2172 51.3471 82.4634 52.4392 82.2861Z" fill="#C79B3E"/>
</svg>
