<svg width="150" height="150" viewBox="0 0 150 150" fill="none" xmlns="http://www.w3.org/2000/svg">
<path d="M57.3441 21.3215C64.9513 20.8116 71.5963 21.7773 78.9521 23.7769C82.8545 24.8379 88.2574 26.5644 92.3342 26.9988C100.317 27.8496 108.584 26.6656 116.676 27.0029C122.712 27.2547 132.805 27.965 137.451 32.4702C138.325 33.3186 138.771 34.7977 138.687 36.0177C138.42 39.9088 134.408 42.7821 131.529 44.9137C128.201 47.378 125.174 49.7107 122.499 52.9257C116.934 59.7236 113.455 66.1203 106.81 72.1942C99.1966 79.153 84.2089 85.025 77.4063 73.7577C76.9277 72.9649 76.413 70.6879 75.8368 70.109C73.8404 73.5363 70.5208 75.1294 66.8953 76.3285C64.8035 86.9678 58.1733 85.6151 50.6288 91.0094C46.8842 93.8014 44.4167 97.0314 41.1177 100.462C37.7639 103.95 31.5057 108.828 26.7571 104.574C24.1898 102.274 24.7268 96.4335 24.6933 93.0527C24.6674 90.7178 24.5141 88.386 24.2345 86.0679C23.1379 76.783 20.3669 68.8168 20.4237 59.3332C20.5274 41.9991 30.9241 26.9668 48.0423 22.7676C50.9777 22.0477 54.307 21.276 57.3441 21.3215ZM40.189 88.1019C43.8577 81.5564 47.7858 75.6788 55.3941 73.5103C62.2094 71.5676 69.2051 73.8314 73.2803 66.6854C75.6032 62.5131 75.6202 57.6719 76.1468 53.0772C76.9116 46.7739 78.3354 40.4753 82.4074 35.4111C82.6554 35.1028 83.5459 34.1833 83.6846 33.9579C84.0775 33.3192 87.2046 31.0849 87.1585 30.6352C86.1893 30.1622 83.004 29.4681 81.83 29.1218C76.2304 27.4707 70.8051 26.134 64.9478 25.7858C62.9784 25.6688 61.1872 25.4583 59.1586 25.7215C37.205 27.0035 24.0417 42.3514 25.3611 64.3377C25.9605 74.3263 29.2315 82.4306 28.7843 92.8439C27.9491 112.295 37.0724 93.4408 40.189 88.1019ZM100.203 71.9127C101.026 71.3136 101.899 70.7049 102.691 70.0724C110.724 63.6599 114.777 54.2413 122.078 47.1136C123.366 45.8805 124.712 44.7089 126.111 43.6031C127.888 42.2197 135.336 37.7339 133.372 35.1892C131.696 33.0185 126.118 32.0978 123.393 31.64C118.683 31.016 113.389 30.7598 108.641 30.8298C100.31 31.1983 91.583 30.9037 85.4946 37.6036C84.0391 39.2052 82.3412 41.6673 81.5322 43.7482C78.8522 50.788 78.8729 58.8347 78.9551 66.2698C78.9801 68.5415 80.1493 71.9788 81.87 73.4331C87.2852 78.0101 95.128 75.3725 100.203 71.9127ZM40.9926 95.6928C43.426 92.9698 45.861 90.3551 48.8216 88.1871C52.0824 85.7993 55.9659 84.4948 59.1306 82.0081C60.7865 80.707 61.4943 79.2246 62.1088 77.2607L62.0522 76.971L61.7658 76.9975C56.3963 77.1771 52.5302 78.5282 48.8519 82.5485C46.1341 85.519 42.132 91.9207 40.7042 95.6632L40.7871 95.8332L40.9926 95.6928Z" fill="#C7942B"/>
<path d="M117.582 82.5936C117.975 82.5758 118.024 82.5824 118.393 82.7157C119.279 83.6795 118.585 90.6584 118.481 92.2487C117.868 101.585 114.46 110.046 105.107 113.49C102.329 114.513 99.092 114.774 96.5842 116.253C95.1116 117.275 94.1374 119.705 93.1142 121.261C91.5991 123.566 89.4519 125.545 86.6567 126.075C86.1122 126.178 85.6757 125.808 85.335 125.474C85.7375 123.885 88.5655 122.594 89.9438 120.528C91.7283 117.855 92.2767 116.448 93.4984 113.523C89.2893 103.306 92.3103 93.8648 102.865 89.2161C105.884 87.8861 109.408 87.2798 112.416 85.84C114.297 84.9392 115.913 83.8177 117.582 82.5936ZM95.258 110.526C98.0034 105.026 101.733 99.4979 107.79 97.0013C108.258 96.8086 108.516 96.8619 108.928 97.0399C108.978 97.4125 108.818 97.668 108.545 97.9396C102.039 103.361 100.085 106.262 96.4103 113.683C98.4025 112.199 101.096 111.525 103.462 110.502C110.749 107.351 113.882 101.015 115.032 93.4955C115.277 91.8909 115.381 89.9232 115.521 88.2773C115.355 88.1973 115.397 88.1866 115.233 88.1897C107.29 92.5469 98.553 92.6863 95.4329 102.533C94.5953 105.177 94.6643 107.824 95.258 110.526Z" fill="#C7942B"/>
<path d="M75.699 73.7734C77.165 74.4304 78.0316 77.9339 78.2586 79.4387C79.2352 85.9105 73.7293 89.0932 68.6362 91.2763C66.5786 92.1583 62.9983 93.8695 63.4558 96.8333C64.658 100.911 71.1997 101.747 74.5819 103.186C78.638 104.912 83.2225 106.56 85.1279 110.905C86.4433 113.905 84.6859 116.912 81.9043 118.264C76.6649 120.768 70.9409 120.088 65.2953 120.942C63.1243 121.27 56.5261 122.364 56.8489 125.882C57.0225 127.775 59.7434 128.006 60.8057 128.777C60.5116 129.024 60.1401 128.971 59.7285 128.98C56.7886 129.059 51.9168 128.408 50.5628 125.288C50.2573 124.583 50.305 123.456 50.6781 122.776C53.6542 117.353 61.4771 117.288 66.8787 116.737C70.2314 116.395 74.3989 116.877 77.0907 114.468C77.6636 113.955 77.9548 113.177 78.261 112.481C76.5278 105.66 65.5781 105.622 60.878 101.559C57.5113 99.2759 57.9281 94.3549 61.0004 91.8279C69.0893 85.1745 76.6291 86.9787 75.699 73.7734Z" fill="#C7942B"/>
</svg>
