<svg width="266" height="148" viewBox="0 0 266 148" fill="none" xmlns="http://www.w3.org/2000/svg">
<g clip-path="url(#clip0_212_2639)">
<path d="M242.308 41.361C245.919 44.3011 248.11 44.9541 252.984 44.9379C264.843 44.8988 269.017 31.1469 260.197 24.68C257.449 22.6992 253.956 21.8073 250.49 22.2014C243.758 22.9626 237.591 29.8692 239.861 35.9965C237.786 41.2829 182.027 57.2464 173.909 58.4351C171.352 58.5539 166.229 60.0044 164.09 59.758L164.017 59.3676C164.925 58.0179 176.427 52.3359 179.544 49.9502C183.722 46.7531 187.212 42.6955 191.079 39.9925C193.601 41.5256 196.69 42.0597 199.646 41.4744C202.935 40.8488 206.49 38.7755 208.332 36.1853C210.159 33.5744 210.768 30.3989 210.024 27.3713C209.244 24.2597 207.17 21.7682 204.202 20.1311C201.275 18.5174 197.764 18.053 194.46 18.8423C185.773 20.9096 182.459 29.4865 186.991 36.6165C175.843 49.2284 152.539 58.4368 136.18 63.9457C129.029 64.5858 119.82 66.8736 112.478 67.8198C99.1337 69.5398 85.8536 71.0705 72.4475 72.3282C67.36 72.8058 62.8416 72.7376 58.0212 73.0776L45.0378 73.8876C43.5478 73.9674 40.4503 74.2368 39.0822 74.055L38.7893 73.7587C39.947 72.0968 51.8447 68.7609 55.6099 66.9029C59.2243 65.2822 61.7987 63.4464 65.2974 61.9166C68.1518 60.958 71.3474 60.0369 74.2215 59.1997C94.1825 53.3856 112.685 42.7223 121.975 24.8066C124.458 20.0177 128.245 11.331 128.589 5.93777C128.807 2.51616 118.527 4.97479 116.687 5.39302C98.5541 9.45728 86.5708 16.3835 76.4249 31.2882C75.8723 32.1 74.9695 33.5764 74.6473 34.4614C71.6637 39.1475 69.1298 44.8107 66.2643 49.7347C63.1944 53.6629 61.0707 56.2454 56.7248 59.1781C55.8096 59.7958 53.352 61.2435 52.691 61.7449C50.456 62.7116 47.0673 64.6433 44.9216 65.3106C36.575 67.9061 25.2264 72.5126 16.6199 73.5089C6.70889 74.6564 -5.20922 72.9712 -15.2248 72.5036C-24.0114 72.0935 -33.3986 70.2576 -42.0555 68.9812C-54.7794 66.9775 -67.2121 64.8949 -79.5609 61.3479C-86.4467 59.3702 -89.8644 59.3856 -96.0111 55.6114C-93.6851 55.6327 -90.3752 55.6316 -88.1598 56.1069L-89.1676 55.3457C-91.0948 55.3306 -93.8006 54.4905 -95.7038 55.3539C-96.709 55.0345 -96.652 53.9389 -97.835 53.2385C-97.2366 52.9004 -96.7918 52.7093 -96.3523 52.2024L-96.6082 51.8581C-98.3709 51.8778 -101.969 52.2047 -103.317 52.0715C-103.692 53.107 -102.901 58.3315 -103.134 59.8252C-103.136 59.8569 -103.826 60.4428 -103.932 60.5222C-101.021 61.5655 -96.2076 62.8639 -93.6988 64.2563C-89.9422 66.3394 -84.9873 71.7077 -82.4306 75.0218C-78.6481 79.9255 -76.3133 86.0936 -73.1077 91.3461C-70.3627 95.9064 -67.0273 100.144 -63.1743 103.967C-52.9113 114.175 -39.359 121.092 -24.506 123.702C-11.669 125.946 -11.1538 124.826 -16.0879 114.003C-23.9309 96.8045 -38.2547 83.9085 -56.049 75.2279C-57.5257 74.5073 -63.3797 73.5695 -63.5138 71.7345C-61.961 70.752 -54.6062 73.032 -52.4663 73.4157C-43.8095 74.9207 -34.9585 76.3135 -26.2126 77.281C-18.8789 78.0922 -11.634 78.5296 -4.40574 80.1227C0.0519796 81.1046 4.03231 82.9875 8.25264 84.564C12.9904 86.3349 17.8199 87.8334 22.3203 90.115C36.1893 97.2806 49.7368 106.694 60.1696 117.785C62.2682 120.015 64.708 122.318 66.3985 124.795C64.4509 127.944 62.2868 131.038 63.2833 134.859C67.0808 149.715 92.0129 146.122 88.0638 130.107C86.0572 121.969 78.2988 120.007 70.3573 121.832C69.5909 121.155 67.5948 118.784 66.9668 117.922C60.3313 108.815 50.9152 103.33 42.7214 95.7196C45.5503 96.0544 48.6687 96.9796 51.4595 97.4331C56.7857 98.2981 62.4207 99.4075 67.7159 100.178C72.222 100.834 78.1836 100.46 82.8545 100.631C85.5245 100.729 90.2083 100.999 92.5951 100.561C93.3835 100.736 93.927 101.908 94.3348 102.558C102.7 115.881 123.838 105.854 117.705 91.9958C114.997 85.8765 106.367 84.4333 100.193 87.0204C97.1303 88.4109 95.4248 89.8645 94.285 92.9923C94.0476 93.66 93.8258 94.3324 93.6199 95.0088C92.2707 95.67 91.5131 95.5208 89.9797 95.5798C88.7055 95.2051 72.9196 95.1343 70.1001 94.9231C60.6953 94.2177 52.6848 92.5623 43.5307 90.3954C40.3227 89.6361 36.4673 88.8929 33.3632 87.9261C29.2862 86.6558 25.2789 84.6367 21.3011 83.1011C19.2206 82.2973 16.4932 81.6883 14.3857 80.8601C13.8467 80.6483 13.8684 80.4163 13.7553 79.9795C14.8014 79.1565 17.1703 79.7697 18.8198 79.8851C27.4474 80.3285 36.3042 80.3622 44.9509 79.8648C58.5213 79.0842 72.4528 78.1687 86.0001 77.1188C97.7903 76.2053 109.889 73.7345 121.64 72.3526C127.624 71.9447 134.454 69.8525 140.215 69.2228C147.563 68.4198 156.513 66.7942 163.634 66.6247C169.579 66.483 186.816 69.2014 190.546 73.3875C201.226 85.3715 212.909 94.4139 230.796 94.281C232.545 94.4968 238.43 93.4042 239.199 92.1747C241.08 89.1643 231.847 79.3603 229.613 77.4689C223.223 72.058 211.681 66.7693 202.962 65.9947C194.954 65.2831 186.092 66.6261 178.749 61.8215C188.653 61.1858 194.107 59.5742 203.415 56.5113C206.574 55.373 210.561 54.7427 213.625 53.4887C220.094 50.8413 226.914 48.7815 233.28 45.9745C236.284 44.6496 239.411 42.8774 242.308 41.361ZM200.705 54.1675L201.681 54.5931C202.432 54.3783 202.594 54.4757 202.884 53.9747C202.069 53.7067 201.513 53.8725 200.705 54.1675ZM61.1487 95.7389L61.4657 96.4537C60.588 97.6027 57.5975 96.033 56.8495 96.8571C55.4057 96.6607 54.4085 96.6623 53.6232 95.4783C54.7662 94.0683 59.626 95.3154 61.1487 95.7389ZM189.291 57.4416C190.474 56.4918 193.904 56.3045 195.99 55.4665L195.976 55.3451C196.874 54.5132 204.593 52.3967 206.464 51.8121C216.021 48.8268 225.72 45.5276 234.781 41.4204C233.868 43.1988 219.718 47.7561 216.809 48.9658C215.586 49.4742 210.083 50.9444 209.272 51.4866L209.58 52.3271C209.062 53.281 192.598 58.976 190.654 57.5706L189.291 57.4416ZM75.8154 98.2892L75.0006 98.4304C74.0926 98.3194 72.8387 98.2568 72.112 97.8265L71.9581 97.5939C74.1419 97.442 75.9225 97.3505 78.1024 97.5714C80.8267 97.8045 86.2594 97.1286 88.5964 98.2222L88.949 97.8181C89.9127 97.4848 91.2211 97.2202 92.2188 97.5425L92.5032 99.0848C91.7365 99.5633 84.5657 99.2409 83.5717 99.0644C83.3874 99.0319 83.2044 98.994 83.0225 98.951C83.9829 98.5729 86.2525 99.1084 87.5809 98.6066C84.728 98.4751 78.5057 98.1128 75.8154 98.2892ZM229.622 88.728C228.918 88.5977 227.034 88.4967 226.116 88.3807C214.03 86.8541 205.197 80.5878 198.171 71.6304C199.858 71.7541 207.771 72.9108 209.345 73.2225C216.675 74.6735 226.916 82.6795 230.876 88.3672L229.622 88.728ZM-22.838 117.022C-25.0724 116.932 -27.153 116.371 -29.2282 115.865C-47.916 111.305 -63.0647 98.4998 -70.0642 81.981C-70.8371 80.1604 -72.4347 78.0731 -72.6335 76.1003C-70.0731 76.5198 -56.9543 82.2054 -54.3187 83.5305C-41.3645 90.0441 -30.4064 101.108 -24.2653 113.429C-23.767 114.42 -22.9886 115.965 -22.838 117.022ZM73.8951 50.1809C78.588 42.9659 81.5784 35.13 87.3343 28.4518C91.768 23.3079 97.4865 19.5431 103.922 16.8031C106.712 15.6151 116.289 11.721 119.023 11.7093C119.442 12.2891 119.307 12.2296 119.279 13.0096C114.137 28.719 103.85 39.3251 88.2973 47.0462C84.1186 49.1208 81.353 50.2503 76.668 51.1831C75.7284 51.37 74.8557 51.9478 73.845 51.7587L73.5497 51.3844C73.6582 50.9291 73.7263 50.6198 73.8951 50.1809ZM112.48 98.565C110.795 102.08 108.621 104.074 103.875 102.385C102.401 101.861 101.564 100.605 100.985 99.2873L101.048 98.7045C102.229 98.2727 103.276 97.8908 104.411 97.3497C106.465 96.3701 108.801 94.0923 111.128 94.1899C112.948 95.0206 112.651 96.8869 112.48 98.565ZM76.5343 138.783C74.3882 138.227 71.0677 137.067 70.823 134.683C71.1386 133.811 70.9221 134.128 71.6705 133.49C73.2985 132.776 75.3808 132.121 76.818 131.283C77.8335 130.69 78.2009 128.886 79.4911 128.399C81.0542 128.974 82.4512 132.868 82.328 134.419C80.4358 137.03 79.6413 137.68 76.5343 138.783ZM127.508 68.2634C128.676 67.8092 129.39 67.6544 130.672 67.9595C129.411 68.4436 128.839 68.7991 127.508 68.2634ZM198.422 25.2392C201.391 26.4744 203.968 26.8434 204.413 30.1003C203.68 32.7942 201.875 35.5586 198.468 34.8131C196.207 34.3185 192.698 31.8886 191.399 30.1778C193.127 28.7376 196.077 27.1389 198.422 25.2392ZM56.2349 75.7615L56.8584 76.1942C56.3429 77.4127 50.4651 77.1974 49.2852 76.7544L48.9175 76.3052C51.3953 76.1101 53.7308 76.0267 56.2349 75.7615ZM252.505 39.5429C250.477 38.9561 246.828 37.6307 246.784 35.3202C246.941 35.0332 247.081 34.7298 247.29 34.4804C249.73 33.1945 254.824 29.5499 256.408 29.5182C258.347 30.2015 258.764 32.8579 258.631 34.5645C257.115 37.7905 256.149 38.4889 252.505 39.5429ZM94.1838 72.7024C95.5965 72.447 95.9601 72.462 97.4017 72.568L97.4626 72.8118C96.793 73.0994 96.5873 73.236 95.8369 73.2665C93.9988 73.733 87.0898 74.6858 85.4407 74.3043C85.2615 74.1076 85.1155 74.0065 85.0555 73.7852C88.1304 73.4237 91.1064 73.1051 94.1838 72.7024Z" fill="#D1B17E"/>
<path d="M190.654 57.5708C192.598 58.9761 209.062 53.2812 209.58 52.3272L209.272 51.4867C210.084 50.9445 215.586 49.4743 216.809 48.966C219.718 47.7562 233.868 43.1989 234.781 41.4205C225.721 45.5277 216.021 48.827 206.465 51.8122C204.593 52.3969 196.874 54.5133 195.976 55.3453L195.991 55.4667C197.152 55.4435 199.53 54.5672 200.705 54.1676C201.513 53.8726 202.069 53.7068 202.884 53.9749C202.594 54.4759 202.432 54.3785 201.681 54.5932C197.9 56.1547 194.766 57.1905 190.654 57.5708Z" fill="#DEC198" fill-opacity="0.901961"/>
<path d="M56.8496 96.8572C57.5976 96.0331 60.588 97.6028 61.4657 96.4538L61.1487 95.7391C59.626 95.3155 54.7663 94.0684 53.6232 95.4784C54.4085 96.6624 55.4058 96.6608 56.8496 96.8572Z" fill="#DEC198" fill-opacity="0.945098"/>
<path d="M201.681 54.5929L200.705 54.1673C199.53 54.567 197.152 55.4432 195.991 55.4664C193.904 56.3044 190.474 56.4917 189.291 57.4415L190.654 57.5705C194.766 57.1902 197.9 56.1544 201.681 54.5929Z" fill="#DEC198" fill-opacity="0.0784314"/>
<path d="M88.5966 98.2223C86.2596 97.1286 80.8269 97.8045 78.1026 97.5715C77.1851 97.6284 76.383 97.6373 75.5061 97.8976L75.8156 98.2893C78.5059 98.1128 84.7282 98.4751 87.5811 98.6066L88.5966 98.2223Z" fill="#DEC198" fill-opacity="0.270588"/>
<path d="M92.5033 99.0848L92.2189 97.5426C91.2212 97.2202 89.9128 97.4848 88.9491 97.8181L88.5964 98.2223L87.581 98.6066C86.2526 99.1085 83.983 98.5729 83.0225 98.9511C83.2045 98.994 83.3875 99.032 83.5718 99.0645C84.5658 99.2409 91.7366 99.5634 92.5033 99.0848Z" fill="#DEC198" fill-opacity="0.972549"/>
<path d="M95.8371 73.2665L95.5507 72.8651L94.1839 72.7024C91.1066 73.1051 88.1306 73.4236 85.0556 73.7852C85.1157 74.0064 85.2617 74.1075 85.4409 74.3043C87.09 74.6858 93.999 73.733 95.8371 73.2665Z" fill="#DEC198" fill-opacity="0.0509804"/>
<path d="M48.9175 76.3055L49.2853 76.7547C50.4651 77.1978 56.343 77.413 56.8585 76.1945L56.2349 75.7618C53.7309 76.027 51.3954 76.1104 48.9175 76.3055Z" fill="#DEC198" fill-opacity="0.858824"/>
<path d="M75.8156 98.2894L75.5061 97.8977C76.383 97.6374 77.1851 97.6286 78.1026 97.5716C75.9227 97.3507 74.1421 97.4422 71.9583 97.5941L72.1122 97.8267C72.839 98.257 74.0928 98.3196 75.0008 98.4306L75.8156 98.2894Z" fill="#DEC198" fill-opacity="0.819608"/>
<path d="M95.8369 73.2665C96.5873 73.2361 96.7929 73.0994 97.4626 72.8118L97.4017 72.5681C95.9601 72.4621 95.5965 72.4471 94.1838 72.7025L95.5505 72.8652L95.8369 73.2665Z" fill="#DEC198" fill-opacity="0.454902"/>
<path d="M242.308 41.3611C245.919 44.3012 248.11 44.9541 252.984 44.938C264.843 44.8989 269.017 31.1469 260.197 24.6801C257.449 22.6993 253.956 21.8074 250.49 22.2015C243.758 22.9626 237.591 29.8693 239.861 35.9966C237.786 41.283 182.027 57.2465 173.909 58.4352C177.933 60.0622 185.801 54.4612 187.814 56.1113L187.673 55.846L187.643 56.3289C185.332 57.9422 174.342 59.3667 173.712 59.8564L173.907 60.043C176.304 60.1964 185.519 57.3024 188.917 56.9734L189.291 57.4417C190.474 56.4919 193.904 56.3046 195.991 55.4666L195.976 55.3452C196.874 54.5132 204.593 52.3968 206.464 51.8121C216.021 48.8269 225.72 45.5277 234.781 41.4204C234.989 41.1215 238.569 39.4704 239.217 39.1067C240.23 38.7254 239.81 38.7522 240.817 38.9403C241.59 39.4848 241.928 40.5098 242.308 41.3611ZM252.505 39.543C250.478 38.9562 246.828 37.6308 246.784 35.3203C246.941 35.0332 247.081 34.7299 247.29 34.4805C249.73 33.1945 254.824 29.5499 256.408 29.5183C258.347 30.2016 258.764 32.858 258.631 34.5646C257.115 37.7906 256.149 38.489 252.505 39.543Z" fill="#C8A771"/>
<path d="M191.079 39.9927C193.602 41.5258 196.69 42.0599 199.646 41.4746C202.935 40.849 206.491 38.7757 208.332 36.1855C210.159 33.5746 210.769 30.3991 210.024 27.3715C209.245 24.2599 207.17 21.7684 204.203 20.1313C201.275 18.5176 197.764 18.0532 194.46 18.8425C185.774 20.9098 182.459 29.4867 186.991 36.6167C175.843 49.2286 152.539 58.437 136.18 63.9459C137.001 64.2281 138.656 63.7593 139.59 63.5669C140.04 64.0743 139.876 64.0814 139.802 64.8968L140.212 65.2346C152.956 61.787 167.207 53.6587 178.256 46.7812C180.278 45.5221 187.546 38.2261 189.285 38.4467C190.071 39.004 190.486 39.2531 191.079 39.9927ZM191.399 30.178C193.127 28.7378 196.077 27.1391 198.422 25.2394C201.392 26.4746 203.968 26.8436 204.413 30.1005C203.681 32.7944 201.875 35.5588 198.468 34.8134C196.207 34.3187 192.698 31.8888 191.399 30.178Z" fill="#C7A46D"/>
<path d="M92.5952 100.561C93.3835 100.736 93.927 101.908 94.3349 102.558C102.7 115.881 123.838 105.854 117.705 91.9958C114.997 85.8765 106.367 84.4332 100.193 87.0203C97.1304 88.4108 95.4248 89.8645 94.285 92.9922C94.0476 93.66 93.8258 94.3324 93.6199 95.0088C92.2707 95.6699 91.5131 95.5208 89.9797 95.5797C90.561 95.7736 91.2214 95.8405 91.8383 95.9303C92.3923 96.4732 92.2019 96.603 92.2189 97.5425L92.5032 99.0847C92.8403 100.06 92.8556 99.689 92.5952 100.561ZM101.048 98.7044C102.229 98.2726 103.276 97.8908 104.411 97.3497C106.465 96.37 108.801 94.0922 111.128 94.1899C112.948 95.0205 112.651 96.8868 112.48 98.5649C110.795 102.08 108.621 104.074 103.875 102.385C102.401 101.861 101.564 100.604 100.985 99.2872L101.048 98.7044Z" fill="#C8A771"/>
<path d="M93.6201 95.0091C94.3306 94.8892 94.0471 94.8483 94.6912 95.1148L94.8408 95.8683C95.5237 94.4547 96.3584 92.3674 97.1887 91.1403C97.694 90.3932 99.6486 90.6183 100.182 88.9653L99.8999 88.8283C98.8192 89.2668 97.3885 90.8189 96.1255 91.6386L95.9528 91.401C96.4929 89.0493 99.1476 88.9083 100.193 87.0207C97.1306 88.4112 95.425 89.8648 94.2852 92.9926C94.0478 93.6603 93.826 94.3327 93.6201 95.0091Z" fill="#A98856"/>
<path d="M112.48 98.565C112.651 96.8869 112.948 95.0206 111.128 94.19C108.801 94.0924 106.465 96.3701 104.411 97.3498C103.276 97.8909 102.229 98.2727 101.048 98.7046L100.985 99.2874C101.564 100.605 102.401 101.861 103.875 102.386C108.621 104.074 110.795 102.08 112.48 98.565Z" fill="#D1B17E" fill-opacity="0.01"/>
<path d="M140.212 65.2345L139.802 64.8967C139.876 64.0813 140.04 64.0742 139.59 63.5668C138.656 63.7592 137.001 64.228 136.18 63.9458C129.029 64.5859 119.82 66.8738 112.478 67.82C99.1339 69.5399 85.8538 71.0706 72.4477 72.3284C67.3602 72.8059 62.8418 72.7378 58.0214 73.0777L45.038 73.8877C43.548 73.9675 40.4505 74.2369 39.0824 74.0551L38.7895 73.7588C39.9472 72.0969 51.8449 68.761 55.6101 66.903L55.4477 66.4849C53.9554 66.9535 52.9048 67.638 51.5122 68.1196C47.354 69.5461 43.1841 70.9224 39.0468 72.402C37.7306 72.8727 35.3977 72.3388 33.9992 72.8784C32.943 73.2857 31.7623 73.832 31.6675 75.0102C31.8399 75.3348 31.9773 75.5379 32.0742 75.8885C30.9907 75.9094 30.5218 75.8676 29.5351 76.2606L29.4461 76.57C31.9228 77.2894 40.0011 76.0965 43.1234 76.6804C44.951 77.0223 47.1114 76.0087 48.9176 76.3053C51.3955 76.1102 53.731 76.0268 56.2351 75.7616C58.4982 75.3299 84.4237 73.4456 85.0556 73.7854C88.1306 73.4238 91.1066 73.1053 94.184 72.7025C95.5967 72.4472 95.9602 72.4621 97.4019 72.5681C96.7845 72.4622 96.9992 72.6069 96.6719 72.2226L96.26 72.2817L96.1889 72.193C97.778 71.5188 109.279 70.3246 111.746 70.0059C116.491 69.3486 121.23 68.6552 125.962 67.9261C129.948 67.3092 135.885 66.0244 140.212 65.2345Z" fill="#D0AD7A"/>
<path d="M68.4931 49.567C71.5569 44.7402 73.4607 40.346 76.2232 35.4143C78.8956 30.6435 81.7476 28.0635 84.7944 24.0189C81.4725 25.9436 79.815 31.1437 76.485 32.5636L76.3751 32.6099C75.3481 33.6841 75.9344 34.1732 74.6475 34.4616C71.6639 39.1477 69.13 44.811 66.2645 49.7349C67.4018 49.4393 68.2874 48.8078 68.7443 47.7857C68.5172 48.4938 68.4621 48.8182 68.4931 49.567Z" fill="#A98554"/>
<path d="M76.3749 32.6097C76.8091 31.2292 77.9604 30.7463 78.7826 29.4177C84.7479 20.0456 95.0731 12.7487 106.045 8.88765C108.094 8.1668 115.734 6.45632 116.687 5.39303C98.5541 9.45729 86.5709 16.3835 76.425 31.2882C75.8724 32.1 74.9695 33.5765 74.6474 34.4614C75.9342 34.173 75.3479 33.6838 76.3749 32.6097Z" fill="#A98856"/>
<path d="M75.0008 98.4306C74.0928 98.3196 72.8389 98.257 72.1122 97.8267L71.9583 97.5941C71.0522 96.5824 63.3912 96.2791 61.1489 95.7392L61.4659 96.4539C60.5881 97.6029 57.5977 96.0332 56.8497 96.8573L57.1071 97.1053C57.9912 96.9632 62.293 98.1794 64.1969 98.2652C67.6197 98.4199 71.5889 98.7606 75.0008 98.4306Z" fill="#DEC198"/>
<path d="M68.493 49.5667C68.462 48.8179 68.517 48.4935 68.7442 47.7854C68.2873 48.8075 67.4017 49.439 66.2644 49.7347C63.1945 53.6628 61.0708 56.2453 56.7249 59.1781C55.8097 59.7958 53.3521 61.2435 52.6911 61.7448C55.0712 61.9478 60.7322 57.0589 62.4139 55.3623C63.3524 54.4154 64.978 51.9472 65.8741 51.6009L66.1963 51.98C66.2629 54.3319 62.1937 57.6192 60.2079 58.8526L60.113 58.911L60.1337 59.1624L60.3246 59.05C63.5847 57.1042 67.5784 52.9123 68.493 49.5667Z" fill="#A98856"/>
<path d="M229.622 88.7279C230.688 89.2888 232.204 89.9712 233.063 88.8014L232.727 88.3988C231.586 88.0732 232.046 88.0632 230.876 88.3672L229.622 88.7279Z" fill="#A98856"/>
<path d="M-22.7626 45.7946C-20.8144 47.3013 -18.9659 48.688 -16.5377 49.4924C-7.9595 52.3302 1.1666 45.0978 0.123578 36.9391C-0.26359 34.1142 -1.86104 31.5483 -4.31858 29.8126C-9.57316 26.047 -18.2522 26.4124 -22.2349 31.5909C-24.9665 35.1447 -24.935 37.6427 -25.152 41.7073C-29.6969 43.5551 -34.0852 44.5942 -38.7702 45.9948C-54.5933 50.7242 -71.6658 52.0993 -88.2174 51.0556C-90.7563 50.8955 -99.7506 51.0458 -101.071 49.4333C-99.4259 47.2192 -88.0381 46.9823 -84.7766 46.3681C-78.1782 45.758 -66.4874 42.0218 -60.9851 38.4484C-52.7956 35.2799 -44.1667 23.5791 -41.0484 16.1951C-40.3875 14.6316 -39.4512 11.648 -42.1923 11.3587C-52.1834 10.3036 -64.1219 12.9596 -72.6946 17.7142C-78.008 20.66 -82.4219 25.4898 -86.3208 29.8371C-92.8438 38.877 -94.4108 41.9333 -106.54 43.7495C-113.249 44.7209 -120.098 44.52 -126.725 43.1571C-136.395 41.2052 -155.418 29.8805 -163.893 24.302C-167.652 21.827 -174.288 16.2407 -178.069 13.2782C-179.759 11.9534 -182.633 9.10492 -184.237 7.53571C-185.495 6.30597 -187.448 3.63761 -188.768 2.59981C-191.95 -1.6084 -202.155 -1.50286 -193.462 6.56434C-192.318 8.73282 -184.342 15.8105 -182.203 18.1309C-179.144 21.4464 -175.487 22.9447 -173.079 27.4204C-170.081 32.9938 -169.509 38.3579 -168.199 44.3687C-166.422 52.0278 -164.212 59.2214 -159.459 65.7578C-152.84 75.145 -144.482 82.2642 -133.546 87.1884C-131.018 88.3269 -122.613 92.8802 -119.502 91.1315C-117.254 89.869 -118.438 84.9384 -118.89 82.7298C-121.027 72.2949 -125.392 62.1004 -132.421 53.6003C-134.949 50.5028 -138.586 48.1568 -140.876 45.1708L-140.952 45.0705C-136.842 46.2504 -133.719 48.7599 -129.962 50.2305C-121.621 53.4967 -112.478 57.9871 -103.932 60.5224C-103.826 60.443 -103.136 59.8571 -103.134 59.8254C-102.901 58.3317 -103.692 53.1072 -103.317 52.0717C-101.969 52.205 -98.3709 51.878 -96.6082 51.8583L-96.3522 52.2026C-96.7917 52.7095 -97.2365 52.9006 -97.835 53.2388C-96.652 53.9391 -96.709 55.0347 -95.7037 55.3541C-93.8005 54.4908 -91.0947 55.3309 -89.1676 55.3459L-88.1598 56.1071C-71.0163 60.2123 -38.2552 53.5351 -22.7626 45.7946ZM-161.198 41.2417L-160.747 40.766C-159.704 40.8176 -158.257 42.044 -157.117 42.6443C-149.901 46.4434 -145.034 50.4179 -139.441 56.0016C-134.402 61.0281 -126.92 75.4963 -126.348 82.0947L-126.674 82.7651C-127.79 83.026 -134.384 79.5333 -135.691 78.7563C-149.909 70.3015 -155.895 61.7099 -159.857 47.2069C-160.404 45.2388 -160.851 43.2481 -161.198 41.2417ZM-70.7609 54.288C-69.5479 53.741 -66.7177 53.5834 -65.6048 54.2301C-66.7153 54.3922 -70.0038 55.1322 -70.7609 54.288ZM-16.4429 40.1701L-17.8085 37.5024C-15.9886 35.6446 -14.4816 34.8309 -12.0852 33.8801C-10.5085 34.1486 -9.70265 34.3418 -8.32829 35.0852C-7.30969 35.7459 -6.08363 36.6001 -6.02204 37.8029C-5.74897 43.2677 -10.2107 46.0917 -15.2283 43.1283C-15.7886 41.9956 -16.093 41.3976 -16.4429 40.1701ZM-49.9948 18.2103C-52.0452 24.0845 -61.8105 32.6465 -67.9244 35.2302C-70.5392 36.3345 -81.3755 39.7181 -83.8498 39.6353C-84.1004 39.5059 -84.3834 39.3921 -84.5666 39.2075C-83.5875 36.9367 -80.3173 34.8844 -79.6188 33.4837C-76.4766 27.194 -70.6428 23.6678 -63.9062 20.7557C-61.5906 19.7553 -53.5901 17.5914 -50.6442 17.7279C-50.2669 17.9256 -50.213 17.8952 -49.9948 18.2103Z" fill="#C8A771"/>
<path d="M201.681 54.5934C202.432 54.3786 202.594 54.476 202.884 53.975C202.069 53.707 201.513 53.8728 200.705 54.1677L201.681 54.5934Z" fill="#DEC198" fill-opacity="0.4"/>
</g>
<defs>
<clipPath id="clip0_212_2639">
<rect width="147.843" height="265.188" fill="white" transform="matrix(0.00033863 -1 -1 -0.00033863 265.188 147.933)"/>
</clipPath>
</defs>
</svg>
