<svg width="14" height="13" viewBox="0 0 14 13" fill="none" xmlns="http://www.w3.org/2000/svg">
<path d="M6.428 0.759277C6.51139 0.761907 6.59055 0.764229 6.67402 0.763204L6.67891 0.775103C6.68476 0.868254 6.68742 0.961578 6.68687 1.05491L6.69245 1.06622C6.68129 1.17314 6.69083 1.26925 6.6844 1.37227C6.75548 1.35812 6.84986 1.36648 6.925 1.36776L6.98528 1.3635C6.98025 1.47297 6.98408 1.60402 6.99254 1.71433C6.99234 1.75839 6.99086 1.80918 6.99237 1.85256L6.99049 1.99524C6.99345 2.08175 6.99031 2.17654 6.98905 2.26377C7.07924 2.25857 7.13269 2.2547 7.22248 2.26343C7.22918 2.15876 7.25031 2.08629 7.23662 1.97804L7.27607 1.98743C7.28155 2.04153 7.28225 2.21427 7.28763 2.23955L7.28851 2.41167C7.27948 2.56361 7.29856 2.73069 7.2975 2.88749C7.29575 2.97239 7.2854 3.08158 7.30537 3.16C7.32505 3.17178 7.33349 3.16878 7.35634 3.16698C7.45343 3.18064 7.49915 3.1851 7.58973 3.14799L7.59448 3.16203C7.598 3.24475 7.60055 3.32753 7.60215 3.41031L7.60333 3.49284C7.60313 3.55682 7.60626 3.71483 7.59801 3.77106C7.68788 3.77667 7.75196 3.78251 7.84187 3.77328L7.89858 3.76902C7.90199 3.86361 7.90325 3.97095 7.90968 4.06432L7.91422 4.08636L7.90713 4.11045C7.90562 4.19371 7.90588 4.28513 7.90205 4.36759C7.9864 4.34808 8.05131 4.36251 8.1094 4.34852C8.12814 4.34919 8.15886 4.349 8.17546 4.35404L8.17702 4.36918L8.18523 4.67135C8.26665 4.66164 8.39417 4.65622 8.47693 4.65858L8.48282 4.67478C8.48619 4.77484 8.48828 4.87496 8.48912 4.97509C8.58927 4.9623 8.70621 4.97601 8.784 4.96192L8.79852 4.97763L8.78982 5.03813L8.79768 5.27574C8.87148 5.26878 9.01258 5.2658 9.08976 5.26916C9.15633 5.27798 9.31452 5.2841 9.37953 5.27411L9.39657 5.29614C9.39655 5.392 9.39836 5.48785 9.40197 5.58365C9.49137 5.56473 9.59233 5.58376 9.68678 5.57754C9.74419 5.58018 9.80183 5.58375 9.85925 5.58204C9.89347 5.58262 9.94502 5.5852 9.97701 5.58044L10.0112 5.59328C10.0063 5.6879 10.0091 5.78517 10.0106 5.8801C10.1823 5.87788 10.3499 5.90109 10.518 5.88906L10.6043 5.89075L10.8089 5.89421L10.8853 5.91126C10.8528 5.93639 10.6441 5.90483 10.5914 5.93483C10.5932 6.019 10.5942 6.10318 10.5944 6.18737C10.6833 6.1856 10.7723 6.18456 10.8612 6.18424C11.0186 6.1852 11.2777 6.20348 11.4171 6.19365L11.5258 6.19471L11.5469 6.19672L11.6103 6.2152C11.5919 6.22547 11.5229 6.22802 11.4974 6.22998C11.5028 6.32054 11.5053 6.41123 11.505 6.50194C11.5507 6.50068 11.7782 6.49169 11.8082 6.49818C11.8062 6.59134 11.7986 6.68687 11.8174 6.77816L11.6549 6.78047C11.4979 6.77334 11.3449 6.79504 11.1856 6.79085C11.0908 6.78358 10.9824 6.78856 10.8863 6.79066C10.915 6.91973 10.8657 7.00948 10.9378 7.06725L10.9305 7.08145C10.8797 7.08634 10.8094 7.08587 10.7569 7.0871L10.6676 7.08834L10.5359 7.09576C10.5194 7.09279 10.3421 7.09207 10.3056 7.09007C10.2708 7.07454 10.0989 7.09079 10.0124 7.07658C10.011 7.1667 10.0127 7.31208 10.0031 7.39744L9.77495 7.40174L9.7216 7.39822C9.6877 7.44339 9.70375 7.60185 9.69516 7.68355L9.68297 7.70511L9.61805 7.69824C9.54674 7.69771 9.45856 7.69405 9.38946 7.70473C9.30695 7.69979 9.07206 7.65623 9.08789 7.79506C9.09444 7.85259 9.08717 7.94858 9.10432 7.99841L9.08386 8.01433C8.99494 7.99906 8.88024 8.00499 8.78781 8.00654C8.80296 8.10866 8.78908 8.19792 8.79043 8.30014L8.7722 8.31681L8.73664 8.31141L8.48507 8.31663C8.49846 8.41988 8.48262 8.50135 8.48217 8.60271L8.46599 8.62665L8.42361 8.61599L8.18449 8.6171C8.18521 8.70229 8.17483 8.81037 8.17797 8.88526L8.17213 8.90064C8.09892 8.88758 7.97863 8.89167 7.9029 8.89521C7.90346 8.98307 7.9007 9.09628 7.90497 9.18189C7.90266 9.25224 7.89711 9.34668 7.89917 9.41533L7.90079 9.48329L7.89428 9.49699C7.88085 9.50415 7.63791 9.4978 7.60443 9.49782C7.59315 9.5408 7.59543 9.75719 7.59503 9.81479C7.59049 9.91267 7.58799 10.0106 7.58754 10.1086C7.56454 10.121 7.40397 10.0899 7.3155 10.1089L7.30565 10.0943C7.29402 10.1379 7.29228 10.3481 7.29839 10.3946C7.2929 10.5204 7.28033 10.6988 7.28738 10.8211L7.28494 11.0076L7.26707 11.0164L7.23669 10.9994C7.22758 10.927 7.22436 10.8051 7.21984 10.7288C7.14442 10.726 7.06634 10.7255 6.99067 10.7241L6.99145 10.9696L6.99186 11.2793L6.99287 11.3151L6.99367 11.3877C6.99305 11.4418 6.98903 11.5607 6.99402 11.6097L6.98422 11.7049L6.98504 11.8155L6.97797 11.9111C6.96177 11.9499 6.96699 12.1491 6.96578 12.2106C6.9199 12.1735 6.9157 11.9842 6.90606 11.9169C6.83511 11.9088 6.76396 11.9025 6.69271 11.8979C6.69036 11.9559 6.69106 12.1697 6.68132 12.2128C6.61692 12.2266 6.5434 12.2123 6.47724 12.2165C6.42429 12.2198 6.43792 12.2425 6.40408 12.2701L6.37513 12.244L6.36664 12.2174C6.37285 12.1753 6.36152 12.0148 6.35879 11.9634L6.35999 11.8935C6.36399 11.8024 6.35947 11.6753 6.35915 11.5813C6.3603 11.51 6.36891 11.3232 6.34449 11.2623C6.31945 11.2595 6.28736 11.2941 6.28011 11.2937C6.23674 11.291 6.20603 11.2916 6.16232 11.2967C6.08788 11.3528 6.14607 11.5026 6.10044 11.5921L6.08112 11.5919C6.07616 11.4854 6.08829 11.4076 6.0693 11.2954L6.06656 11.1411C6.07112 11.0502 6.0593 10.9057 6.05422 10.8109L6.0551 10.6993C6.05261 10.6161 6.04531 10.4992 6.05795 10.4203C5.98075 10.4179 5.91913 10.4161 5.84173 10.4205L5.80235 10.4357L5.7839 10.4036C5.79431 10.3539 5.78968 10.2614 5.7889 10.2075C5.79338 10.1614 5.77527 9.87612 5.77287 9.79798C5.67873 9.8163 5.5833 9.78778 5.49867 9.82467L5.48101 9.78039C5.48624 9.74148 5.48261 9.65895 5.48197 9.61652C5.48052 9.57763 5.47636 9.53736 5.47302 9.49846C5.47859 9.4161 5.47453 9.29157 5.4771 9.20184C5.392 9.19723 5.26217 9.18403 5.18562 9.21512L5.16264 9.16994C5.17107 9.13242 5.1655 8.94463 5.16637 8.88777C5.08257 8.88585 4.96256 8.87656 4.88599 8.90029C4.87488 8.86186 4.86509 8.74977 4.86005 8.7048C4.85808 8.64926 4.86755 8.6544 4.83779 8.62245C4.77147 8.60512 4.64942 8.61722 4.57025 8.6175C4.56943 8.51139 4.56341 8.42953 4.5537 8.3236L4.54983 8.31305C4.4806 8.29849 4.34645 8.30259 4.27622 8.31749C4.24948 8.26671 4.2532 8.08118 4.25203 8.012C4.16112 8.0104 4.07343 8.00717 3.9828 8.01527L3.94872 7.98436L3.94491 7.96102L3.94634 7.95005C3.94855 7.88472 3.95641 7.77176 3.94269 7.71426L3.90973 7.70714C3.81916 7.70212 3.76128 7.69901 3.67108 7.70545C3.5961 7.69218 3.52104 7.69454 3.44533 7.696L3.41207 7.69799L3.34856 7.67982C3.36697 7.60072 3.36699 7.58432 3.36528 7.50267L3.37039 7.42986L3.37156 7.4136C3.34792 7.39748 3.20213 7.39876 3.16484 7.3978C3.14622 7.3875 3.10469 7.375 3.08359 7.36871C3.01957 7.20895 3.08621 7.22802 3.07505 7.11842C3.03215 7.07695 2.81736 7.06814 2.77981 7.09211C2.68216 7.10367 2.44638 7.08096 2.32039 7.08533C2.23632 7.08335 2.15291 7.08051 2.06884 7.0831L2.01982 7.08168L1.86841 7.0823L1.84206 7.0683L1.84374 7.04155C1.85273 6.98592 1.85337 6.85371 1.85511 6.79181C1.76657 6.78846 1.68325 6.78301 1.59497 6.79185C1.51942 6.78666 1.45194 6.7847 1.37637 6.78347L1.27468 6.78303C1.21699 6.77678 1.14405 6.78013 1.08489 6.78108C1.02189 6.78154 0.997843 6.78117 0.936279 6.77033C0.966358 6.69854 0.956342 6.5777 0.951311 6.49896L0.964317 6.48849C1.01776 6.4927 1.06668 6.49656 1.12051 6.49736C1.20293 6.50579 1.25624 6.50186 1.33866 6.49748C1.41059 6.48217 1.47613 6.48749 1.54942 6.48962C1.54497 6.39059 1.55269 6.29551 1.55474 6.19663C1.61622 6.1883 1.74909 6.18734 1.8162 6.18504L1.86925 6.18553C2.0386 6.19221 2.2113 6.18429 2.38111 6.18222C2.4184 6.18176 2.42454 6.17978 2.44876 6.1547C2.45581 6.08739 2.44835 5.9905 2.44524 5.92073C2.37991 5.92273 2.22938 5.92951 2.17311 5.91469L2.16656 5.89395C2.21843 5.89255 2.28042 5.88916 2.3314 5.89014C2.39258 5.89357 2.42603 5.89613 2.48641 5.889C2.67852 5.90517 2.89087 5.86636 3.05965 5.88454C3.05856 5.80724 3.06892 5.72323 3.06847 5.64674C3.06837 5.62949 3.0344 5.6169 3.01534 5.60672L3.04711 5.58593L3.05596 5.5856C3.2397 5.59789 3.4953 5.56485 3.64893 5.57997C3.65347 5.50603 3.66617 5.35892 3.64605 5.29423L3.66263 5.28089L3.68583 5.27536C3.74112 5.2783 3.78154 5.28052 3.83664 5.27721L3.91649 5.28293C4.02248 5.276 4.1453 5.25621 4.2505 5.2798C4.25505 5.20547 4.27262 5.04111 4.25078 4.97888L4.26921 4.9608C4.34999 4.97514 4.42579 4.96906 4.5076 4.96607C4.52459 4.9706 4.53585 4.96855 4.55319 4.9673C4.57117 4.90926 4.56672 4.73748 4.55375 4.67706L4.57292 4.65599C4.63143 4.66461 4.78535 4.66239 4.86066 4.66693C4.86407 4.56998 4.86927 4.46863 4.86703 4.37206L4.88384 4.29318L4.90681 4.27609L4.92835 4.28557L4.93875 4.34205C4.95908 4.35262 5.12202 4.35834 5.16317 4.36181L5.16965 4.09135L5.17728 3.95043C5.17974 3.89709 5.17912 3.84084 5.17941 3.7872L5.19157 3.77505L5.23474 3.76916C5.31257 3.77148 5.39235 3.77593 5.47032 3.77938C5.47053 3.6695 5.46493 3.53403 5.49249 3.43023L5.50154 3.42481C5.52703 3.47506 5.54506 3.4696 5.59836 3.47175C5.65928 3.4742 5.72141 3.47341 5.78241 3.4737C5.7822 3.38182 5.784 3.28005 5.77777 3.18934C5.7757 3.02683 5.78842 2.89656 5.79001 2.74171L5.79065 2.54939L5.79442 2.53903C5.88226 2.5719 5.9246 2.56962 6.01815 2.56254L6.04055 2.5664C6.07072 2.52998 6.05576 2.33444 6.05385 2.27963C6.05795 2.18859 6.05681 2.08914 6.05748 1.99736C6.06061 1.91736 6.06304 1.83733 6.0648 1.75727L6.06736 1.68451L6.08251 1.63491C6.09655 1.63678 6.10133 1.63627 6.11184 1.64423C6.15967 1.68046 6.30272 1.66976 6.36659 1.66878C6.3575 1.61291 6.35964 1.44388 6.35926 1.38097C6.35723 1.28168 6.3606 1.19344 6.36496 1.09413C6.38297 1.00108 6.361 0.84064 6.39123 0.771113L6.428 0.759277ZM4.2645 6.19495C4.20332 6.20606 4.03 6.20329 3.95939 6.20374C3.97054 6.28275 3.96386 6.4057 3.9618 6.48921C3.96366 6.57999 3.96794 6.68021 3.96717 6.77017C4.05226 6.76987 4.17975 6.77362 4.2607 6.7686C4.31588 6.76857 4.39021 6.7708 4.44372 6.76759C4.71017 6.78832 4.97888 6.77632 5.24577 6.77114C5.32259 6.76966 5.39926 6.76595 5.47589 6.77281C5.47338 6.68452 5.48006 6.58239 5.48395 6.49294C5.59725 6.50361 5.66851 6.50086 5.78229 6.49673C5.77011 6.35067 5.77595 6.05444 5.78229 5.90459C5.73138 5.90376 5.51065 5.90883 5.48338 5.89527C5.34741 5.88822 5.20422 5.89148 5.06759 5.8923C4.96787 5.88808 4.33817 5.89592 4.26464 5.9117C4.26708 5.97355 4.26991 6.12863 4.28131 6.18128L4.2645 6.19495ZM7.59285 5.97252C7.59155 6.12067 7.59203 6.26884 7.5943 6.41698C7.59256 6.53534 7.61027 6.66788 7.59786 6.77693C7.6001 6.88181 7.60285 6.97787 7.59607 7.08299C7.65741 7.08101 7.83247 7.08229 7.87885 7.0753C7.98406 7.07297 8.08929 7.07262 8.19451 7.07424C8.28636 7.07749 8.38889 7.07584 8.48164 7.0764C8.47719 6.98018 8.48192 6.87915 8.47757 6.77872C8.50208 6.76827 8.56133 6.77234 8.59142 6.77278C8.73221 6.77634 8.93284 6.78404 9.07243 6.77474L9.08703 6.75605C9.0976 6.66581 9.09726 6.37201 9.08784 6.28167C9.08491 6.26824 9.0838 6.21773 9.08306 6.20103C9.01337 6.19541 8.85237 6.18833 8.79278 6.21617L8.76977 6.18496C8.78764 6.11929 8.78288 5.98053 8.78289 5.90631C8.68706 5.89519 8.58309 5.88316 8.48856 5.90499L8.46515 5.88911C8.47772 5.8013 8.47242 5.69549 8.47112 5.60517C8.34303 5.59101 8.29897 5.59455 8.17723 5.60598L8.15942 5.58652C8.17756 5.51817 8.19134 5.35902 8.14907 5.30047C8.08227 5.2716 7.97175 5.29792 7.89775 5.29065L7.89882 4.97578C7.74035 4.97797 7.43824 4.94909 7.30755 4.96355C7.27457 5.01062 7.28682 5.19979 7.2882 5.26841L7.28748 5.6152C7.35027 5.60603 7.5568 5.58763 7.59448 5.57428C7.59132 5.70221 7.58671 5.84548 7.59285 5.97252Z" fill="#C09862"/>
<path d="M8.7899 5.03809L8.79776 5.27569C8.87156 5.26873 9.01266 5.26575 9.08984 5.26912C9.15641 5.27794 9.3146 5.28406 9.37961 5.27407L9.39665 5.29609C9.39663 5.39196 9.39844 5.4878 9.40205 5.5836C9.36073 5.59399 9.16101 5.57842 9.0662 5.59403C9.11093 5.24884 9.09141 5.27953 8.77299 5.3014C8.76954 5.19013 8.75788 5.14553 8.7899 5.03809Z" fill="#C7A576"/>
<path d="M1.5547 6.19665C1.61618 6.18832 1.74905 6.18736 1.81616 6.18506L1.85357 6.19718C1.86413 6.25024 1.85422 6.43522 1.85492 6.50124C1.70953 6.50091 1.47567 6.50748 1.33862 6.4975C1.41055 6.48219 1.47609 6.48751 1.54938 6.48964C1.54493 6.39061 1.55265 6.29553 1.5547 6.19665Z" fill="#C4A070"/>
<path d="M4.75388 6.19376C4.86421 6.19654 5.39942 6.20126 5.48528 6.17773L5.484 6.49307C5.43508 6.50751 5.24987 6.50882 5.19087 6.50871C4.88341 6.54366 4.52522 6.4696 4.27222 6.49255C4.27535 6.38504 4.27637 6.31696 4.29587 6.21197C4.41235 6.20923 4.5352 6.20874 4.65047 6.19566L4.75388 6.19376Z" fill="#C5A271" fill-opacity="0.0156863"/>
<path d="M7.28827 5.26841C7.28689 5.19979 7.27464 5.01062 7.30762 4.96354C7.43831 4.94908 7.74042 4.97797 7.89889 4.97578L7.89781 5.29065C7.84939 5.28858 7.6313 5.27751 7.59891 5.28447C7.50207 5.28707 7.38074 5.29209 7.28827 5.26841Z" fill="#CAAA7C" fill-opacity="0.921569"/>
<path d="M4.26465 6.1949L4.28146 6.18123C4.27006 6.12858 4.26723 5.97349 4.26479 5.91164C4.33832 5.89586 4.96802 5.88803 5.06774 5.89224C4.99703 5.89801 4.93811 5.90232 4.8667 5.90287C4.86804 5.9721 4.8603 6.12929 4.88996 6.18006C4.85337 6.183 4.78729 6.18644 4.75398 6.19357L4.65057 6.19547C4.56488 6.18656 4.35896 6.19406 4.26465 6.1949Z" fill="#C7A576" fill-opacity="0.839216"/>
<path d="M5.48335 5.89502C5.51062 5.90858 5.73135 5.90351 5.78226 5.90434C5.77592 6.05419 5.77008 6.35043 5.78226 6.49649C5.66848 6.50061 5.59722 6.50337 5.48392 6.49269L5.4852 6.17735L5.48218 5.9035L5.48335 5.89502Z" fill="#C7A576" fill-opacity="0.882353"/>
<path d="M7.59449 5.57425L7.61255 5.55762C7.66465 5.60415 7.8191 5.58683 7.89335 5.58485L7.95142 5.57925L7.94228 5.62405C7.97901 5.65663 8.00197 5.65874 8.05109 5.6454L8.06564 5.62624C8.03432 5.59097 8.03239 5.59989 7.97779 5.58585C8.03562 5.58925 8.10331 5.59638 8.15943 5.58649L8.17725 5.60595C8.17157 5.67737 8.18056 5.74887 8.17471 5.81038C8.16757 5.78084 8.16189 5.75573 8.15648 5.72564C8.13374 5.75414 8.13619 5.76585 8.13632 5.80208C8.15084 5.82876 8.14164 5.82019 8.17478 5.83148L8.1781 5.87391L8.14095 5.87916C8.08245 5.88029 7.94019 5.88001 7.88929 5.88932C7.62792 5.96424 7.63178 5.79973 7.63004 5.60939C7.61081 5.71419 7.61069 5.85076 7.59287 5.97249C7.58672 5.84545 7.59133 5.70218 7.59449 5.57425Z" fill="#C7A576" fill-opacity="0.513725"/>
<path d="M7.89627 6.51466C7.97843 6.54246 8.41157 6.52352 8.48973 6.50195C8.48864 6.5792 8.50168 6.68859 8.47115 6.74644C8.4234 6.77949 8.40085 6.77236 8.33873 6.77904L7.91574 6.78167L7.90377 6.77832C7.87365 6.74978 7.89223 6.71653 7.90038 6.67938C7.91117 6.62317 7.90671 6.57014 7.89627 6.51466Z" fill="#C4A070" fill-opacity="0.0235294"/>
<path d="M4.26448 6.19516C4.3588 6.19432 4.56471 6.18681 4.65041 6.19573C4.53513 6.2088 4.41228 6.2093 4.2958 6.21204C4.2763 6.31703 4.27529 6.3851 4.27215 6.49262C4.52515 6.46967 4.88334 6.54373 5.19081 6.50878C5.16344 6.63869 5.11294 6.66644 5.16855 6.75478C5.07307 6.72414 4.68491 6.70336 4.60847 6.74688L4.61897 6.76536C4.5842 6.76239 4.58847 6.76809 4.56504 6.75028C4.56942 6.71889 4.58157 6.65671 4.58272 6.63C4.58368 6.60215 4.57299 6.57516 4.55324 6.55552C4.48892 6.49249 4.3573 6.51202 4.27339 6.51685L4.26111 6.49697C4.24705 6.46239 4.25072 6.23664 4.26448 6.19516Z" fill="#C9AB6C" fill-opacity="0.294118"/>
<path d="M7.88938 5.88955C7.94027 5.88025 8.08254 5.88052 8.14104 5.87939C8.10235 5.90339 7.96344 5.89457 7.90842 5.89782C7.8868 6.04987 7.8877 6.35608 7.89625 6.51467C7.90669 6.57015 7.91115 6.62317 7.90036 6.67939C7.88895 6.61057 7.89159 6.56931 7.87275 6.49444L7.85986 6.45431C7.8422 6.44726 7.68473 6.45886 7.64536 6.45533C7.63194 6.39069 7.63091 5.99452 7.67492 5.94973C7.69414 5.97829 7.69032 5.98431 7.7144 5.98925L7.71762 5.95884C7.74774 5.93254 7.7747 5.98263 7.83808 5.95982C7.86748 5.93508 7.87527 5.92534 7.88938 5.88955Z" fill="#C5A271" fill-opacity="0.262745"/>
<path d="M5.19085 6.50832C5.24985 6.50842 5.43506 6.50711 5.48397 6.49268C5.48009 6.58213 5.47341 6.68426 5.47591 6.77254C5.39928 6.76569 5.32262 6.7694 5.2458 6.77088C4.9789 6.77606 4.71019 6.78806 4.44375 6.76733C4.40502 6.76216 4.38532 6.75768 4.34809 6.74802C4.3708 6.728 4.44745 6.74331 4.5133 6.70244C4.52399 6.68752 4.52517 6.65594 4.52804 6.6354C4.47994 6.56781 4.43328 6.54475 4.35294 6.56363L4.35921 6.56376C4.33988 6.5796 4.3292 6.58237 4.30584 6.59198C4.27442 6.5644 4.28331 6.56651 4.27344 6.51639C4.35734 6.51155 4.48897 6.49203 4.55328 6.55506C4.57303 6.5747 4.58372 6.60169 4.58276 6.62953C4.58162 6.65624 4.56947 6.71842 4.56509 6.74982C4.58851 6.76763 4.58424 6.76193 4.61902 6.7649C4.75382 6.7608 5.04757 6.77912 5.1686 6.75431C5.11298 6.66598 5.16348 6.63823 5.19085 6.50832ZM5.36714 6.73625C5.40082 6.71902 5.44697 6.6886 5.44542 6.64461C5.40126 6.58206 5.38161 6.61162 5.32161 6.58126C5.27908 6.60659 5.25609 6.61686 5.22691 6.65702C5.21829 6.69801 5.21534 6.68181 5.23812 6.71743C5.27863 6.74242 5.3191 6.73684 5.36714 6.73625ZM5.24586 6.58979L5.25593 6.58533C5.33816 6.54967 5.32352 6.58915 5.41866 6.54986C5.39578 6.51949 5.26965 6.52962 5.22868 6.53208C5.21495 6.58041 5.20836 6.61433 5.19971 6.66396L5.18827 6.6676C5.18582 6.68916 5.18109 6.6933 5.19042 6.70662L5.20094 6.68897L5.19545 6.67429C5.20899 6.64551 5.22216 6.6082 5.24586 6.58979Z" fill="#C9AB6C" fill-opacity="0.478431"/>
<path d="M5.32154 6.58154C5.38154 6.6119 5.40119 6.58234 5.44535 6.64489C5.4469 6.68888 5.40075 6.7193 5.36707 6.73653C5.31903 6.73712 5.27856 6.7427 5.23805 6.71771C5.21527 6.68209 5.21822 6.69829 5.22684 6.6573C5.25602 6.61714 5.27902 6.60687 5.32154 6.58154Z" fill="#C9AB6C" fill-opacity="0.576471"/>
<path d="M5.22862 6.53241C5.26959 6.52995 5.39572 6.51982 5.41859 6.55018C5.32345 6.58948 5.33809 6.54999 5.25586 6.58566L5.2458 6.59012C5.22209 6.60853 5.20893 6.64584 5.19538 6.67462L5.20088 6.6893L5.19036 6.70695C5.18103 6.69363 5.18576 6.68949 5.18821 6.66793L5.19965 6.66429C5.20829 6.61466 5.21488 6.58074 5.22862 6.53241Z" fill="#C9AB6C" fill-opacity="0.501961"/>
<path d="M7.91566 6.78156L8.33865 6.77893C8.37982 6.78079 8.43857 6.78566 8.4776 6.77881C8.48196 6.87924 8.47722 6.98027 8.48168 7.07649C8.38893 7.07593 8.2864 7.07758 8.19455 7.07433C8.16376 6.96304 8.19984 6.95093 8.18767 6.86118C8.1371 6.80457 7.94035 6.81593 7.89371 6.85107L7.88623 6.83837C7.90751 6.80895 7.91029 6.81665 7.95432 6.80789L7.9628 6.79851L7.96249 6.80167L7.94078 6.80331L7.93484 6.78493L7.91566 6.78156Z" fill="#C7A576" fill-opacity="0.941176"/>
<path d="M7.28832 5.26855C7.38079 5.29223 7.50212 5.28722 7.59896 5.28461C7.59611 5.38177 7.59272 5.4772 7.5946 5.57442C7.55692 5.58778 7.35039 5.60617 7.2876 5.61534L7.28832 5.26855Z" fill="#C7A576" fill-opacity="0.913725"/>
<path d="M5.06774 5.89209C5.20437 5.89127 5.34756 5.88801 5.48353 5.89506L5.48236 5.90354C5.39259 5.9051 5.23057 5.87699 5.18401 5.91893C5.17608 5.96743 5.18599 6.12417 5.22045 6.15696C5.14575 6.20376 4.99034 6.17142 4.88996 6.1799C4.8603 6.12913 4.86804 5.97194 4.8667 5.90271C4.93811 5.90217 4.99703 5.89785 5.06774 5.89209Z" fill="#CAAA7C" fill-opacity="0.662745"/>
<path d="M7.59798 6.77712C7.69991 6.77653 7.80186 6.77693 7.90377 6.77831L7.91575 6.78166L7.93493 6.78503L7.94087 6.80341L7.96258 6.80177L7.96288 6.79861L7.9544 6.80799C7.91038 6.81675 7.9076 6.80905 7.88632 6.83847L7.8938 6.85117C7.90323 6.93124 7.91671 7.00118 7.87898 7.07548C7.83259 7.08248 7.65754 7.0812 7.59619 7.08318C7.60297 6.97806 7.60023 6.88199 7.59798 6.77712Z" fill="#C4A070" fill-opacity="0.976471"/>
<path d="M7.5989 5.2845C7.63129 5.27754 7.84938 5.28861 7.8978 5.29068C7.88721 5.39072 7.90581 5.48938 7.8934 5.5849C7.81914 5.58689 7.66469 5.6042 7.61259 5.55767L7.59454 5.5743C7.59266 5.47708 7.59605 5.38165 7.5989 5.2845Z" fill="#CAAA7C" fill-opacity="0.709804"/>
<path d="M4.88989 6.18014C4.99027 6.17166 5.14568 6.204 5.22038 6.1572C5.18591 6.12441 5.17601 5.96767 5.18393 5.91917C5.2305 5.87723 5.39252 5.90534 5.48229 5.90378L5.48531 6.17763C5.39945 6.20115 4.86424 6.19643 4.75391 6.19365C4.78722 6.18653 4.8533 6.18309 4.88989 6.18014Z" fill="#C7A576" fill-opacity="0.521569"/>
<path d="M9.08798 6.28174C9.0974 6.37208 9.09774 6.66587 9.08717 6.75611C9.07078 6.69046 9.07126 6.65807 9.06962 6.59177C9.06155 6.639 9.04263 6.72051 9.05149 6.7638L9.07257 6.7748C8.93298 6.7841 8.73234 6.7764 8.59155 6.77284L8.66357 6.76971C8.69541 6.76992 8.72536 6.76802 8.75705 6.76622C8.78617 6.7356 8.77489 6.70061 8.77421 6.64759C8.77637 6.59458 8.77793 6.54514 8.78432 6.49226C8.88382 6.50101 8.98164 6.49755 9.08138 6.49572C9.07928 6.4116 9.07943 6.36544 9.08798 6.28174Z" fill="#C9AB6C" fill-opacity="0.945098"/>
<path d="M8.48853 5.90475C8.58306 5.88292 8.68704 5.89495 8.78286 5.90607C8.78285 5.98029 8.78761 6.11905 8.76975 6.18472C8.69882 6.20665 8.6003 6.17141 8.49206 6.20412L8.49059 6.1724C8.48452 6.09407 8.48339 6.00389 8.48071 5.92437L8.48853 5.90475Z" fill="#CAAA7C" fill-opacity="0.792157"/>
<path d="M8.79277 6.21611C8.85237 6.18827 9.01337 6.19535 9.08305 6.20097C9.0838 6.21767 9.08491 6.26818 9.08784 6.28161C9.0793 6.36531 9.07914 6.41147 9.08124 6.49559C8.9815 6.49742 8.88369 6.50089 8.78418 6.49214C8.7954 6.41738 8.78796 6.2996 8.79277 6.21611Z" fill="#CAAA7C" fill-opacity="0.760784"/>
<path d="M8.17734 5.60577C8.29908 5.59435 8.34314 5.5908 8.47123 5.60496C8.47254 5.69529 8.47783 5.80109 8.46526 5.8889C8.42073 5.89613 8.272 5.8885 8.19207 5.89651L8.17819 5.87373L8.17488 5.8313L8.1748 5.8102C8.18066 5.74869 8.17167 5.67719 8.17734 5.60577Z" fill="#C4A070" fill-opacity="0.886275"/>
<path d="M3.95947 6.20361C4.03008 6.20317 4.2034 6.20593 4.26458 6.19482C4.25082 6.23631 4.24715 6.46206 4.2612 6.49664C4.19641 6.47132 4.01523 6.5266 3.96188 6.48908C3.96394 6.40557 3.97062 6.28263 3.95947 6.20361Z" fill="#C7A576" fill-opacity="0.654902"/>
<path d="M8.49219 6.20446C8.60043 6.17174 8.69894 6.20698 8.76987 6.18506L8.79288 6.21626C8.78806 6.29976 8.7955 6.41754 8.78428 6.4923C8.74725 6.5037 8.75574 6.50676 8.72248 6.49956C8.672 6.45429 8.58113 6.4706 8.51166 6.47408C8.50184 6.38232 8.49706 6.29664 8.49219 6.20446Z" fill="#C5A271" fill-opacity="0.0117647"/>
<path d="M3.96191 6.48926C4.01526 6.52679 4.19643 6.4715 4.26123 6.49682C4.26512 6.56902 4.2779 6.70579 4.26081 6.76866C4.17985 6.77367 4.05237 6.76993 3.96728 6.77022C3.96805 6.68026 3.96377 6.58004 3.96191 6.48926Z" fill="#CAAA7C" fill-opacity="0.811765"/>
<path d="M7.89772 5.29068C7.97172 5.29795 8.08224 5.27163 8.14904 5.3005C8.19131 5.35905 8.17753 5.5182 8.15939 5.58655C8.10327 5.59644 8.03557 5.58932 7.97775 5.58591L7.95138 5.57931L7.89331 5.58491C7.90573 5.48939 7.88713 5.39072 7.89772 5.29068Z" fill="#C7A576" fill-opacity="0.913725"/>
<path d="M7.59436 6.41699C7.60271 6.47368 7.59484 6.48937 7.62685 6.52442C7.68029 6.54202 7.78763 6.50082 7.8727 6.49426C7.89154 6.56912 7.8889 6.61038 7.90032 6.6792C7.89217 6.71635 7.87359 6.7496 7.90371 6.77814C7.80179 6.77675 7.69984 6.77636 7.59791 6.77694C7.61033 6.66789 7.59262 6.53535 7.59436 6.41699ZM7.77294 6.73413C7.8396 6.70962 7.89003 6.68651 7.86422 6.60331C7.82936 6.57406 7.81936 6.57971 7.76483 6.58121C7.72661 6.59994 7.71158 6.60421 7.68899 6.64171C7.68737 6.68243 7.68427 6.66606 7.70838 6.70596C7.73608 6.72236 7.74192 6.72605 7.77294 6.73413Z" fill="#CAAA7C" fill-opacity="0.470588"/>
<path d="M7.76492 6.58103C7.81944 6.57953 7.82945 6.57388 7.86431 6.60313C7.89012 6.68633 7.83968 6.70944 7.77303 6.73395C7.742 6.72587 7.73616 6.72218 7.70846 6.70578C7.68435 6.66588 7.68745 6.68225 7.68907 6.64153C7.71166 6.60403 7.72669 6.59976 7.76492 6.58103Z" fill="#CAAA7C" fill-opacity="0.529412"/>
<path d="M7.89372 6.85113C7.94036 6.81599 8.13712 6.80463 8.18768 6.86124C8.19986 6.95099 8.16378 6.9631 8.19456 7.07439C8.08934 7.07277 7.98411 7.07312 7.87891 7.07545C7.91664 7.00114 7.90315 6.9312 7.89372 6.85113Z" fill="#CAAA7C" fill-opacity="0.890196"/>
<path d="M7.593 5.97247C7.61083 5.85075 7.61094 5.71417 7.63017 5.60938C7.63191 5.79972 7.62805 5.96422 7.88942 5.88931C7.87532 5.92509 7.86752 5.93483 7.83812 5.95958C7.77475 5.98239 7.74778 5.93229 7.71767 5.9586L7.71445 5.989C7.69036 5.98406 7.69418 5.97805 7.67496 5.94948C7.63096 5.99427 7.63199 6.39044 7.64541 6.45509C7.68478 6.45862 7.84225 6.44701 7.85991 6.45407L7.87279 6.4942C7.78772 6.50076 7.68038 6.54196 7.62694 6.52436C7.59493 6.48931 7.6028 6.47362 7.59445 6.41694C7.59218 6.2688 7.59169 6.12063 7.593 5.97247Z" fill="#C5A271" fill-opacity="0.290196"/>
<path d="M8.19664 6.13367L8.1936 6.10083L8.21922 6.09358C8.20682 6.07708 8.20542 6.07639 8.20516 6.05569L8.21714 6.08073C8.24656 6.082 8.24587 5.99795 8.29682 5.9576C8.31162 5.96072 8.32649 5.96351 8.34142 5.96598C8.41191 5.97736 8.42136 5.96789 8.48073 5.9248C8.48341 6.00433 8.48454 6.0945 8.49061 6.17283C8.42369 6.18166 8.27146 6.19816 8.20989 6.16977C8.20198 6.16613 8.19972 6.1456 8.19664 6.13367Z" fill="#C5A271" fill-opacity="0.215686"/>
<path d="M4.26116 6.49658L4.27345 6.51646C4.28333 6.56658 4.27443 6.56448 4.30585 6.59205C4.32921 6.58244 4.3399 6.57967 4.35922 6.56383L4.35295 6.5637C4.4333 6.54482 4.47995 6.56788 4.52805 6.63547C4.52519 6.65601 4.524 6.6876 4.51332 6.70251C4.44746 6.74338 4.37081 6.72807 4.3481 6.74809C4.38533 6.75775 4.40504 6.76223 4.44376 6.7674C4.39025 6.77061 4.31592 6.76838 4.26074 6.76841C4.27783 6.70555 4.26505 6.56878 4.26116 6.49658Z" fill="#C7A576" fill-opacity="0.513725"/>
<path d="M8.78419 6.49219C8.77781 6.54506 8.77624 6.5945 8.77409 6.64751L8.74338 6.64147L8.73809 6.62972C8.70893 6.56621 8.68005 6.54444 8.61743 6.51321C8.53657 6.51509 8.55141 6.65107 8.58998 6.70478C8.57173 6.72141 8.57609 6.71634 8.54794 6.72173C8.59654 6.72207 8.6619 6.71839 8.70578 6.73495L8.7081 6.74829L8.66345 6.76963L8.59143 6.77277C8.56134 6.77232 8.50209 6.76826 8.47757 6.77871C8.43854 6.78556 8.37979 6.78069 8.33862 6.77883C8.40074 6.77216 8.42329 6.77928 8.47104 6.74623C8.50157 6.68838 8.48853 6.579 8.48962 6.50175C8.5977 6.50717 8.61419 6.509 8.72239 6.49945C8.75565 6.50665 8.74716 6.50359 8.78419 6.49219Z" fill="#C7A576" fill-opacity="0.560784"/>
<path d="M8.6636 6.7696L8.70825 6.74826L8.70594 6.73492C8.66205 6.71837 8.59669 6.72205 8.5481 6.7217C8.57624 6.71631 8.57189 6.72139 8.59013 6.70476C8.55156 6.65104 8.53672 6.51506 8.61758 6.51318C8.6802 6.54441 8.70908 6.56619 8.73825 6.62969L8.74353 6.64144L8.77424 6.64749C8.77491 6.7005 8.7862 6.73549 8.75707 6.76611C8.72539 6.76791 8.69544 6.76982 8.6636 6.7696Z" fill="#C7A576" fill-opacity="0.576471"/>
<path d="M8.19191 5.89676C8.27184 5.88875 8.42057 5.89638 8.4651 5.88916L8.48851 5.90504L8.48069 5.92466C8.42132 5.96774 8.41187 5.97721 8.34137 5.96583C8.32644 5.96336 8.31158 5.96057 8.29677 5.95745C8.24583 5.99781 8.24651 6.08185 8.2171 6.08058L8.20511 6.05555C8.20538 6.07624 8.20678 6.07694 8.21918 6.09343L8.19356 6.10068L8.1966 6.13352C8.18683 6.04675 8.1896 5.98379 8.19191 5.89676Z" fill="#C5A271" fill-opacity="0.192157"/>
<path d="M4.61914 6.76502L4.60864 6.74653C4.68508 6.70301 5.07324 6.7238 5.16872 6.75443C5.0477 6.77924 4.75394 6.76092 4.61914 6.76502Z" fill="#C9AB6C" fill-opacity="0.243137"/>
<path d="M7.95152 5.5791L7.97789 5.5857C8.03249 5.59974 8.03442 5.59082 8.06574 5.62609L8.05119 5.64526C8.00208 5.65859 7.97911 5.65648 7.94238 5.6239L7.95152 5.5791Z" fill="#CAAA7C" fill-opacity="0.439216"/>
<path d="M9.06951 6.5918C9.07115 6.65809 9.07067 6.69049 9.08706 6.75614L9.07246 6.77483L9.05138 6.76383C9.04252 6.72054 9.06144 6.63902 9.06951 6.5918Z" fill="#C9AB6C" fill-opacity="0.854902"/>
<path d="M8.17483 5.83143C8.14169 5.82014 8.15089 5.82871 8.13637 5.80202C8.13624 5.76579 8.13379 5.75409 8.15653 5.72559C8.16193 5.75567 8.16762 5.78079 8.17476 5.81033L8.17483 5.83143Z" fill="#CAAA7C" fill-opacity="0.427451"/>
<path d="M2.14908 7.38086L2.17545 7.38356C2.20011 7.49689 2.19517 7.5638 2.21448 7.66907C2.2263 7.67272 2.23887 7.67944 2.24712 7.67526C2.31803 7.63927 2.37428 7.66239 2.4501 7.68452L2.4306 7.68607C2.51753 7.70695 2.66528 7.73453 2.74596 7.69196C2.75278 7.68317 2.77647 7.65433 2.77918 7.64619C2.815 7.68838 2.8217 7.67486 2.89093 7.68204C2.94703 7.68787 3.0178 7.68928 3.07542 7.692C3.09533 7.69163 3.1117 7.68845 3.13136 7.68557L3.3115 7.68028L3.34872 7.68L3.41224 7.69817L3.39992 7.71523C3.31722 7.71288 3.13373 7.69379 3.07138 7.73409C3.04973 7.74807 3.07045 7.95259 3.12187 7.99987C3.19352 8.02284 3.28625 7.98982 3.36013 7.96977L3.37306 7.99925C3.44145 8.00259 3.52795 7.99719 3.59769 7.99477L3.66959 7.99402L3.68463 8.00111L3.72514 8.0171L3.71796 8.01853C3.6965 8.02304 3.6897 8.02275 3.67278 8.03714C3.67696 8.12572 3.68056 8.21432 3.68357 8.30295H3.94833C3.94666 8.20665 3.92924 8.08993 3.98297 8.01545C4.0736 8.00735 4.16128 8.01057 4.2522 8.01217C4.25336 8.08136 4.24964 8.26689 4.27638 8.31767C4.297 8.35666 4.27903 8.53794 4.2902 8.62108L4.29474 8.63904L4.28669 8.63836C4.28842 8.71096 4.29165 8.78952 4.29111 8.86154C4.36273 8.86333 4.46983 8.8771 4.52735 8.84702C4.56525 8.7959 4.57666 8.71722 4.53305 8.66551C4.46534 8.64557 4.40676 8.63632 4.33755 8.62426C4.39438 8.61836 4.49697 8.62527 4.54089 8.61145C4.55874 8.63734 4.59409 8.70117 4.61268 8.71208C4.58974 8.77932 4.61394 8.79984 4.59407 8.85852C4.58292 8.88306 4.59626 9.11429 4.59579 9.16623H4.8624V8.89963C4.77569 8.9003 4.68871 8.90549 4.60464 8.88586L4.59951 8.87745C4.65446 8.8542 4.67505 8.85618 4.73553 8.85503C4.77414 8.86178 4.79223 8.86734 4.83124 8.85796C4.85631 8.8184 4.84893 8.76644 4.86021 8.70498C4.86525 8.74995 4.87504 8.86203 4.88615 8.90046C4.88986 8.96579 4.88942 9.16477 4.89907 9.20548C4.8774 9.26712 4.91696 9.45989 4.88838 9.50934L4.86972 9.50302C4.84654 9.4384 4.87634 9.32008 4.8552 9.23165C4.78544 9.1745 4.68344 9.21844 4.57506 9.2049C4.50573 9.14506 4.58788 8.9767 4.53963 8.90958C4.52217 8.88528 4.31538 8.90699 4.2563 8.89342C4.22227 8.83376 4.26466 8.70544 4.23319 8.64709C4.15555 8.64731 4.08796 8.64792 4.0104 8.64136C4.0194 8.63071 4.02727 8.62246 4.03971 8.61604C4.02065 8.6021 4.03116 8.60506 4.007 8.60785L3.98774 8.63893L3.96117 8.64491L3.94929 8.6349C3.94546 8.53868 3.94766 8.43771 3.94833 8.34103C3.85373 8.33911 3.76423 8.34375 3.66973 8.34806C3.60058 8.2867 3.66998 8.139 3.63665 8.05926C3.6152 8.00797 3.1367 8.04953 3.04579 8.02138C3.02126 7.97659 3.03306 7.79173 3.03427 7.73166C2.78603 7.73129 2.44546 7.74542 2.19944 7.73593C2.08266 7.73143 2.11922 7.4824 2.09183 7.43426L2.03882 7.42126L2.04369 7.39165C2.0684 7.38977 2.12799 7.38683 2.14908 7.38086ZM3.98653 8.54411C4.08983 8.54451 4.14572 8.54923 4.24835 8.56282C4.25471 8.50392 4.27006 8.42415 4.24269 8.37459C4.18044 8.31113 4.06819 8.32856 3.98676 8.33812C3.97793 8.35952 3.98721 8.50563 3.98653 8.54411ZM4.19141 8.28329L4.20512 8.25953C4.17866 8.22276 4.12852 8.19025 4.10431 8.13136C4.09126 8.09964 4.01817 8.05534 3.98187 8.04594C3.97854 8.10357 3.96597 8.21047 3.98451 8.26012C4.04258 8.3097 4.1153 8.28205 4.19141 8.28329Z" fill="#C9AB6C" fill-opacity="0.0705882"/>
<path d="M3.98187 8.0459C4.01817 8.05529 4.09126 8.0996 4.10431 8.13131C4.12852 8.19021 4.17866 8.22272 4.20512 8.25948L4.19141 8.28325C4.1153 8.28201 4.04258 8.30966 3.98451 8.26008C3.96597 8.21043 3.97853 8.10352 3.98187 8.0459Z" fill="#CAAA7C" fill-opacity="0.482353"/>
<path d="M6.98584 12.5215C6.98434 12.5911 6.98151 12.5886 6.91135 12.6101C6.94714 12.6427 6.98402 12.5872 6.98496 12.6549C6.98561 12.7011 6.97525 12.7576 6.97719 12.7992C6.91835 12.8212 6.78215 12.8424 6.72297 12.819C6.75118 12.7808 6.75958 12.8082 6.81454 12.774L6.81038 12.7611C6.71395 12.7721 6.4812 12.8641 6.39619 12.8057C6.37168 12.7467 6.37392 12.5823 6.38593 12.5219C6.46779 12.5186 6.55653 12.5129 6.63791 12.5163C6.74162 12.5044 6.88205 12.5102 6.98584 12.5215Z" fill="#C4A070" fill-opacity="0.0666667"/>
<path d="M1.85353 5.61156C2.06971 5.61309 2.25243 5.59367 2.46188 5.59229C2.47726 5.66843 2.45987 5.79201 2.45214 5.87365C2.41517 5.87863 2.36715 5.88364 2.33148 5.89033C2.28051 5.88936 2.21852 5.89275 2.16665 5.89414L2.15609 5.89479L1.99559 5.89047C1.94696 5.87675 1.89007 5.87785 1.86075 5.84871C1.83897 5.81737 1.85311 5.66704 1.85353 5.61156Z" fill="#C7A576" fill-opacity="0.0117647"/>
<path d="M2.15605 5.89469L2.16661 5.89404L2.17316 5.91479C2.22943 5.9296 2.37995 5.92282 2.44528 5.92083C2.44839 5.99059 2.45586 6.08748 2.44881 6.15479C2.42459 6.17988 2.41845 6.18186 2.38116 6.18232C2.21135 6.18438 2.03865 6.19231 1.8693 6.18563C1.84571 6.14043 1.84654 6.10355 1.86051 6.05479C1.88094 5.98354 1.83673 5.97101 1.84739 5.90967C1.93411 5.90853 2.07546 5.91362 2.15605 5.89469Z" fill="#C5A271" fill-opacity="0.898039"/>
<path d="M5.19855 3.46073C5.19869 3.30844 5.19623 3.05204 5.21169 2.90687C5.2439 2.89131 5.41759 2.90375 5.44376 2.9251C5.48413 2.95805 5.46819 3.10635 5.48459 3.17955L5.48632 3.19229C5.48538 3.25722 5.48631 3.33449 5.48194 3.39827C5.47774 3.41886 5.47666 3.45291 5.45925 3.46192C5.39645 3.49446 5.26346 3.48203 5.19855 3.46073Z" fill="#C7A576" fill-opacity="0.0196078"/>
<path d="M12.0854 6.19824C12.1862 6.20771 12.2928 6.20331 12.3944 6.20126C12.4023 6.31021 12.4238 6.6726 12.4085 6.76827C12.3908 6.6686 12.3986 6.56482 12.3736 6.43512C12.3625 6.47288 12.3444 6.53631 12.3423 6.57448C12.335 6.70547 12.2678 6.68129 12.185 6.72355L12.1758 6.72831C12.1459 6.62924 12.1735 6.51498 12.1434 6.46916L12.1211 6.46709L12.1079 6.49134L12.0979 6.48299C12.1061 6.44152 12.1087 6.25382 12.1016 6.21228L12.0854 6.19824Z" fill="#C9AB6C" fill-opacity="0.533333"/>
<path d="M11.5471 6.19661C11.7266 6.19591 11.9061 6.19636 12.0856 6.19793L12.1017 6.21197C12.03 6.28483 11.9072 6.21593 11.8254 6.25204C11.779 6.30104 11.8064 6.4318 11.8157 6.49731L11.8084 6.49807C11.7783 6.49159 11.5509 6.50057 11.5051 6.50183C11.5055 6.41112 11.503 6.32043 11.4976 6.22987C11.5231 6.22792 11.592 6.22536 11.6105 6.21509L11.5471 6.19661Z" fill="#C7A576" fill-opacity="0.941176"/>
<path d="M6.13143 12.2085C6.18759 12.2093 6.24821 12.212 6.30357 12.2053C6.31597 12.1763 6.32745 12.149 6.34149 12.1206C6.35742 12.1457 6.36126 12.1866 6.36669 12.2174L6.37518 12.244C6.37729 12.2977 6.37657 12.4627 6.38096 12.5043C6.35077 12.5437 6.12149 12.5267 6.07747 12.5079C6.07127 12.4226 6.06358 12.3375 6.06425 12.252L6.13143 12.2085Z" fill="#C4A070" fill-opacity="0.0156863"/>
<path d="M10.8091 5.89396C10.9371 5.89427 11.0652 5.89333 11.1932 5.89111L11.1921 6.1819C11.2539 6.18308 11.3601 6.18175 11.4172 6.19339C11.2779 6.20323 11.0188 6.18495 10.8614 6.18398C10.888 6.14887 10.8943 6.12232 10.9037 6.08017C10.9414 5.91159 10.6944 5.94335 10.5916 5.93457C10.6443 5.90457 10.853 5.93613 10.8855 5.91101L10.8091 5.89396Z" fill="#CAAA7C" fill-opacity="0.831373"/>
<path d="M1.27408 6.19482L1.45568 6.19536C1.48132 6.19579 1.53116 6.19801 1.55481 6.19654C1.55277 6.29542 1.54505 6.3905 1.5495 6.48953C1.47621 6.4874 1.41067 6.48208 1.33874 6.49739C1.25632 6.50177 1.20301 6.50569 1.12059 6.49726C1.14187 6.48661 1.23391 6.49022 1.26388 6.49027C1.26381 6.39834 1.2944 6.31553 1.24718 6.24553C1.20176 6.22439 1.02896 6.23992 0.967712 6.24183L0.95166 6.2052C1.04019 6.19303 1.17003 6.20865 1.27408 6.19482Z" fill="#C7A576" fill-opacity="0.972549"/>
<path d="M2.77993 7.09225C2.81749 7.06828 3.03228 7.07709 3.07518 7.11857C3.08634 7.22817 3.0197 7.2091 3.08372 7.36886C3.10482 7.37514 3.14635 7.38765 3.16497 7.39794L3.09439 7.39908C3.05664 7.38893 3.00295 7.39064 2.96261 7.39013C2.8912 7.38654 2.85829 7.38485 2.78577 7.39377L2.75387 7.37451C2.74697 7.35329 2.74846 7.36482 2.75696 7.33853C2.75933 7.25991 2.75701 7.166 2.77993 7.09225Z" fill="#C7A576" fill-opacity="0.956863"/>
<path d="M7.59382 10.403C7.5968 10.4779 7.59971 10.5488 7.60621 10.6235C7.54698 10.8585 7.35531 10.6538 7.29732 10.7495L7.30066 10.8149L7.28749 10.821C7.28045 10.6987 7.29301 10.5204 7.2985 10.3945C7.37599 10.4337 7.51973 10.4536 7.59382 10.403Z" fill="#C4A070" fill-opacity="0.356863"/>
<path d="M1.99547 5.89014L2.15597 5.89445C2.07538 5.91338 1.93403 5.90829 1.84731 5.90943C1.83665 5.97078 1.88086 5.98331 1.86043 6.05455C1.84645 6.10332 1.84563 6.1402 1.86922 6.18539L1.81616 6.1849C1.74906 6.18719 1.61619 6.18816 1.5547 6.19649C1.53105 6.19796 1.48121 6.19574 1.45557 6.19531C1.49361 6.19036 1.51183 6.18712 1.54947 6.17757L1.55084 6.15642C1.54282 6.05943 1.57291 6.00819 1.54912 5.89621C1.69636 5.90377 1.84788 5.89549 1.99547 5.89014Z" fill="#C7A576" fill-opacity="0.65098"/>
<path d="M2.76867 5.58919C2.84128 5.58801 2.97987 5.58149 3.04727 5.58611L3.01551 5.60689C3.03457 5.61707 3.06854 5.62966 3.06864 5.64692C3.06908 5.72341 3.05872 5.80741 3.05982 5.88471C2.89103 5.86653 2.67869 5.90534 2.48657 5.88917C2.54434 5.87889 2.69219 5.87979 2.75801 5.87871L2.77153 5.87465C2.76348 5.85258 2.76662 5.68037 2.76643 5.64312C2.75725 5.60957 2.75712 5.62375 2.76867 5.58919Z" fill="#C7A576" fill-opacity="0.898039"/>
<path d="M3.39223 5.29831C3.47682 5.29658 3.56141 5.29528 3.646 5.29443C3.66612 5.35912 3.65343 5.50623 3.64888 5.58017C3.49525 5.56505 3.23965 5.59809 3.05591 5.5858L3.06717 5.58052C3.13781 5.57437 3.27249 5.58492 3.32523 5.56266C3.32791 5.55883 3.38244 5.33043 3.39223 5.29831Z" fill="#CAAA7C" fill-opacity="0.819608"/>
<path d="M10.9305 7.08153L10.9377 7.06732C10.8657 7.00956 10.915 6.9198 10.8862 6.79073C10.9823 6.78863 11.0908 6.78366 11.1855 6.79092L11.2009 6.82575C11.2015 6.91259 11.1969 6.99449 11.2183 7.07904C11.1505 7.08527 11.0922 7.08469 11.0244 7.08451L10.9305 7.08153Z" fill="#C4A070" fill-opacity="0.929412"/>
<path d="M9.10435 7.99834C9.0872 7.94851 9.09447 7.85252 9.08792 7.79499C9.07209 7.65616 9.30698 7.69972 9.38949 7.70466C9.39767 7.7918 9.39054 7.91657 9.40391 7.98792C9.35272 8.00022 9.1638 8.00121 9.10435 7.99834Z" fill="#C5A271" fill-opacity="0.854902"/>
<path d="M5.48631 3.19226C5.51065 3.16543 5.49944 3.17416 5.54133 3.16309C5.61394 3.16522 5.71398 3.16133 5.77786 3.18938C5.78409 3.28009 5.78229 3.38186 5.78251 3.47374C5.72151 3.47345 5.65938 3.47424 5.59845 3.47179C5.54516 3.46964 5.52713 3.4751 5.50164 3.42485L5.49258 3.43027L5.48193 3.39824C5.4863 3.33446 5.48537 3.2572 5.48631 3.19226Z" fill="#C4A070" fill-opacity="0.960784"/>
<path d="M7.28857 2.41162C7.29282 2.45138 7.29956 2.50136 7.30149 2.54034L7.30784 2.58122C7.40174 2.59277 7.53251 2.51006 7.59182 2.60816C7.58651 2.6838 7.58708 2.72116 7.59127 2.7959L7.5864 2.84862C7.56464 2.84197 7.55755 2.83528 7.54031 2.8414C7.46255 2.86903 7.37638 2.86362 7.29755 2.88744C7.29862 2.73064 7.27954 2.56356 7.28857 2.41162Z" fill="#C7A576" fill-opacity="0.666667"/>
<path d="M10.3058 7.08984C10.3423 7.09184 10.5196 7.09256 10.5361 7.09553C10.5785 7.14316 10.6072 7.29365 10.6188 7.36315C10.574 7.37212 10.5275 7.38237 10.4823 7.38762L10.3038 7.38774C10.2853 7.32728 10.2816 7.17233 10.2783 7.10292L10.3058 7.08984Z" fill="#CAAA7C" fill-opacity="0.74902"/>
<path d="M6.68143 12.2129L6.68735 12.2138C6.64298 12.3082 6.73624 12.4688 6.63804 12.5162C6.55666 12.5128 6.46792 12.5185 6.38606 12.5218L6.38102 12.5044C6.37663 12.4628 6.37735 12.2978 6.37524 12.2441L6.40419 12.2702C6.43804 12.2425 6.4244 12.2199 6.47735 12.2165C6.54351 12.2123 6.61703 12.2266 6.68143 12.2129Z" fill="#C7A576" fill-opacity="0.827451"/>
<path d="M0.674961 6.20799C0.767158 6.20584 0.859378 6.20489 0.9516 6.20511L0.967652 6.24175C0.965849 6.29535 0.958004 6.4426 0.964336 6.48832L0.951329 6.49878C0.92909 6.49157 0.698896 6.484 0.683562 6.48898C0.686812 6.57294 0.69704 6.69153 0.676693 6.76931C0.653577 6.65678 0.683458 6.34821 0.674961 6.20799Z" fill="#C5A271" fill-opacity="0.592157"/>
<path d="M6.0836 11.6233C6.12238 11.6189 6.12612 11.6063 6.15147 11.6035C6.22218 11.5959 6.29383 11.6155 6.35921 11.5811C6.35953 11.6751 6.36405 11.8021 6.36005 11.8932L6.34371 11.8857C6.29496 11.9215 6.14277 11.9332 6.08745 11.9033C6.06881 11.8677 6.08305 11.6813 6.0836 11.6233Z" fill="#C5A271" fill-opacity="0.729412"/>
<path d="M4.13975 4.97656L4.25078 4.9787C4.27263 5.04093 4.25506 5.20528 4.2505 5.27961C4.14531 5.25602 4.02248 5.27582 3.9165 5.28275L3.94728 5.26489C3.96053 5.22854 3.96873 5.03899 3.97315 4.9862C4.04385 4.98815 4.07026 4.98785 4.13975 4.97656Z" fill="#C9AB6C" fill-opacity="0.843137"/>
<path d="M10.0317 5.59809C10.1598 5.56328 10.3597 5.61384 10.5391 5.59144C10.5833 5.7154 10.5528 5.85882 10.6044 5.89048L10.5181 5.88879C10.4703 5.88045 10.3409 5.87923 10.2872 5.87762C10.2824 5.78647 10.2802 5.69271 10.2622 5.60341C10.1854 5.60099 10.1086 5.59922 10.0317 5.59809Z" fill="#C9A77C" fill-opacity="0.364706"/>
<path d="M5.47724 9.20157C5.47466 9.2913 5.47872 9.41583 5.47315 9.4982L5.45652 9.49289C5.41219 9.48978 5.2598 9.48706 5.22212 9.51022C5.21213 9.51636 5.20595 9.51272 5.19039 9.51115C5.18698 9.42731 5.17784 9.29422 5.18575 9.21485C5.26231 9.18376 5.39213 9.19696 5.47724 9.20157Z" fill="#C4A070" fill-opacity="0.8"/>
<path d="M10.0124 7.07666C10.0989 7.09087 10.2708 7.07462 10.3056 7.09016L10.2782 7.10323C10.2815 7.17264 10.2851 7.3276 10.3036 7.38805C10.2608 7.39319 10.1394 7.39134 10.0904 7.39164C10.0671 7.39284 10.0245 7.39361 10.0032 7.39752C10.0128 7.31216 10.011 7.16678 10.0124 7.07666Z" fill="#C5A271" fill-opacity="0.976471"/>
<path d="M11.8157 6.49761C11.8741 6.50235 11.9946 6.51028 12.051 6.48942C12.0737 6.481 12.0641 6.47888 12.098 6.48297L12.1081 6.49133C12.1105 6.55903 12.1112 6.6473 12.1167 6.71315C12.12 6.73075 12.1252 6.75003 12.1231 6.76742C12.0466 6.77684 11.9792 6.7779 11.9024 6.77989L11.8176 6.77835C11.7988 6.68706 11.8064 6.59153 11.8084 6.49837L11.8157 6.49761Z" fill="#C5A271" fill-opacity="0.952941"/>
<path d="M8.86663 4.97468C8.93971 4.97606 9.00262 4.97821 9.07574 4.97168C9.08029 5.06395 9.08924 5.17863 9.08973 5.26918C9.01256 5.26582 8.87145 5.2688 8.79765 5.27576L8.78979 5.03815L8.79849 4.97765L8.86663 4.97468Z" fill="#C7A576" fill-opacity="0.894118"/>
<path d="M8.177 4.36908C8.25058 4.36986 8.40858 4.36537 8.47331 4.37122C8.46386 4.49037 8.47709 4.54869 8.47692 4.65848C8.39415 4.65612 8.26663 4.66154 8.18522 4.67125L8.177 4.36908Z" fill="#C5A271" fill-opacity="0.807843"/>
<path d="M4.58505 4.36182C4.6952 4.3862 4.77953 4.35848 4.86713 4.3722C4.86937 4.46877 4.86417 4.57012 4.86076 4.66708C4.78545 4.66253 4.63153 4.66475 4.57302 4.65613C4.56939 4.61136 4.57977 4.40669 4.58505 4.36182Z" fill="#C7A576" fill-opacity="0.811765"/>
<path d="M3.09575 5.28476C3.19832 5.29426 3.53704 5.28066 3.66281 5.28076L3.64623 5.2941C3.56165 5.29496 3.47706 5.29625 3.39247 5.29798C3.38268 5.3301 3.32814 5.5585 3.32546 5.56233C3.27273 5.58459 3.13804 5.57404 3.0674 5.58019C3.06667 5.49554 3.08516 5.372 3.09575 5.28476Z" fill="#C5A271" fill-opacity="0.572549"/>
<path d="M8.48291 4.6748C8.56472 4.68274 8.65487 4.67813 8.73759 4.67629L8.7676 4.69339C8.78374 4.75939 8.77262 4.87656 8.78409 4.96195C8.7063 4.97604 8.58936 4.96233 8.48921 4.97511C8.48837 4.87498 8.48627 4.77487 8.48291 4.6748Z" fill="#CAAA7C" fill-opacity="0.819608"/>
<path d="M6.9658 12.2106C6.967 12.1491 6.96178 11.9499 6.97798 11.9111C6.99134 12.1029 6.96973 12.3385 6.98587 12.5214C6.88208 12.5101 6.74165 12.5043 6.63794 12.5162C6.73614 12.4688 6.64288 12.3082 6.68725 12.2138L6.91726 12.2127C6.91762 12.2723 6.91178 12.4165 6.94357 12.4616C6.97996 12.4089 6.96736 12.2961 6.96442 12.2305L6.9658 12.2106Z" fill="#C5A271" fill-opacity="0.705882"/>
<path d="M6.08249 1.63468C6.07812 1.5569 6.05772 1.41818 6.10582 1.36328L6.15662 1.36357C6.22495 1.37403 6.30692 1.36398 6.35925 1.38074C6.35963 1.44366 6.35748 1.61268 6.36657 1.66855C6.3027 1.66953 6.15965 1.68023 6.11183 1.644C6.10131 1.63604 6.09653 1.63655 6.08249 1.63468Z" fill="#CAAA7C" fill-opacity="0.866667"/>
<path d="M9.39673 5.29608C9.49522 5.29231 9.59378 5.29047 9.69234 5.29053C9.69148 5.38619 9.68967 5.48185 9.68694 5.57748C9.59249 5.5837 9.49154 5.56467 9.40214 5.58359C9.39852 5.48779 9.39672 5.39194 9.39673 5.29608Z" fill="#CAAA7C" fill-opacity="0.752941"/>
<path d="M10.8926 7.3813C10.9151 7.32337 10.8992 7.1682 10.8918 7.1046L10.9287 7.09668C11.0142 7.12783 11.164 7.09376 11.2008 7.14405C11.214 7.21679 11.2102 7.31316 11.2101 7.38865C11.0935 7.38514 11.0107 7.37377 10.8926 7.3813Z" fill="#C5A271" fill-opacity="0.027451"/>
<path d="M8.16113 4.09782C8.46597 4.02363 8.45539 4.12249 8.47341 4.37115C8.40868 4.3653 8.25069 4.36979 8.1771 4.369L8.17554 4.35387C8.16843 4.26532 8.16338 4.18659 8.16113 4.09782Z" fill="#C4A070" fill-opacity="0.0235294"/>
<path d="M8.8667 4.97475C8.91061 4.96127 9.02455 4.95774 9.07531 4.95459L9.11046 5.00207C9.18031 5.00744 9.26979 4.99957 9.35318 5.00453C9.36523 5.07255 9.36792 5.25395 9.37958 5.27421C9.31456 5.2842 9.15638 5.27808 9.08981 5.26926C9.08931 5.1787 9.08036 5.06402 9.07582 4.97175C9.00269 4.97828 8.93979 4.97613 8.8667 4.97475Z" fill="#C9AB6C" fill-opacity="0.266667"/>
<path d="M7.60625 10.6235C7.61302 10.6968 7.60096 10.9285 7.56982 10.9835C7.50748 11.0314 7.41495 11.0032 7.31231 11.0074C7.31462 10.9547 7.32807 10.8528 7.3007 10.8149L7.29736 10.7495C7.35536 10.6538 7.54703 10.8586 7.60625 10.6235Z" fill="#C5A271" fill-opacity="0.0196078"/>
<path d="M4.59155 4.08805C4.67643 4.08613 4.83387 4.11146 4.887 4.07861C4.88444 4.13837 4.87719 4.23692 4.88385 4.2933L4.86704 4.37218C4.77944 4.35846 4.69511 4.38618 4.58496 4.36179C4.59378 4.31401 4.59128 4.14547 4.59155 4.08805Z" fill="#C4A070" fill-opacity="0.0196078"/>
<path d="M6.06934 1.08076C6.16183 1.07772 6.27922 1.06711 6.36505 1.09432C6.36068 1.19363 6.35732 1.28187 6.35935 1.38116C6.30702 1.3644 6.22506 1.37446 6.15672 1.364C6.16359 1.34761 6.1635 1.33866 6.16614 1.32106L6.1514 1.31124L6.07521 1.33005C6.06754 1.27594 6.06975 1.14122 6.06934 1.08076ZM6.12373 1.29265C6.13326 1.23665 6.15124 1.16473 6.13751 1.11163C6.1279 1.10504 6.10913 1.09128 6.09975 1.08643C6.09735 1.13874 6.08502 1.26722 6.106 1.30531L6.12373 1.29265Z" fill="#C7A576" fill-opacity="0.470588"/>
<path d="M6.09977 1.08643C6.10915 1.09127 6.12793 1.10504 6.13754 1.11163C6.15126 1.16472 6.13329 1.23665 6.12375 1.29265L6.10603 1.30531C6.08504 1.26722 6.09737 1.13874 6.09977 1.08643Z" fill="#C7A576" fill-opacity="0.533333"/>
<path d="M8.73755 4.67606C8.75822 4.66951 9.03043 4.70687 9.06006 4.71654C9.0733 4.76281 9.06836 4.87484 9.06227 4.92428L9.07531 4.95429C9.02455 4.95744 8.91061 4.96097 8.8667 4.97445L8.79856 4.97742L8.78405 4.96172C8.77257 4.87633 8.7837 4.75916 8.76756 4.69316L8.73755 4.67606Z" fill="#C7A576" fill-opacity="0.0117647"/>
<path d="M2.01986 7.08154L2.06889 7.08296C2.12944 7.09285 2.13768 7.08266 2.16636 7.11907C2.18392 7.19586 2.08724 7.28759 2.14896 7.38054C2.12787 7.38651 2.06828 7.38946 2.04357 7.39133L1.869 7.37559C1.86018 7.2845 1.85944 7.20612 1.8584 7.11455C1.89773 7.11912 2.0023 7.12323 2.03742 7.10525L2.01986 7.08154ZM1.94612 7.31208C1.98402 7.30478 2.01298 7.29955 2.05158 7.29534C2.05373 7.23898 2.11774 7.20131 2.12962 7.14021L2.11592 7.12857L1.95809 7.14257C1.93848 7.14884 1.90352 7.15401 1.89681 7.17198C1.878 7.22245 1.8653 7.31657 1.90607 7.35883L1.9269 7.35693L1.90509 7.34351L1.91092 7.31884C1.91732 7.31779 1.9421 7.31435 1.94612 7.31208Z" fill="#C7A576" fill-opacity="0.0588235"/>
<path d="M1.95816 7.14291L2.11599 7.12891L2.12969 7.14055C2.11781 7.20165 2.0538 7.23932 2.05165 7.29568C2.01305 7.29989 1.98409 7.30512 1.94619 7.31242C1.94217 7.31469 1.91739 7.31813 1.91099 7.31918L1.90516 7.34385L1.92697 7.35727L1.90614 7.35917C1.86537 7.31691 1.87807 7.22279 1.89688 7.17232C1.90359 7.15435 1.93855 7.14918 1.95816 7.14291Z" fill="#C7A576" fill-opacity="0.105882"/>
<path d="M10.0113 5.59326L10.0317 5.59834C10.1086 5.59947 10.1854 5.60123 10.2622 5.60366C10.2802 5.69296 10.2824 5.78671 10.2872 5.87787C10.3409 5.87948 10.4703 5.8807 10.5181 5.88904C10.35 5.90107 10.1824 5.87785 10.0108 5.88007C10.0093 5.78515 10.0064 5.68788 10.0113 5.59326Z" fill="#CAAA7C" fill-opacity="0.764706"/>
<path d="M0.967658 6.24167C1.0289 6.23975 1.20171 6.22422 1.24712 6.24536C1.29434 6.31536 1.26375 6.39817 1.26382 6.4901C1.23386 6.49005 1.14181 6.48644 1.12054 6.4971C1.0667 6.4963 1.01779 6.49244 0.964342 6.48823C0.958011 6.44252 0.965855 6.29527 0.967658 6.24167Z" fill="#C7A576" fill-opacity="0.858824"/>
<path d="M12.1016 6.21191C12.1087 6.25345 12.1061 6.44115 12.0979 6.48262C12.064 6.47853 12.0736 6.48065 12.0509 6.48907C11.9945 6.50992 11.874 6.50199 11.8156 6.49725C11.8063 6.43175 11.7789 6.30098 11.8253 6.25198C11.9071 6.21588 12.0299 6.28477 12.1016 6.21191Z" fill="#CAAA7C" fill-opacity="0.854902"/>
<path d="M6.0813 11.592L6.10062 11.5922C6.14625 11.5027 6.08805 11.3529 6.1625 11.2967C6.20621 11.2917 6.23692 11.2911 6.28029 11.2938C6.28753 11.2942 6.31963 11.2596 6.34466 11.2624C6.36909 11.3232 6.36048 11.51 6.35933 11.5814C6.29395 11.6158 6.22229 11.5962 6.15158 11.6039C6.12623 11.6066 6.1225 11.6193 6.08371 11.6237L6.0813 11.592Z" fill="#C4A070" fill-opacity="0.862745"/>
<path d="M7.29745 2.88732C7.37627 2.86351 7.46245 2.86891 7.54021 2.84128C7.55745 2.83516 7.56453 2.84185 7.58629 2.8485C7.59254 2.95027 7.59103 3.03791 7.58912 3.14004C7.56448 3.0629 7.58403 2.97529 7.55909 2.88405L7.54814 2.88101C7.52105 2.99632 7.52063 3.05053 7.52384 3.16529C7.47282 3.16545 7.4059 3.16366 7.35629 3.16681C7.33344 3.16861 7.325 3.17161 7.30532 3.15983C7.28535 3.08141 7.2957 2.97222 7.29745 2.88732Z" fill="#C4A070" fill-opacity="0.85098"/>
<path d="M7.60346 3.49278C7.67865 3.46561 7.77017 3.48683 7.87266 3.45557L7.89528 3.47457L7.89246 3.67812C7.86044 3.625 7.89711 3.54879 7.8674 3.49666C7.8091 3.52088 7.82681 3.72155 7.84201 3.77322C7.7521 3.78245 7.68801 3.77661 7.59814 3.77099C7.6064 3.71477 7.60326 3.55675 7.60346 3.49278Z" fill="#C7A576" fill-opacity="0.827451"/>
<path d="M6.69278 11.8979C6.76404 11.9025 6.83519 11.9089 6.90614 11.9169C6.91578 11.9843 6.91998 12.1735 6.96586 12.2106L6.96449 12.2305L6.91733 12.2128L6.68731 12.2138L6.6814 12.2129C6.69113 12.1698 6.69044 11.9559 6.69278 11.8979Z" fill="#C4A070" fill-opacity="0.870588"/>
<path d="M4.88699 4.07869C4.95163 4.07541 5.10197 4.08737 5.16965 4.09155L5.16317 4.36201C5.12202 4.35853 4.95908 4.35282 4.93875 4.34224L4.92835 4.28576L4.90681 4.27629L4.88384 4.29338C4.87719 4.237 4.88444 4.13844 4.88699 4.07869Z" fill="#C5A271" fill-opacity="0.886275"/>
<path d="M7.29837 10.3946C7.29227 10.348 7.29401 10.1379 7.30564 10.0942L7.31549 10.1089C7.36244 10.1284 7.46826 10.1223 7.52374 10.1222C7.50599 10.2423 7.48816 10.2841 7.54908 10.3932L7.56343 10.391C7.56839 10.3408 7.57353 10.1966 7.58726 10.1611C7.58874 10.2359 7.58818 10.3303 7.59369 10.4031C7.5196 10.4536 7.37587 10.4338 7.29837 10.3946Z" fill="#C7A576" fill-opacity="0.690196"/>
<path d="M6.99146 10.9697C7.03419 10.9944 7.16968 11.0021 7.21984 11.0007C7.2193 11.0788 7.21595 11.1947 7.23526 11.2671C7.25227 11.2806 7.24949 11.2819 7.26882 11.2858L7.27159 11.3204L7.25462 11.3312L7.24619 11.3278C7.16513 11.2947 7.07924 11.2921 6.99186 11.2794L6.99146 10.9697Z" fill="#CAAA7C" fill-opacity="0.764706"/>
<path d="M2.46194 5.59194C2.5666 5.59332 2.66378 5.59497 2.76866 5.58887C2.7571 5.62342 2.75723 5.60924 2.76641 5.6428C2.75946 5.66948 2.75199 5.69603 2.744 5.72242L2.72173 5.72315C2.67418 5.72374 2.69312 5.71891 2.64917 5.74758C2.62628 5.78355 2.6227 5.78895 2.62453 5.83319L2.64366 5.84512L2.65447 5.84007C2.72679 5.84907 2.70847 5.83725 2.75799 5.87838C2.69217 5.87946 2.54432 5.87856 2.48655 5.88884C2.42617 5.89598 2.39272 5.89342 2.33154 5.88999C2.3672 5.8833 2.41523 5.87828 2.4522 5.87331C2.45993 5.79166 2.47732 5.66809 2.46194 5.59194Z" fill="#CAAA7C" fill-opacity="0.631373"/>
<path d="M10.5916 5.93457C10.6944 5.94336 10.9414 5.91159 10.9037 6.08017C10.8943 6.12232 10.888 6.14887 10.8614 6.18398C10.7725 6.1843 10.6835 6.18534 10.5945 6.18712C10.5944 6.10292 10.5934 6.01874 10.5916 5.93457Z" fill="#CAAA7C" fill-opacity="0.905882"/>
<path d="M6.94289 1.05807L6.96411 1.05273L6.96469 1.06391L6.93 1.07811C6.9125 1.13254 6.90125 1.31453 6.92517 1.36783C6.85003 1.36654 6.75565 1.35818 6.68457 1.37233C6.69099 1.26931 6.68146 1.1732 6.69262 1.06628C6.75874 1.05448 6.85629 1.07109 6.94289 1.05807Z" fill="#C4A070" fill-opacity="0.878431"/>
<path d="M9.38965 7.70479C9.45875 7.69411 9.54693 7.69776 9.61824 7.6983C9.57365 7.70765 9.49162 7.71346 9.46564 7.73322C9.5201 7.77755 9.63393 7.72867 9.67094 7.75899L9.64291 7.76998C9.632 7.80971 9.63148 7.79308 9.64583 7.83279C9.66473 7.83571 9.65867 7.83859 9.67112 7.83183L9.67293 7.95219C9.62502 8.02251 9.48075 7.98444 9.40407 7.98804C9.3907 7.9167 9.39784 7.79193 9.38965 7.70479Z" fill="#C5A271" fill-opacity="0.254902"/>
<path d="M6.99255 1.71418C7.07731 1.68551 7.18733 1.67545 7.27648 1.68317L7.27702 1.84827C7.27614 1.8825 7.27625 1.94732 7.27216 1.97867C7.24868 1.88274 7.26024 1.79815 7.23609 1.69699C7.22557 1.77329 7.21042 1.86127 7.20085 1.93821C7.20085 1.93821 7.22396 1.97423 7.22629 1.97787C7.16985 1.97547 7.08724 1.9782 7.02898 1.97849C7.04078 1.92193 7.02025 1.9061 6.99237 1.85241C6.99086 1.80903 6.99234 1.75824 6.99255 1.71418Z" fill="#C5A271" fill-opacity="0.658824"/>
<path d="M2.32056 7.08553C2.44654 7.08116 2.68232 7.10387 2.77997 7.09231C2.75705 7.16605 2.75937 7.25996 2.757 7.33858C2.69547 7.30259 2.57401 7.31136 2.50701 7.32586L2.4833 7.34593L2.48566 7.37377L2.43655 7.36319C2.46166 7.3047 2.50907 7.152 2.47209 7.09999L2.40989 7.09648L2.32056 7.08553Z" fill="#CAAA7C" fill-opacity="0.760784"/>
<path d="M5.80367 1.98143C5.84105 1.96499 6.01457 1.97658 6.05761 1.99728C6.05694 2.08905 6.05808 2.1885 6.05398 2.27954C6.0716 2.2803 5.80868 2.22819 5.82243 2.23328L5.80103 2.25361C5.80567 2.16866 5.80353 2.06775 5.80367 1.98143Z" fill="#CAAA7C" fill-opacity="0.670588"/>
<path d="M4.26923 4.96069C4.2717 4.87699 4.25771 4.76841 4.28761 4.69754C4.32138 4.6697 4.31983 4.6799 4.3777 4.68367C4.41718 4.68552 4.47452 4.68637 4.51119 4.69555C4.52732 4.74589 4.52708 4.91862 4.50762 4.96596C4.42581 4.96894 4.35001 4.97503 4.26923 4.96069Z" fill="#CAAA7C" fill-opacity="0.788235"/>
<path d="M6.42804 0.759482C6.45651 0.751891 6.48419 0.744115 6.51308 0.738252C6.43991 0.71661 6.44208 0.758892 6.3856 0.728423L6.39231 0.71468L6.43715 0.702684C6.24752 0.539519 6.5562 0.423969 6.67161 0.550083C6.68988 0.570039 6.67273 0.72116 6.67406 0.763409C6.59059 0.764433 6.51143 0.762111 6.42804 0.759482Z" fill="#C4A070" fill-opacity="0.0784314"/>
<path d="M7.02894 1.97865C7.0872 1.97836 7.16981 1.97563 7.22625 1.97803L7.23658 1.97806C7.25027 2.08631 7.22915 2.15877 7.22244 2.26345C7.13265 2.25471 7.0792 2.25858 6.98901 2.26379C6.99027 2.17656 6.99341 2.08176 6.99045 1.99526L7.02894 1.97865Z" fill="#C4A070" fill-opacity="0.843137"/>
<path d="M1.59492 6.79191C1.6832 6.78307 1.76652 6.78852 1.85506 6.79187C1.85332 6.85377 1.85268 6.98598 1.8437 7.04161C1.7788 7.00606 1.62913 6.98306 1.56888 7.03285C1.56479 7.04749 1.56138 7.05508 1.56105 7.07024L1.5293 7.05177C1.54039 6.94425 1.56208 6.89592 1.59183 6.8018L1.59492 6.79191Z" fill="#C7A576" fill-opacity="0.741176"/>
<path d="M7.59521 9.81454C7.59562 9.75694 7.59334 9.54054 7.60462 9.49756C7.66498 9.52013 7.75919 9.51109 7.82708 9.51288C7.82313 9.56799 7.80258 9.72378 7.83391 9.77123C7.84261 9.7844 7.86477 9.78558 7.88342 9.79011L7.88551 9.8031C7.82864 9.80263 7.64884 9.79571 7.6058 9.81203L7.59521 9.81454Z" fill="#C4A070" fill-opacity="0.72549"/>
<path d="M4.88729 3.80518C4.94162 3.81419 5.08137 3.82054 5.10808 3.85574C5.13724 3.89417 5.11644 3.96712 5.14643 4.00353C5.16559 3.98723 5.16769 3.9747 5.17725 3.95047L5.16962 4.09139C5.10195 4.08721 4.95161 4.07526 4.88696 4.07853C4.90345 4.04137 4.88957 3.85808 4.88729 3.80518Z" fill="#C8A577" fill-opacity="0.317647"/>
<path d="M5.49863 9.82454C5.58325 9.78765 5.67868 9.81617 5.77282 9.79785L5.72765 9.82505C5.71139 9.89597 5.79676 9.97234 5.69434 10.0515C5.64582 10.089 5.59149 10.0575 5.54498 10.1032L5.54442 10.1236L5.51965 10.1343L5.49341 10.1236C5.50124 10.0272 5.49195 9.92582 5.49863 9.82454Z" fill="#C7A576" fill-opacity="0.74902"/>
<path d="M11.2009 6.82568C11.4039 6.84247 11.4758 6.81291 11.5007 7.06929L11.3437 7.0821L11.2184 7.07897C11.1969 6.99442 11.2016 6.91252 11.2009 6.82568Z" fill="#CAAA7C" fill-opacity="0.709804"/>
<path d="M8.17808 8.88499C8.17495 8.8101 8.18532 8.70203 8.18461 8.61684L8.42372 8.61572C8.39866 8.71331 8.38759 8.72149 8.42621 8.83091L8.44861 8.83883L8.45695 8.83423L8.46001 8.86234C8.41684 8.89605 8.22175 8.87073 8.17808 8.88499Z" fill="#C5A271" fill-opacity="0.529412"/>
<path d="M11.193 5.89111L11.203 5.89144C11.2159 5.94433 11.2326 5.98381 11.2947 5.97236C11.5646 5.9227 11.4101 6.05487 11.4897 6.19461L11.5258 6.19446L11.417 6.19339C11.3598 6.18175 11.2537 6.18308 11.1919 6.1819L11.193 5.89111Z" fill="#CAAA7C" fill-opacity="0.580392"/>
<path d="M9.69531 7.68329C9.70391 7.60158 9.68785 7.44312 9.72176 7.39795L9.7751 7.40148L9.75892 7.42099C9.80574 7.46668 9.87336 7.42215 9.94347 7.44661C9.99069 7.49478 9.98158 7.52606 9.98094 7.59894L9.98087 7.60604L9.96005 7.57288C9.89751 7.63726 9.80339 7.63488 9.71931 7.6395C9.81923 7.66314 9.88861 7.66265 9.99151 7.6659L9.99113 7.68315C9.89349 7.68632 9.79239 7.69176 9.69531 7.68329Z" fill="#CAAA7C" fill-opacity="0.678431"/>
<path d="M6.06939 11.2954C6.08838 11.4075 6.07625 11.4854 6.08121 11.5919L6.08362 11.6236C6.08308 11.6816 6.06883 11.868 6.08747 11.9036C6.14279 11.9335 6.29499 11.9217 6.34374 11.8859L6.36007 11.8935L6.35888 11.9634L6.34 11.9426C6.34589 11.9379 6.21292 12.1189 6.21178 12.1209L6.21377 12.1073C6.20273 12.1341 6.19831 12.14 6.19826 12.1682C6.17369 12.1856 6.16954 12.1839 6.1382 12.1858L6.13147 12.2085L6.06429 12.252C6.0587 12.2152 6.05178 12.197 6.0676 12.164L6.07504 12.1887L6.09949 12.1917L6.13325 12.1627L6.13138 12.1481C6.12448 12.1168 6.1228 12.1089 6.10852 12.0803L6.0676 12.164C6.0709 11.8789 6.05903 11.5776 6.06939 11.2954Z" fill="#C5A271" fill-opacity="0.403922"/>
<path d="M5.80103 2.25359L5.82243 2.23326C5.80868 2.22817 6.0716 2.28028 6.05398 2.27952C6.05588 2.33433 6.07085 2.52987 6.04068 2.5663L6.01828 2.56244C5.77256 2.54502 5.89053 2.41926 5.839 2.2798L5.80219 2.27457L5.80103 2.25359Z" fill="#C5A271" fill-opacity="0.862745"/>
<path d="M7.90493 9.18164C7.98085 9.19748 8.03931 9.19365 8.1163 9.1925C8.14674 9.20302 8.132 9.20305 8.16197 9.19332L8.16496 9.22621C8.16299 9.34822 8.19256 9.46204 8.02073 9.46684C8.00311 9.46732 7.98724 9.46014 7.9716 9.45252C7.94327 9.39547 7.957 9.32432 7.92761 9.29457C7.9204 9.32674 7.90883 9.3861 7.89913 9.41508C7.89707 9.34643 7.90262 9.25199 7.90493 9.18164Z" fill="#C5A271" fill-opacity="0.160784"/>
<path d="M6.99151 10.9696L6.99072 10.7241C7.0664 10.7255 7.14447 10.726 7.2199 10.7288C7.22442 10.8051 7.22764 10.9271 7.23674 10.9994L7.2199 11.0006C7.16974 11.002 7.03424 10.9944 6.99151 10.9696Z" fill="#C5A271" fill-opacity="0.886275"/>
<path d="M7.00441 11.5859C7.07418 11.6348 7.19507 11.648 7.27649 11.6261C7.28759 11.7284 7.22009 11.888 7.10789 11.9026C7.06328 11.8896 7.07995 11.8984 7.04425 11.8601C7.03721 11.8147 7.03285 11.6812 7.01328 11.6577C7.00111 11.6756 6.99421 11.6857 6.98438 11.7049L6.99418 11.6097L7.00441 11.5859Z" fill="#C5A271" fill-opacity="0.113725"/>
<path d="M6.05802 10.4205C6.04538 10.4994 6.05268 10.6163 6.05517 10.6994C5.99073 10.7216 5.92254 10.7161 5.85411 10.7153C5.87614 10.6634 5.85211 10.4825 5.8418 10.4207C5.9192 10.4163 5.98082 10.418 6.05802 10.4205Z" fill="#C7A576" fill-opacity="0.815686"/>
<path d="M5.80176 1.83204C5.8296 1.75631 5.80265 1.73838 5.82722 1.69605C5.92191 1.69033 5.98899 1.78592 6.03354 1.85527L6.04678 1.84661L6.06494 1.75738C6.06319 1.83743 6.06075 1.91746 6.05763 1.99747C6.01459 1.97678 5.84108 1.96519 5.80369 1.98163C5.81589 1.92085 5.80978 1.89423 5.80176 1.83204Z" fill="#C7A576" fill-opacity="0.278431"/>
<path d="M3.67116 7.7053C3.76136 7.69885 3.81924 7.70196 3.90981 7.70699L3.88863 7.7235C3.91624 7.79332 3.89479 7.89443 3.92516 7.94142L3.94642 7.9499L3.94499 7.96087L3.93934 7.95936C3.87106 7.94043 3.81685 7.89994 3.73766 7.9188C3.70056 7.94673 3.71049 7.93191 3.69772 7.97355C3.70576 7.97824 3.71972 7.9871 3.72774 7.99013L3.68454 8.00078L3.66951 7.99369L3.66711 7.98961L3.66285 7.93902C3.66579 7.89294 3.66384 7.85702 3.66168 7.8109L3.65894 7.73143L3.67116 7.7053Z" fill="#C7A576" fill-opacity="0.772549"/>
<path d="M10.0621 7.41399L10.0803 7.43368C10.0989 7.42344 10.251 7.3944 10.2591 7.42583C10.2797 7.50533 10.249 7.59567 10.2827 7.67399L10.2737 7.69303C10.2599 7.69533 10.0325 7.6838 9.99097 7.68343L9.99135 7.66618L10.0024 7.6648C10.0464 7.65789 10.0826 7.67513 10.1264 7.65099C10.115 7.6186 10.1106 7.62304 10.0802 7.59998L10.0246 7.61371C10.0191 7.59827 10.0581 7.50941 10.0393 7.42915L10.0379 7.42347L10.0621 7.41399Z" fill="#C7A576" fill-opacity="0.027451"/>
<path d="M4.93699 9.17909L4.98094 9.16028C5.00787 9.07424 4.92683 8.96816 4.9375 8.9099C5.00604 8.88926 5.08532 8.9097 5.16638 8.8877C5.1655 8.94456 5.17108 9.13235 5.16265 9.16986C5.09996 9.1985 5.00871 9.18352 4.93699 9.17909Z" fill="#C4A070" fill-opacity="0.392157"/>
<path d="M1.37635 6.7832C1.45192 6.78443 1.5194 6.78639 1.59495 6.79158L1.59186 6.80147C1.56211 6.8956 1.54042 6.94393 1.52933 7.05144L1.56108 7.06991L1.84204 7.06804L1.86839 7.08204C1.72134 7.08365 1.43119 7.064 1.30608 7.08256L1.28735 7.0644C1.32835 6.87653 1.43876 6.91391 1.46924 6.81743L1.45774 6.79837L1.37635 6.7832Z" fill="#C9AB6C" fill-opacity="0.513725"/>
<path d="M6.67896 0.775109L6.97524 0.770996C6.98204 0.880783 6.97247 0.981804 6.97944 1.08785L6.96457 1.06385L6.96399 1.05268C6.95487 0.998254 6.96339 0.830995 6.92926 0.804907C6.90912 0.849183 6.83808 0.875487 6.82538 0.968024C6.82142 0.996909 6.80673 0.99101 6.81052 1.05172C6.76471 1.04729 6.73252 1.05115 6.68691 1.05492C6.68747 0.961585 6.68481 0.86826 6.67896 0.775109Z" fill="#C5A271" fill-opacity="0.627451"/>
<path d="M11.8175 6.77832L11.9023 6.77986C11.8312 6.79179 11.733 6.812 11.6634 6.81255C11.8119 6.83577 11.8005 6.87803 11.8018 7.01977C11.8026 7.1043 11.4048 7.08901 11.3438 7.08226L11.5007 7.06945L11.5264 7.06216C11.5842 7.0599 11.6315 7.05778 11.6894 7.0506L11.6901 7.0367L11.6301 6.98557C11.6188 6.87252 11.5434 6.85938 11.5524 6.79326L11.655 6.78063L11.8175 6.77832Z" fill="#CAAA7C" fill-opacity="0.266667"/>
<path d="M7.90718 4.11022C7.95465 4.08517 8.05984 4.09263 8.15163 4.06104L8.14811 4.07416C8.0811 4.14 8.09275 4.26104 8.10945 4.34829C8.05136 4.36228 7.98645 4.34785 7.9021 4.36736C7.90593 4.2849 7.90567 4.19349 7.90718 4.11022Z" fill="#C7A576" fill-opacity="0.87451"/>
<path d="M8.78784 8.00634C8.88026 8.00479 8.99497 7.99886 9.08388 8.01413C9.08392 8.07532 9.09339 8.25202 9.0686 8.29543C9.02688 8.2921 8.8994 8.28203 8.87371 8.25321C9.01492 8.20573 9.02857 8.2561 9.02537 8.06779C9.00324 8.05213 8.89891 8.06847 8.86175 8.07163C8.84544 8.10978 8.85411 8.21364 8.8548 8.26137C8.87498 8.28049 8.88254 8.28572 8.90573 8.30126C8.86321 8.2987 8.83306 8.29865 8.79046 8.29994C8.78911 8.19772 8.80299 8.10846 8.78784 8.00634Z" fill="#C5A271" fill-opacity="0.737255"/>
<path d="M1.29834 6.07493C1.30567 5.90557 1.43003 5.93226 1.54928 5.89648C1.57307 6.00847 1.54298 6.05971 1.551 6.1567C1.4341 6.13767 1.37408 6.19084 1.29834 6.07493Z" fill="#C9AB6C" fill-opacity="0.0784314"/>
<path d="M7.60229 3.4102L7.62638 3.43227C7.65871 3.41046 7.67033 3.32919 7.68257 3.2827C7.68812 3.2938 7.69377 3.30488 7.6995 3.31588C7.72874 3.28187 7.69557 3.25257 7.7277 3.20605C7.95698 3.23124 7.83707 3.29205 7.87267 3.45552C7.77018 3.48679 7.67866 3.46556 7.60348 3.49273L7.60229 3.4102Z" fill="#C4A070" fill-opacity="0.439216"/>
<path d="M7.60571 9.81206C7.64875 9.79573 7.82855 9.80265 7.88542 9.80312C7.8802 9.97573 7.8619 9.89006 7.79991 10.048C7.75524 10.0487 7.70422 10.0548 7.66754 10.032C7.61675 9.97621 7.67442 9.89717 7.60571 9.81206Z" fill="#C4A070" fill-opacity="0.176471"/>
<path d="M0.683627 6.48926C0.761312 6.53835 0.826616 6.51618 0.919076 6.50266C0.914015 6.57702 0.910679 6.68408 0.859361 6.73618L0.898601 6.75241C0.858128 6.74949 0.769793 6.73743 0.740218 6.76222L0.676758 6.7696C0.697105 6.69181 0.686877 6.57322 0.683627 6.48926Z" fill="#C5A271" fill-opacity="0.752941"/>
<path d="M7.30151 2.54019L7.32833 2.52873C7.33332 2.4711 7.42019 2.33843 7.47959 2.33008C7.58684 2.35659 7.59899 2.51695 7.59184 2.608C7.53253 2.50991 7.40177 2.59262 7.30786 2.58106L7.30151 2.54019Z" fill="#C7A576" fill-opacity="0.278431"/>
<path d="M5.49857 3.02901C5.50578 2.9926 5.51344 2.90817 5.5319 2.8877C5.64905 2.97447 5.70335 2.88662 5.74746 2.99209C5.74435 3.04692 5.73496 3.06086 5.70973 3.11021C5.63161 3.14837 5.58575 3.10212 5.54137 3.16301C5.49947 3.17408 5.51068 3.16535 5.48635 3.19218L5.48462 3.17945C5.49474 3.1434 5.49635 3.06962 5.49857 3.02901Z" fill="#C7A576" fill-opacity="0.717647"/>
<path d="M7.91811 3.81633C7.95964 3.77617 8.09143 3.78196 8.15824 3.77832C8.16046 3.84643 8.16878 3.98438 8.15316 4.04678C8.1487 3.99263 8.14578 3.93848 8.13365 3.88555L8.12228 3.88836C8.03446 4.15102 8.12108 4.02287 7.91421 4.08621L7.90967 4.06417C7.91815 4.06244 7.93058 4.05636 7.93902 4.05273C7.95004 4.00597 7.99532 3.85801 7.98202 3.82796C7.95933 3.8252 7.94047 3.82104 7.91811 3.81633Z" fill="#C7A578" fill-opacity="0.380392"/>
<path d="M7.2876 2.23975C7.29421 2.27141 7.30075 2.30839 7.3104 2.33883C7.317 2.31516 7.32012 2.3026 7.32386 2.27834C7.3951 2.23782 7.51403 2.2667 7.59347 2.28155C7.60513 2.39128 7.61712 2.6939 7.59118 2.79614C7.58699 2.72141 7.58642 2.68404 7.59173 2.60841C7.59887 2.51735 7.58672 2.35699 7.47947 2.33048C7.42007 2.33883 7.3332 2.4715 7.32821 2.52914L7.3014 2.54059C7.29947 2.50161 7.29273 2.45163 7.28847 2.41187L7.2876 2.23975Z" fill="#C7A576" fill-opacity="0.180392"/>
<path d="M5.49344 10.1235L5.51968 10.1342L5.54445 10.1235C5.54558 10.1792 5.53689 10.2785 5.56443 10.3163C5.61143 10.3233 5.65806 10.2999 5.67256 10.252C5.67205 10.2874 5.66965 10.2939 5.68491 10.3244L5.70592 10.3164C5.73872 10.2571 5.7367 10.215 5.74068 10.1482L5.77132 10.1113L5.78889 10.2072C5.78966 10.2611 5.7943 10.3536 5.78389 10.4033C5.77883 10.3542 5.77476 10.3244 5.76407 10.2763C5.75942 10.3403 5.76986 10.3505 5.73657 10.3913C5.68386 10.4153 5.56866 10.4067 5.50403 10.4065C5.49226 10.2938 5.48993 10.2366 5.49344 10.1235Z" fill="#C4A070" fill-opacity="0.196078"/>
<path d="M3.96626 4.97502C4.01004 4.95497 4.08378 4.97146 4.1397 4.9765C4.07021 4.98778 4.0438 4.98809 3.9731 4.98613C3.93683 5.06587 3.89314 5.09729 3.8581 5.16528C3.84151 5.19745 3.94535 5.23849 3.8366 5.27696C3.7815 5.28027 3.74108 5.27805 3.68579 5.2751L3.74726 5.25748C3.57966 5.05174 3.87705 5.08368 3.96626 4.97502Z" fill="#C7A576" fill-opacity="0.258824"/>
<path d="M7.90502 9.18181C7.90076 9.09619 7.90351 8.98299 7.90295 8.89512C7.97868 8.89158 8.09897 8.88749 8.17218 8.90056L8.16217 9.1804C7.99308 9.1521 8.1515 8.99719 8.09941 8.92628C8.00553 8.95165 7.88899 8.94471 7.90675 9.06325C7.96509 9.15031 8.01497 9.16638 8.11639 9.19266C8.0394 9.19382 7.98094 9.19765 7.90502 9.18181Z" fill="#C4A070" fill-opacity="0.8"/>
<path d="M9.69216 5.29053L9.71114 5.29401C9.7725 5.31236 9.87858 5.34853 9.92519 5.39279L9.92963 5.41954C9.88102 5.47941 9.74677 5.47528 9.73826 5.53627C9.76261 5.5688 9.81755 5.57357 9.85923 5.58197C9.80181 5.58369 9.74418 5.58012 9.68677 5.57748C9.6895 5.48185 9.6913 5.38619 9.69216 5.29053Z" fill="#C9AB6C" fill-opacity="0.152941"/>
<path d="M9.71118 5.29389C9.80285 5.28765 9.88991 5.27129 9.96883 5.31961C10.0201 5.39846 9.93671 5.5182 9.97703 5.58025C9.94504 5.58502 9.8935 5.58244 9.85927 5.58185C9.81759 5.57345 9.76265 5.56868 9.7383 5.53615C9.7468 5.47516 9.88106 5.47929 9.92967 5.41942L9.92523 5.39267C9.87862 5.34841 9.77254 5.31224 9.71118 5.29389Z" fill="#C4A070" fill-opacity="0.0705882"/>
<path d="M6.9854 1.36328C7.00515 1.45049 7.00108 1.53806 7.01783 1.62827L7.02724 1.62124C7.0632 1.5649 7.14439 1.51286 7.21247 1.51189C7.24022 1.53943 7.2583 1.5902 7.27465 1.62764L7.2766 1.6831C7.18745 1.67538 7.07743 1.68544 6.99267 1.71412C6.9842 1.60381 6.98038 1.47275 6.9854 1.36328Z" fill="#C7A576" fill-opacity="0.270588"/>
<path d="M2.15674 7.3619C2.22428 7.18048 2.22556 7.15522 2.41397 7.12012C2.40063 7.19493 2.39976 7.21688 2.40323 7.29293C2.3466 7.30697 2.22704 7.31092 2.19774 7.33247C2.27201 7.37382 2.35579 7.35621 2.43649 7.3629L2.4856 7.37349C2.55844 7.37405 2.68533 7.37904 2.75385 7.37428L2.78575 7.39354C2.72692 7.38476 2.42364 7.38083 2.34146 7.37706C2.2827 7.36972 2.21633 7.36632 2.15674 7.3619Z" fill="#CAAA7C" fill-opacity="0.482353"/>
<path d="M5.79013 2.7417C5.78854 2.89654 5.77582 3.02681 5.77789 3.18932C5.714 3.16128 5.61396 3.16516 5.54136 3.16303C5.58574 3.10214 5.6316 3.14839 5.70973 3.11023C5.73495 3.06088 5.74435 3.04695 5.74746 2.99211C5.70334 2.88664 5.64904 2.97449 5.53189 2.88772C5.51343 2.9082 5.50578 2.99262 5.49856 3.02903L5.49463 2.85599C5.55468 2.81845 5.69787 2.90544 5.77196 2.85057L5.77523 2.80567L5.79013 2.7417Z" fill="#C7A576" fill-opacity="0.654902"/>
<path d="M10.5359 7.09581L10.6675 7.08838L10.6428 7.11626C10.6837 7.1742 10.8119 7.297 10.8094 7.35164C10.7718 7.37091 10.6631 7.36623 10.6186 7.36342C10.607 7.29393 10.5782 7.14344 10.5359 7.09581Z" fill="#C9AB6C" fill-opacity="0.486275"/>
<path d="M7.2867 11.2729L7.28729 11.5995L7.27637 11.6261C7.19494 11.648 7.07405 11.6347 7.00428 11.5859C7.00045 11.547 6.99767 11.535 7.00947 11.4963C7.04887 11.4711 7.07205 11.4994 7.11991 11.4872L7.13775 11.4519C7.18419 11.4511 7.21938 11.5419 7.24091 11.5829L7.26541 11.5753C7.27848 11.5455 7.26727 11.3824 7.27162 11.3203L7.26885 11.2857L7.2867 11.2729Z" fill="#CAAA7C" fill-opacity="0.466667"/>
<path d="M2.79485 7.46681L3.01938 7.42529L3.01889 7.43516C3.00693 7.64554 2.91911 7.56704 2.80215 7.63409L2.80774 7.65103C2.84113 7.65969 3.01936 7.6793 3.0672 7.68569L3.07529 7.69202C3.01767 7.6893 2.9469 7.68789 2.8908 7.68207C2.82157 7.67488 2.81487 7.6884 2.77905 7.64622C2.79086 7.60795 2.7926 7.50982 2.79485 7.46681Z" fill="#CAAA7C" fill-opacity="0.145098"/>
<path d="M4.54994 8.31299L4.55381 8.32354C4.54185 8.32775 4.51437 8.33429 4.51114 8.34237C4.48514 8.40744 4.51273 8.52518 4.51707 8.59724C4.45962 8.59679 4.38032 8.59857 4.32477 8.59397C4.36125 8.58787 4.38616 8.58557 4.42008 8.56931C4.4427 8.51675 4.36038 8.49847 4.36157 8.38522L4.3208 8.34456L4.32216 8.32791C4.37865 8.31102 4.46487 8.32515 4.53897 8.31461L4.54994 8.31299Z" fill="#C4A070" fill-opacity="0.054902"/>
<path d="M8.11648 9.19266C8.01505 9.16638 7.96517 9.1503 7.90684 9.06324C7.88908 8.9447 8.00562 8.95165 8.0995 8.92627C8.15159 8.99719 7.99317 9.15209 8.16226 9.18039L8.16215 9.19348C8.13218 9.20321 8.14692 9.20318 8.11648 9.19266Z" fill="#C4A070" fill-opacity="0.756863"/>
<path d="M5.86564 10.9551C5.88582 10.8933 5.90732 10.9193 5.9384 10.8755C5.96876 10.8328 5.97328 10.7602 6.017 10.731C6.05139 10.7539 6.04196 10.7573 6.05421 10.811C6.05929 10.9058 6.07111 11.0504 6.06655 11.1413C6.05736 11.1091 6.0454 10.9764 6.03609 10.9263L6.02743 10.9311L6.01803 10.9841C5.95317 10.9945 5.87858 11.0024 5.82242 11.0366L5.80103 11.0177L5.80186 10.9849L5.86564 10.9551ZM5.91814 10.9646C6.01362 10.9337 6.03081 10.8726 5.99618 10.7741C5.99882 10.835 5.95963 10.9203 5.91782 10.9634L5.91814 10.9646Z" fill="#C7A576" fill-opacity="0.34902"/>
<path d="M5.99632 10.7739C6.03096 10.8724 6.01377 10.9335 5.91829 10.9644L5.91797 10.9632C5.95977 10.9201 5.99897 10.8348 5.99632 10.7739Z" fill="#C7A576" fill-opacity="0.368627"/>
<path d="M5.25321 9.51224C5.32445 9.51018 5.35977 9.51093 5.43132 9.51781C5.33868 9.58235 5.38495 9.62651 5.34929 9.72305L5.38095 9.75593C5.34074 9.79048 5.26782 9.75765 5.19928 9.78103L5.18823 9.67724C5.20371 9.70171 5.20538 9.70804 5.22924 9.72276C5.25011 9.69148 5.24828 9.5678 5.25321 9.51224Z" fill="#C7A576" fill-opacity="0.286275"/>
<path d="M5.19482 3.49721L5.37432 3.49512C5.46586 3.66102 5.45245 3.73609 5.24238 3.73965C5.268 3.70491 5.24575 3.62226 5.25475 3.5437C5.29937 3.54364 5.32543 3.55006 5.35801 3.52818C5.31271 3.4997 5.30311 3.50871 5.242 3.50529C5.17852 3.5508 5.23021 3.54185 5.19599 3.57614L5.19482 3.49721Z" fill="#CAAA7C" fill-opacity="0.65098"/>
<path d="M6.01803 10.9839C6.05594 11.0655 6.00259 11.1214 5.94746 11.1746L5.92136 11.1313L5.89694 11.1373L5.8814 11.1153C5.87586 11.1569 5.87461 11.1968 5.85149 11.2313C5.79769 11.2088 5.79826 11.0704 5.80103 11.0175L5.82242 11.0364C5.87859 11.0022 5.95317 10.9943 6.01803 10.9839Z" fill="#C4A070" fill-opacity="0.113725"/>
<path d="M7.59448 3.16211L7.6127 3.18609C7.68505 3.16243 7.81588 3.17635 7.89483 3.18125C7.89541 3.23834 7.88642 3.42946 7.89515 3.47472L7.87252 3.45571C7.83692 3.29225 7.95683 3.23144 7.72755 3.20625C7.69542 3.25277 7.7286 3.28207 7.69936 3.31608C7.69362 3.30507 7.68797 3.294 7.68242 3.28289C7.67018 3.32938 7.65857 3.41066 7.62623 3.43247L7.60215 3.41039C7.60055 3.32761 7.598 3.24483 7.59448 3.16211Z" fill="#C7A576" fill-opacity="0.333333"/>
<path d="M8.6003 8.59451C8.54166 8.55334 8.56274 8.57332 8.53996 8.48943C8.52953 8.45098 8.52774 8.41372 8.5494 8.3792C8.58767 8.3596 8.6501 8.36866 8.71111 8.35592L8.72233 8.35352C8.70663 8.42211 8.7123 8.48979 8.67863 8.53158L8.60361 8.56277C8.62437 8.58193 8.72231 8.58009 8.77061 8.59327C8.71417 8.60455 8.65779 8.59808 8.6003 8.59451Z" fill="#C4A070" fill-opacity="0.576471"/>
<path d="M5.5452 10.1033C5.60196 10.1043 5.72823 10.0929 5.77001 10.098L5.77151 10.1116L5.74087 10.1485C5.70459 10.1911 5.69497 10.2015 5.67275 10.2523C5.65825 10.3001 5.61162 10.3235 5.56462 10.3166C5.53707 10.2788 5.54577 10.1794 5.54464 10.1238L5.5452 10.1033Z" fill="#C4A070" fill-opacity="0.282353"/>
<path d="M3.66175 7.81082C3.66391 7.85694 3.66587 7.89286 3.66292 7.93894C3.59631 7.91708 3.50964 7.92015 3.44109 7.93282C3.4968 7.96139 3.60235 7.97872 3.66719 7.98953L3.66959 7.99361L3.59768 7.99436L3.5131 7.98286L3.50184 7.97389C3.46751 7.97261 3.45854 7.97243 3.42568 7.96294C3.41103 7.93606 3.42063 7.87011 3.42304 7.83591C3.45218 7.80002 3.49274 7.8223 3.55036 7.80273C3.59231 7.81275 3.61892 7.81102 3.66175 7.81082Z" fill="#C7A576" fill-opacity="0.160784"/>
<path d="M10.6676 7.08815L10.757 7.08691C10.7386 7.09339 10.716 7.10267 10.697 7.10429L10.686 7.12148C10.7444 7.14291 10.8055 7.13485 10.8495 7.1647C10.8392 7.25141 10.8215 7.2658 10.8637 7.34667C10.8369 7.37408 10.8074 7.37768 10.7704 7.38673C10.6743 7.38789 10.5783 7.38821 10.4822 7.38767C10.5274 7.38241 10.5739 7.37217 10.6187 7.36319C10.6631 7.366 10.7718 7.37068 10.8095 7.35141C10.812 7.29677 10.6838 7.17397 10.6429 7.11602L10.6676 7.08815Z" fill="#CAAA7C" fill-opacity="0.376471"/>
<path d="M2.96261 7.39014C3.00296 7.39064 3.05665 7.38893 3.09439 7.39909C3.08248 7.42774 3.06136 7.65947 3.0673 7.68563C3.01946 7.67925 2.84123 7.65963 2.80784 7.65097L2.80225 7.63404C2.91921 7.56698 3.00703 7.64549 3.01899 7.4351L3.01948 7.42524L3.03171 7.42995L3.04351 7.42165C3.02439 7.40522 2.98813 7.39764 2.96261 7.39014Z" fill="#C9AB6C" fill-opacity="0.215686"/>
<path d="M2.06885 7.08307C2.15292 7.08048 2.23632 7.08331 2.32039 7.08529L2.40973 7.09625L2.42701 7.11688L2.41387 7.12017C2.22546 7.15527 2.22417 7.18053 2.15664 7.36195C2.21623 7.36637 2.2826 7.36977 2.34135 7.37711C2.27484 7.38668 2.24111 7.38532 2.17529 7.38335L2.14892 7.38065C2.08721 7.28769 2.18388 7.19597 2.16632 7.11918C2.13764 7.08276 2.1294 7.09296 2.06885 7.08307Z" fill="#C9AB6C" fill-opacity="0.392157"/>
<path d="M5.48203 3.39795L5.49268 3.42998C5.46512 3.53378 5.47072 3.66925 5.47052 3.77913C5.39254 3.77567 5.31276 3.77123 5.23493 3.76891L5.24238 3.73961C5.45245 3.73604 5.46586 3.66097 5.37432 3.49507L5.19482 3.49716L5.19865 3.46041C5.26356 3.48171 5.39654 3.49414 5.45934 3.4616C5.47675 3.45259 5.47783 3.41854 5.48203 3.39795Z" fill="#CAAA7C" fill-opacity="0.568627"/>
<path d="M8.9059 8.30119C8.8827 8.28565 8.87515 8.28042 8.85496 8.2613C8.85428 8.21357 8.84561 8.10971 8.86192 8.07156C8.89908 8.0684 9.00341 8.05206 9.02554 8.06772C9.02874 8.25603 9.01509 8.20566 8.87388 8.25314C8.89956 8.28196 9.02705 8.29203 9.06876 8.29536L8.9059 8.30119Z" fill="#C5A271" fill-opacity="0.74902"/>
<path d="M7.88335 9.79038L7.89858 9.78711C7.8965 9.86115 7.89542 9.93785 7.89209 10.0116C7.80538 10.0957 7.7328 10.0996 7.61118 10.0772L7.58765 10.1086C7.5881 10.0106 7.5906 9.91269 7.59514 9.81481L7.60572 9.81231C7.67443 9.89742 7.61676 9.97646 7.66755 10.0323C7.70423 10.0551 7.75525 10.0489 7.79992 10.0483C7.86192 9.89031 7.88021 9.97598 7.88543 9.80337L7.88335 9.79038Z" fill="#C5A271" fill-opacity="0.145098"/>
<path d="M12.3737 6.43506C12.3987 6.56475 12.3909 6.66854 12.4087 6.76821C12.3314 6.77704 12.1764 6.7577 12.1231 6.76737C12.1252 6.74998 12.12 6.73069 12.1167 6.7131C12.1345 6.71941 12.1584 6.73014 12.1759 6.72824L12.1852 6.72348C12.268 6.68122 12.3351 6.70541 12.3424 6.57442C12.3445 6.53624 12.3627 6.47281 12.3737 6.43506Z" fill="#C9AB6C" fill-opacity="0.690196"/>
<path d="M3.09985 7.64615C3.12574 7.44151 3.25915 7.43892 3.3271 7.62746C3.28495 7.62888 3.1686 7.62934 3.13455 7.64058C3.2053 7.65769 3.28958 7.64803 3.31146 7.67998L3.13133 7.68528L3.10195 7.67468L3.09985 7.64615Z" fill="#CAAA7C" fill-opacity="0.709804"/>
<path d="M5.79084 2.54932L5.79019 2.74164L5.7753 2.80561L5.75979 2.81064L5.74043 2.78163L5.74158 2.74413C5.72287 2.60893 5.63317 2.63746 5.51844 2.63106L5.49292 2.6703C5.50855 2.45292 5.71518 2.61034 5.77883 2.59628C5.78041 2.57474 5.7839 2.56967 5.79084 2.54932Z" fill="#C5A271" fill-opacity="0.219608"/>
<path d="M7.02612 1.52164C7.02766 1.4817 7.01943 1.43441 7.05103 1.40449C7.11774 1.34133 7.20935 1.35956 7.26108 1.42876C7.31786 1.50475 7.30612 1.76145 7.27702 1.84836L7.27648 1.68326L7.27453 1.6278C7.2732 1.35847 7.16818 1.47789 7.03534 1.51886L7.02612 1.52164Z" fill="#C4A070" fill-opacity="0.168627"/>
<path d="M3.68158 4.97667C3.77579 4.97833 3.8725 4.98172 3.96627 4.9751C3.87706 5.08376 3.57967 5.05182 3.74728 5.25756L3.6858 5.27518L3.6626 5.28071L3.67305 5.26073C3.66722 5.19695 3.67778 5.04669 3.68158 4.97667Z" fill="#C7A576" fill-opacity="0.164706"/>
<path d="M4.27637 8.3177C4.3466 8.3028 4.48075 8.2987 4.54998 8.31326L4.53901 8.31488C4.46491 8.32542 4.37869 8.31129 4.3222 8.32817L4.32084 8.34483L4.3616 8.38549C4.36042 8.49874 4.44274 8.51702 4.42012 8.56958C4.38619 8.58584 4.36129 8.58814 4.32481 8.59424L4.29019 8.62111C4.27902 8.53796 4.29698 8.35669 4.27637 8.3177Z" fill="#C7A576" fill-opacity="0.376471"/>
<path d="M6.13135 12.2083L6.13808 12.1857C6.16942 12.1838 6.17357 12.1854 6.19814 12.1681C6.19819 12.1398 6.20261 12.1339 6.21365 12.1072L6.21166 12.1208C6.2128 12.1187 6.34577 11.9378 6.33988 11.9425L6.35876 11.9633C6.36149 12.0146 6.37281 12.1751 6.3666 12.2173C6.36117 12.1865 6.35734 12.1456 6.3414 12.1204C6.32736 12.1488 6.31589 12.1761 6.30348 12.2052C6.24812 12.2119 6.1875 12.2092 6.13135 12.2083Z" fill="#C5A271" fill-opacity="0.356863"/>
<path d="M11.5263 7.06187C11.53 7.00476 11.4662 6.87009 11.5003 6.79703L11.5523 6.79297C11.5433 6.85909 11.6186 6.87222 11.6299 6.98528L11.69 7.0364L11.6892 7.0503C11.6313 7.05749 11.5841 7.05961 11.5263 7.06187Z" fill="#C9AB6C" fill-opacity="0.364706"/>
<path d="M1.2357 6.79248L1.2791 6.80045C1.29423 6.87444 1.24451 6.98118 1.22641 7.05414C1.23856 7.06312 1.24912 7.07091 1.25811 7.07754C1.18129 7.08023 1.10112 7.0544 1.02588 7.03501C1.17758 6.9878 1.1726 6.96191 1.22236 6.81716L1.24782 6.81194L1.2357 6.79248Z" fill="#C7A576" fill-opacity="0.12549"/>
<path d="M5.49797 2.77529C5.509 2.73625 5.514 2.70975 5.52101 2.67012L5.53727 2.66553C5.54631 2.73045 5.53547 2.73889 5.57329 2.77311C5.65313 2.77434 5.65693 2.76092 5.74036 2.78154L5.75972 2.81055L5.77523 2.80552L5.77196 2.85042C5.69787 2.90529 5.55468 2.8183 5.49463 2.85584L5.49797 2.77529Z" fill="#C4A070" fill-opacity="0.345098"/>
<path d="M2.40984 7.09619L2.47204 7.0997C2.50902 7.15171 2.46161 7.30441 2.4365 7.36289C2.3558 7.3562 2.27202 7.37381 2.19775 7.33246C2.22705 7.31091 2.34661 7.30696 2.40324 7.29292C2.39977 7.21687 2.40064 7.19492 2.41398 7.12011L2.42712 7.11682L2.40984 7.09619Z" fill="#C9AB6C" fill-opacity="0.576471"/>
<path d="M8.48218 8.60282C8.48262 8.50146 8.49847 8.41999 8.48507 8.31674L8.73664 8.31152L8.72225 8.35363L8.71102 8.35603C8.65001 8.36878 8.58759 8.35971 8.54931 8.37932C8.52765 8.41383 8.52944 8.4511 8.53988 8.48955C8.56265 8.57344 8.54158 8.55346 8.60022 8.59463C8.55855 8.59875 8.52405 8.60189 8.48218 8.60282Z" fill="#C4A070" fill-opacity="0.498039"/>
<path d="M1.27219 7.08463C1.17126 7.08903 1.02144 7.09981 1 6.97785C1.02271 6.89095 1.09875 6.87627 1.17585 6.86745C1.15712 6.84452 1.16138 6.85689 1.15752 6.83139L1.22245 6.81689C1.1727 6.96165 1.17767 6.98753 1.02597 7.03475C1.10121 7.05413 1.18138 7.07997 1.2582 7.07728L1.27219 7.08463Z" fill="#C4A070" fill-opacity="0.0705882"/>
<path d="M11.2031 5.8916C11.3114 5.89832 11.3885 5.89641 11.4974 5.89207C11.4964 5.96497 11.4984 6.12938 11.4899 6.19477C11.4103 6.05503 11.5647 5.92286 11.2949 5.97252C11.2327 5.98397 11.216 5.94449 11.2031 5.8916Z" fill="#CAAA7C" fill-opacity="0.537255"/>
<path d="M5.85408 10.7151C5.92251 10.7159 5.99069 10.7214 6.05514 10.6992L6.05426 10.8108C6.04201 10.757 6.05144 10.7536 6.01705 10.7307C5.97333 10.76 5.96881 10.8325 5.93845 10.8752C5.90738 10.919 5.88587 10.893 5.8657 10.9549C5.84483 10.8908 5.84763 10.7816 5.85408 10.7151Z" fill="#C8A67A" fill-opacity="0.454902"/>
<path d="M10.9306 7.08154L11.0246 7.08453L10.9286 7.09689L10.8918 7.10481C10.8991 7.16842 10.915 7.32358 10.8926 7.38151L10.7704 7.38701C10.8074 7.37795 10.8369 7.37436 10.8638 7.34695C10.8216 7.26608 10.8392 7.25169 10.8495 7.16498C10.8056 7.13513 10.7445 7.14319 10.686 7.12176L10.6971 7.10457C10.7161 7.10295 10.7386 7.09367 10.757 7.08719C10.8095 7.08596 10.8798 7.08643 10.9306 7.08154Z" fill="#CAAA7C" fill-opacity="0.305882"/>
<path d="M4.88599 8.90019C4.96256 8.87646 5.08257 8.88576 5.16637 8.88767C5.08532 8.90968 5.00603 8.88924 4.93749 8.90988C4.92683 8.96814 5.00786 9.07422 4.98093 9.16026L4.93698 9.17907L4.89891 9.20521C4.88926 9.1645 4.88969 8.96552 4.88599 8.90019Z" fill="#C4A070" fill-opacity="0.737255"/>
<path d="M11.1855 6.79063C11.3448 6.79482 11.4979 6.77313 11.6548 6.78026L11.5523 6.79289L11.5003 6.79696C11.4662 6.87002 11.53 7.00469 11.5263 7.06179L11.5006 7.06908C11.4758 6.8127 11.4038 6.84225 11.2009 6.82547L11.1855 6.79063Z" fill="#CAAA7C" fill-opacity="0.627451"/>
<path d="M7.28741 11.5996C7.29997 11.7369 7.30214 12.0149 7.03208 11.8908C6.99116 11.872 7.0341 11.82 6.99475 11.8068L6.9852 11.8156L6.98438 11.705C6.99421 11.6858 7.00111 11.6756 7.01328 11.6578C7.03285 11.6813 7.03721 11.8148 7.04425 11.8602C7.07995 11.8985 7.06328 11.8896 7.10789 11.9027C7.22009 11.888 7.28759 11.7285 7.27649 11.6262L7.28741 11.5996Z" fill="#C5A271" fill-opacity="0.0705882"/>
<path d="M3.44539 7.69598C3.52109 7.69452 3.59616 7.69216 3.67114 7.70544L3.65891 7.73156C3.59444 7.74257 3.56969 7.73215 3.55027 7.80295C3.49264 7.82251 3.45208 7.80023 3.42295 7.83612C3.42054 7.87032 3.41094 7.93628 3.42559 7.96315C3.45844 7.97265 3.46742 7.97283 3.50175 7.97411L3.51301 7.98307C3.45576 7.98661 3.45915 7.99534 3.41646 7.97157C3.3884 7.91954 3.3952 7.81553 3.3938 7.75067C3.43649 7.74709 3.51209 7.74413 3.54894 7.72878C3.52676 7.70602 3.4797 7.70259 3.44539 7.69598Z" fill="#C7A576" fill-opacity="0.109804"/>
<path d="M6.99194 11.2793C7.07933 11.292 7.16521 11.2946 7.24627 11.3277L7.2547 11.3311L7.27167 11.3203C7.26732 11.3824 7.27853 11.5455 7.26546 11.5754L7.24096 11.5829C7.21293 11.2978 7.22742 11.3998 7.00414 11.3192L6.99296 11.3151L6.99194 11.2793Z" fill="#CAAA7C" fill-opacity="0.6"/>
<path d="M7.60449 9.4979C7.63797 9.49788 7.88091 9.50423 7.89434 9.49707C7.89334 9.58987 7.8895 9.69612 7.89853 9.78717L7.88329 9.79045C7.86464 9.78591 7.84248 9.78473 7.83378 9.77157C7.80245 9.72411 7.823 9.56833 7.82695 9.51322C7.75906 9.51143 7.66485 9.52047 7.60449 9.4979Z" fill="#C4A070" fill-opacity="0.811765"/>
<path d="M0.683594 6.48891C0.698927 6.48393 0.929121 6.4915 0.951361 6.49871C0.956392 6.57746 0.966408 6.69829 0.936329 6.77008L0.740184 6.76187C0.769759 6.73707 0.858095 6.74913 0.898567 6.75205L0.859327 6.73583C0.910646 6.68373 0.913982 6.57667 0.919042 6.50231C0.826582 6.51583 0.761279 6.538 0.683594 6.48891Z" fill="#CAAA7C" fill-opacity="0.682353"/>
<path d="M6.81043 1.0515C6.80665 0.990791 6.82134 0.99669 6.8253 0.967804C6.83799 0.875268 6.90904 0.848964 6.92917 0.804688C6.96331 0.830776 6.95479 0.998035 6.96391 1.05246L6.94269 1.05779L6.93888 1.0501C6.92202 1.0169 6.9133 0.997825 6.87902 0.986742C6.86879 1.01126 6.86189 1.02701 6.84929 1.05037L6.81043 1.0515Z" fill="#C5A271" fill-opacity="0.709804"/>
<path d="M5.45657 9.49316L5.4732 9.49847C5.47654 9.53737 5.4807 9.57764 5.48215 9.61652L5.45419 9.54348L5.44053 9.54428C5.42538 9.59841 5.42757 9.73581 5.43999 9.7901C5.38109 9.79852 5.25838 9.79275 5.19946 9.78113C5.268 9.75775 5.34093 9.79058 5.38113 9.75603L5.34947 9.72315C5.38513 9.6266 5.33887 9.58245 5.43151 9.51791L5.45657 9.49316Z" fill="#C7A576" fill-opacity="0.231373"/>
<path d="M5.80166 1.83193C5.80044 1.77942 5.78883 1.71742 5.81778 1.67633C5.88828 1.64096 5.98368 1.69109 6.06741 1.68451L6.06484 1.75727L6.04668 1.84651L6.03343 1.85516C5.98889 1.78581 5.9218 1.69023 5.82712 1.69594C5.80255 1.73828 5.8295 1.7562 5.80166 1.83193Z" fill="#C7A576" fill-opacity="0.137255"/>
<path d="M6.99292 11.3149L7.00411 11.3191C7.22738 11.3997 7.21289 11.2977 7.24092 11.5828C7.21939 11.5418 7.1842 11.451 7.13776 11.4518L7.11992 11.4871C7.1027 11.4299 7.07883 11.3922 7.02095 11.3709L6.99372 11.3876L6.99292 11.3149Z" fill="#CAAA7C" fill-opacity="0.545098"/>
<path d="M3.12193 7.44537C3.19307 7.43458 3.29576 7.43287 3.37043 7.42969L3.36532 7.50249L3.34469 7.48247C3.3186 7.51161 3.32526 7.58536 3.32701 7.6274C3.25907 7.43887 3.12565 7.44146 3.09977 7.64609C3.09857 7.55709 3.10392 7.53116 3.12193 7.44537Z" fill="#CAAA7C" fill-opacity="0.643137"/>
<path d="M5.54517 10.1032C5.59168 10.0575 5.64601 10.089 5.69453 10.0515C5.79695 9.97234 5.71158 9.89597 5.72784 9.82505L5.77301 9.79785C5.77541 9.87599 5.79352 10.1612 5.78904 10.2074L5.77147 10.1114L5.76997 10.0979C5.72819 10.0928 5.60193 10.1041 5.54517 10.1032Z" fill="#C7A576" fill-opacity="0.662745"/>
<path d="M7.31567 10.1089C7.40415 10.0899 7.56472 10.121 7.58771 10.1085L7.58744 10.1611C7.57372 10.1965 7.56858 10.3408 7.56361 10.3909L7.54927 10.3932C7.48834 10.2841 7.50618 10.2423 7.52393 10.1221C7.46845 10.1223 7.36262 10.1283 7.31567 10.1089Z" fill="#C7A576" fill-opacity="0.772549"/>
<path d="M8.73664 8.31152L8.7722 8.31692C8.77114 8.40739 8.76847 8.50345 8.77052 8.59338C8.72222 8.58021 8.62429 8.58205 8.60352 8.56289L8.67854 8.5317C8.71221 8.4899 8.70654 8.42223 8.72224 8.35363L8.73664 8.31152Z" fill="#C4A070" fill-opacity="0.698039"/>
<path d="M8.165 9.22656C8.17377 9.2924 8.21168 9.48552 8.10687 9.49296C8.05885 9.49638 7.967 9.48814 7.92049 9.47055L7.90079 9.48339L7.89917 9.41543C7.90887 9.38645 7.92044 9.32708 7.92765 9.29491C7.95704 9.32467 7.94331 9.39582 7.97163 9.45287C7.98728 9.46049 8.00314 9.46767 8.02077 9.46719C8.1926 9.46239 8.16303 9.34856 8.165 9.22656Z" fill="#C5A271" fill-opacity="0.0862745"/>
<path d="M4.88745 3.80488L4.90845 3.79053C5.00639 3.77875 5.06634 3.78337 5.16243 3.80428L5.17954 3.78694C5.17925 3.84058 5.17987 3.89683 5.17741 3.95018C5.16785 3.9744 5.16574 3.98693 5.14659 4.00323C5.1166 3.96682 5.1374 3.89387 5.10824 3.85544C5.08152 3.82024 4.94177 3.81389 4.88745 3.80488Z" fill="#C7A576" fill-opacity="0.203922"/>
<path d="M6.92506 1.36788C6.90114 1.31459 6.91239 1.1326 6.92988 1.07817L6.96458 1.06396L6.97944 1.08796C6.97998 1.14539 6.97797 1.3154 6.98533 1.36362L6.92506 1.36788Z" fill="#C7A576" fill-opacity="0.964706"/>
<path d="M3.16487 7.39795C3.20216 7.39891 3.34795 7.39763 3.37159 7.41375L3.37042 7.43002C3.29575 7.4332 3.19306 7.43491 3.12192 7.4457C3.10391 7.53149 3.09856 7.55742 3.09976 7.64642L3.10185 7.67495L3.13123 7.68555C3.11156 7.68843 3.0952 7.6916 3.07528 7.69197L3.06719 7.68564C3.06125 7.65947 3.08238 7.42775 3.09429 7.39909L3.16487 7.39795Z" fill="#CAAA7C" fill-opacity="0.560784"/>
<path d="M3.83667 5.27715C3.94542 5.23869 3.84158 5.19764 3.85818 5.16547C3.89321 5.09749 3.9369 5.06607 3.97317 4.98633C3.96875 5.03912 3.96055 5.22867 3.9473 5.26502L3.91652 5.28288L3.83667 5.27715Z" fill="#C9AB6C" fill-opacity="0.313725"/>
<path d="M5.80208 2.27441L5.83888 2.27964C5.89041 2.4191 5.77245 2.54486 6.01816 2.56228C5.92461 2.56935 5.88227 2.57164 5.79444 2.53877C5.79433 2.45508 5.79955 2.35908 5.80208 2.27441Z" fill="#C5A271" fill-opacity="0.913725"/>
<path d="M1.08496 6.78105C1.14412 6.7801 1.21706 6.77675 1.27475 6.78299C1.31716 6.79102 1.3595 6.79939 1.40178 6.80813C1.38587 6.83095 1.35939 6.83387 1.32817 6.84531C1.30273 6.92923 1.28183 6.9763 1.28744 7.06464L1.30617 7.08279L1.27221 7.08478L1.25822 7.07743C1.24923 7.07081 1.23867 7.06301 1.22652 7.05404C1.24462 6.98108 1.29435 6.87433 1.27921 6.80035L1.23581 6.79237C1.17513 6.79289 1.1454 6.7895 1.08496 6.78105Z" fill="#C9AB6C" fill-opacity="0.317647"/>
<path d="M7.02612 1.52174L7.03534 1.51896C7.16818 1.47799 7.2732 1.35856 7.27453 1.6279C7.25818 1.59046 7.2401 1.53969 7.21235 1.51215C7.14427 1.51312 7.06308 1.56516 7.02711 1.6215L7.02612 1.52174Z" fill="#C4A070" fill-opacity="0.215686"/>
<path d="M1.27466 6.7832L1.37635 6.78365L1.45774 6.79882L1.46924 6.81787C1.43876 6.91436 1.32835 6.87697 1.28735 7.06485C1.28174 6.97651 1.30264 6.92944 1.32808 6.84552C1.3593 6.83409 1.38578 6.83117 1.40169 6.80834C1.35941 6.79961 1.31707 6.79123 1.27466 6.7832Z" fill="#CAAA7C" fill-opacity="0.392157"/>
<path d="M7.23665 10.9995L7.26703 11.0165L7.2849 11.0077L7.28663 11.2731L7.26878 11.2859C7.24944 11.282 7.25222 11.2807 7.23521 11.2672C7.2159 11.1947 7.21925 11.0788 7.2198 11.0007L7.23665 10.9995Z" fill="#CAAA7C" fill-opacity="0.854902"/>
<path d="M8.14802 4.07422L8.161 4.09782C8.16325 4.18659 8.1683 4.26532 8.17541 4.35387C8.15882 4.34883 8.1281 4.34902 8.10936 4.34835C8.09265 4.26109 8.08101 4.14006 8.14802 4.07422Z" fill="#C7A576" fill-opacity="0.92549"/>
<path d="M5.80239 10.4356L5.84177 10.4204C5.85208 10.4823 5.87611 10.6631 5.85409 10.7151L5.80067 10.7298C5.79957 10.643 5.7946 10.5191 5.80239 10.4356Z" fill="#C5A271" fill-opacity="0.858824"/>
<path d="M10.0033 7.39748C10.0246 7.39357 10.0672 7.39279 10.0906 7.3916L10.0623 7.41401L10.038 7.42349L10.0394 7.42917C10.0583 7.50943 10.0193 7.59829 10.0247 7.61373L10.0804 7.6C10.1108 7.62306 10.1151 7.61862 10.1265 7.65101C10.0827 7.67515 10.0465 7.65791 10.0025 7.66482L9.99935 7.64579C9.99902 7.57956 9.99554 7.4583 10.0033 7.39748Z" fill="#C4A070" fill-opacity="0.129412"/>
<path d="M7.524 3.16562C7.52079 3.05087 7.52121 2.99666 7.5483 2.88135L7.55924 2.88438C7.58419 2.97562 7.56464 3.06323 7.58928 3.14037L7.58984 3.14815C7.49926 3.18526 7.45354 3.1808 7.35645 3.16714C7.40606 3.164 7.47298 3.16579 7.524 3.16562Z" fill="#C4A070" fill-opacity="0.952941"/>
<path d="M7.89868 3.76904L7.91822 3.81651C7.94058 3.82122 7.95944 3.82538 7.98213 3.82814C7.99543 3.85819 7.95015 4.00615 7.93913 4.05291C7.93069 4.05654 7.91826 4.06262 7.90978 4.06435C7.90335 3.97097 7.90208 3.86364 7.89868 3.76904Z" fill="#C7A576" fill-opacity="0.32549"/>
<path d="M5.19025 9.5115C5.20582 9.51308 5.212 9.51672 5.22199 9.51058C5.25967 9.48742 5.41205 9.49014 5.45638 9.49325L5.43132 9.51799C5.35977 9.51111 5.32445 9.51036 5.25321 9.51242C5.24828 9.56798 5.25011 9.69166 5.22924 9.72294C5.20538 9.70822 5.20371 9.70189 5.18823 9.67742L5.19025 9.5115Z" fill="#C7A576" fill-opacity="0.356863"/>
<path d="M1.56128 7.06998C1.56161 7.05482 1.56502 7.04723 1.56911 7.03259C1.62936 6.9828 1.77903 7.00581 1.84393 7.04135L1.84224 7.0681L1.56128 7.06998Z" fill="#C7A576" fill-opacity="0.819608"/>
<path d="M2.78574 7.39374C2.85826 7.38483 2.89117 7.38652 2.96258 7.39011C2.98809 7.39761 3.02435 7.40519 3.04347 7.42162L3.03168 7.42992L3.01944 7.42521L2.79491 7.46673C2.79266 7.50974 2.79092 7.60787 2.77912 7.64614C2.77334 7.57235 2.76977 7.49565 2.76538 7.42154C2.81348 7.42102 2.8502 7.41719 2.8981 7.41193C2.85986 7.40901 2.82196 7.40732 2.78574 7.39374Z" fill="#CAAA7C" fill-opacity="0.0784314"/>
<path d="M2.48552 7.3735L2.48315 7.34566L2.50687 7.32559C2.57386 7.31109 2.69533 7.30232 2.75685 7.33831C2.74836 7.3646 2.74686 7.35308 2.75377 7.37429C2.68525 7.37905 2.55836 7.37406 2.48552 7.3735Z" fill="#C9AB6C" fill-opacity="0.835294"/>
<path d="M4.37769 4.68362C4.44526 4.67216 4.48628 4.67084 4.55376 4.67691C4.56673 4.73732 4.57117 4.9091 4.5532 4.96715C4.53586 4.96839 4.5246 4.97045 4.50761 4.96591C4.52707 4.91857 4.52731 4.74584 4.51118 4.6955C4.47451 4.68633 4.41717 4.68548 4.37769 4.68362Z" fill="#CAAA7C" fill-opacity="0.701961"/>
<path d="M3.72778 7.99028C3.71976 7.98725 3.70579 7.97839 3.69775 7.9737C3.71053 7.93206 3.7006 7.94688 3.73769 7.91895C3.81689 7.90009 3.8711 7.94058 3.93937 7.95951L3.94502 7.96102L3.94883 7.98435C3.90977 7.99508 3.78015 7.99021 3.72778 7.99028Z" fill="#C7A576" fill-opacity="0.831373"/>
<path d="M7.84185 3.77314C7.82665 3.72147 7.80894 3.5208 7.86724 3.49658C7.89694 3.54871 7.86028 3.62492 7.8923 3.67804L7.89856 3.76887L7.84185 3.77314Z" fill="#C7A576" fill-opacity="0.913725"/>
<path d="M5.53711 2.66553L5.5643 2.69473C5.59717 2.68941 5.6013 2.68763 5.63019 2.67101C5.66818 2.68309 5.655 2.67441 5.68121 2.70293L5.68732 2.74647C5.71545 2.75488 5.70865 2.75156 5.74135 2.74404L5.7402 2.78154C5.65676 2.76092 5.65297 2.77434 5.57313 2.77311C5.53531 2.73889 5.54615 2.73045 5.53711 2.66553Z" fill="#C4A070" fill-opacity="0.305882"/>
<path d="M9.77498 7.40176L10.0032 7.39746C9.99542 7.45828 9.9989 7.57954 9.99923 7.64577L9.98074 7.60632L9.98082 7.59923C9.98145 7.52634 9.99057 7.49506 9.94334 7.4469C9.87324 7.42243 9.80561 7.46697 9.75879 7.42128L9.77498 7.40176Z" fill="#CAAA7C" fill-opacity="0.572549"/>
<path d="M5.49292 2.6701L5.51844 2.63086C5.63317 2.63726 5.72287 2.60873 5.74158 2.74392C5.70888 2.75145 5.71568 2.75477 5.68755 2.74636L5.68145 2.70282C5.65523 2.6743 5.66841 2.68297 5.63042 2.6709C5.60153 2.68752 5.5974 2.6893 5.56453 2.69462L5.53734 2.66542L5.52108 2.67001C5.51407 2.70963 5.50907 2.73614 5.49804 2.77518L5.49292 2.6701Z" fill="#C4A070" fill-opacity="0.282353"/>
<path d="M7.91432 4.0864C8.12119 4.02307 8.03457 4.15121 8.12239 3.88856L8.13376 3.88574C8.14589 3.93868 8.14881 3.99283 8.15327 4.04697L8.15167 4.06131C8.05989 4.0929 7.95469 4.08544 7.90723 4.11049L7.91432 4.0864Z" fill="#C4A070" fill-opacity="0.572549"/>
<path d="M5.19588 3.57622C5.23009 3.54193 5.17841 3.55088 5.24189 3.50537L5.25463 3.54379C5.24563 3.62235 5.26789 3.70499 5.24227 3.73974L5.23481 3.76904L5.19165 3.77493L5.19588 3.57622Z" fill="#C5A271" fill-opacity="0.709804"/>
<path d="M1.29838 6.07471C1.37412 6.19062 1.43414 6.13745 1.55104 6.15648L1.54967 6.17763C1.51203 6.18717 1.49381 6.19041 1.45576 6.19536L1.27417 6.19483L1.333 6.1753L1.28869 6.16827L1.28383 6.15103L1.30672 6.14977L1.29838 6.07471Z" fill="#CAAA7C" fill-opacity="0.0627451"/>
<path d="M5.80059 10.7301L5.85402 10.7153C5.84757 10.7818 5.84476 10.8911 5.86563 10.9551L5.80185 10.9849C5.79853 10.9063 5.80087 10.8101 5.80059 10.7301Z" fill="#C5A271" fill-opacity="0.592157"/>
<path d="M3.32707 7.62735C3.32532 7.5853 3.31865 7.51156 3.34474 7.48242L3.36537 7.50244C3.36709 7.58409 3.36706 7.60049 3.34865 7.67959L3.31143 7.67987C3.28956 7.64792 3.20527 7.65758 3.13452 7.64047C3.16857 7.62923 3.28492 7.62877 3.32707 7.62735Z" fill="#CAAA7C" fill-opacity="0.686275"/>
<path d="M12.1079 6.49104L12.121 6.4668L12.1433 6.46887C12.1735 6.51468 12.1459 6.62894 12.1758 6.72802C12.1582 6.72991 12.1343 6.71918 12.1165 6.71287C12.111 6.64702 12.1103 6.55875 12.1079 6.49104Z" fill="#C7A576" fill-opacity="0.521569"/>
<path d="M2.72156 5.72341L2.74382 5.72269C2.75181 5.6963 2.75929 5.66975 2.76623 5.64307C2.76642 5.68031 2.76329 5.85253 2.77133 5.87459L2.75781 5.87865C2.70829 5.83752 2.72661 5.84934 2.6543 5.84034C2.66138 5.81311 2.70386 5.74785 2.72156 5.72341Z" fill="#CAAA7C" fill-opacity="0.705882"/>
<path d="M6.99382 11.3878L7.02105 11.3711C7.07893 11.3923 7.1028 11.4301 7.12003 11.4873C7.07216 11.4994 7.04898 11.4712 7.00959 11.4963C6.99778 11.5351 7.00056 11.5471 7.0044 11.5859L6.99416 11.6097C6.98918 11.5607 6.9932 11.4418 6.99382 11.3878Z" fill="#C5A271" fill-opacity="0.482353"/>
<path d="M6.9172 12.2129L6.96437 12.2307C6.9673 12.2963 6.9799 12.409 6.94351 12.4617C6.91172 12.4166 6.91756 12.2725 6.9172 12.2129Z" fill="#C5A271" fill-opacity="0.772549"/>
<path d="M9.61817 7.69824L9.6831 7.70511C9.68821 7.76446 9.6892 7.89522 9.67287 7.95214L9.67105 7.83177L9.67087 7.75894C9.63387 7.72861 9.52004 7.7775 9.46558 7.73317C9.49155 7.7134 9.57359 7.7076 9.61817 7.69824Z" fill="#C5A271" fill-opacity="0.160784"/>
<path d="M5.43976 9.79008C5.42735 9.73579 5.42515 9.59839 5.44031 9.54426L5.45397 9.54346L5.48193 9.61651C5.48257 9.65893 5.4862 9.74147 5.48097 9.78038C5.46513 9.77623 5.45525 9.78322 5.43976 9.79008Z" fill="#C7A576" fill-opacity="0.133333"/>
<path d="M4.61261 8.71191C4.71386 8.77187 4.65078 8.78595 4.73546 8.85486C4.67498 8.85602 4.65439 8.85404 4.59944 8.87728L4.59399 8.85835C4.61386 8.79968 4.58966 8.77916 4.61261 8.71191Z" fill="#C4A070" fill-opacity="0.133333"/>
<path d="M8.42362 8.61572L8.466 8.62639L8.45685 8.83423L8.4485 8.83883L8.42611 8.83091C8.38749 8.72149 8.39856 8.71331 8.42362 8.61572Z" fill="#C4A070" fill-opacity="0.639216"/>
<path d="M3.90985 7.70703L3.9428 7.71415C3.95653 7.77165 3.94867 7.88461 3.94646 7.94994L3.9252 7.94146C3.89483 7.89448 3.91628 7.79336 3.88867 7.72355L3.90985 7.70703Z" fill="#C7A576" fill-opacity="0.647059"/>
<path d="M9.71924 7.63987C9.80332 7.63525 9.89744 7.63762 9.95998 7.57324L9.9808 7.6064L9.99928 7.64585L10.0024 7.66488L9.99144 7.66626C9.88854 7.66301 9.81916 7.66351 9.71924 7.63987Z" fill="#C9AB6C" fill-opacity="0.752941"/>
<path d="M3.66701 7.98996C3.60217 7.97915 3.49663 7.96182 3.44092 7.93325C3.50946 7.92058 3.59613 7.91751 3.66274 7.93937L3.66701 7.98996Z" fill="#C4A070" fill-opacity="0.203922"/>
<path d="M7.23617 1.69727C7.26032 1.79842 7.24875 1.88301 7.27224 1.97894L7.27615 1.98756L7.2367 1.97816L7.22637 1.97814C7.22403 1.97451 7.20093 1.93848 7.20093 1.93848C7.2105 1.86154 7.22565 1.77356 7.23617 1.69727Z" fill="#C9AB6C" fill-opacity="0.74902"/>
<path d="M6.07514 1.32985L6.15134 1.31104L6.16608 1.32086C6.16344 1.33846 6.16352 1.34741 6.15666 1.3638L6.10586 1.3635C6.05776 1.4184 6.07816 1.55712 6.08253 1.63491L6.06738 1.68451C6.06854 1.56419 6.07303 1.44851 6.07514 1.32985Z" fill="#C7A576" fill-opacity="0.447059"/>
<path d="M5.74069 10.1484C5.7367 10.2153 5.73872 10.2573 5.70593 10.3166L5.68491 10.3246C5.66965 10.2941 5.67205 10.2876 5.67256 10.2522C5.69478 10.2015 5.7044 10.1911 5.74069 10.1484Z" fill="#C4A070" fill-opacity="0.215686"/>
<path d="M3.55029 7.80283C3.56972 7.73203 3.59446 7.74245 3.65894 7.73145L3.66168 7.81092C3.61885 7.81112 3.59224 7.81285 3.55029 7.80283Z" fill="#C7A576" fill-opacity="0.14902"/>
<path d="M6.81061 1.05157L6.84947 1.05044C6.86207 1.02709 6.86897 1.01133 6.87921 0.986816C6.91348 0.997899 6.92221 1.01698 6.93906 1.05018L6.94287 1.05786C6.85627 1.07089 6.75871 1.05428 6.6926 1.06608L6.68701 1.05477C6.73261 1.051 6.76481 1.04715 6.81061 1.05157Z" fill="#C5A271" fill-opacity="0.729412"/>
<path d="M2.65438 5.84007L2.64357 5.84512L2.62444 5.83319C2.62261 5.78894 2.62619 5.78355 2.64908 5.74758C2.69303 5.7189 2.67409 5.72374 2.72164 5.72314C2.70395 5.74758 2.66147 5.81284 2.65438 5.84007Z" fill="#CAAA7C" fill-opacity="0.662745"/>
<path d="M6.06763 12.1638L6.10854 12.0801C6.12283 12.1087 6.1245 12.1166 6.13141 12.1479L6.13327 12.1625L6.09952 12.1915L6.07507 12.1885L6.06763 12.1638Z" fill="#C5A271" fill-opacity="0.517647"/>
<path d="M5.24194 3.50537C5.30306 3.5088 5.31266 3.49978 5.35795 3.52826C5.32538 3.55015 5.29931 3.54372 5.25469 3.54379L5.24194 3.50537Z" fill="#C4A070" fill-opacity="0.678431"/>
<path d="M6.99236 1.85254C7.02024 1.90623 7.04076 1.92206 7.02897 1.97862L6.99048 1.99522L6.99236 1.85254Z" fill="#C5A271" fill-opacity="0.596078"/>
<path d="M9.67083 7.75879L9.67101 7.83162C9.65856 7.83839 9.66462 7.83551 9.64572 7.83259C9.63137 7.79288 9.63189 7.80951 9.6428 7.76977L9.67083 7.75879Z" fill="#C5A271" fill-opacity="0.282353"/>
</svg>
