<svg width="87" height="93" viewBox="0 0 87 93" fill="none" xmlns="http://www.w3.org/2000/svg">
<path d="M59.3706 8.76611L59.6088 8.83519C59.9876 9.21802 59.8458 9.73212 59.8971 10.2227C60.0808 11.9776 59.6898 13.4859 59.1259 15.1279C57.3864 20.1931 52.9345 23.7338 48.3531 26.165C46.8008 26.985 45.1217 27.7034 43.5266 28.5906C41.7968 29.5527 40.0129 30.7226 38.382 31.912C33.0501 35.7844 27.7881 40.5848 24.3683 46.2321C20.5569 52.5263 18.5361 60.8587 22.0322 67.6887C22.2593 68.1325 23.2623 69.2296 23.0069 69.6401L22.8152 69.6364C22.2937 69.331 22.0141 69.0756 21.624 68.6051C18.8561 65.2674 17.9869 60.0682 18.4488 55.8473C19.4852 46.3774 25.8989 39.0233 33.1697 33.3542C34.7591 32.18 36.4408 31.136 38.1981 30.2322C37.2182 30.4555 35.6946 31.0825 34.6636 31.4328C30.9887 32.6592 27.5011 34.0146 24.1563 35.9827C17.5361 39.8778 12.0203 47.099 13.3311 55.1411C13.4215 55.6954 14.2126 57.361 14.1268 57.7138L14.023 57.7722C12.7441 57.3607 11.9329 53.5475 11.8986 52.3527C11.5867 41.502 20.4589 34.5429 29.8403 31.1037C36.7049 28.5872 44.8621 26.1041 51.1231 22.0659C56.2255 18.775 58.2554 14.6154 59.3706 8.76611Z" fill="#C0A4C0"/>
<path d="M71.9655 54.0361L72.2219 54.043C72.3694 54.1519 72.4161 54.2245 72.4251 54.4256C72.6299 58.9905 71.5927 64.4955 66.6884 66.1686C65.6378 66.527 63.8121 66.5929 62.9639 67.0403C61.9082 67.5972 60.4522 69.752 59.7174 70.7349C63.7413 68.0986 66.7538 67.5143 71.084 69.6233C68.9597 72.9444 66.0485 74.5977 62.0544 73.7799C61.0754 73.5795 59.7783 72.9517 59.0354 72.2883C57.482 74.112 54.1544 76.5792 51.4755 76.9374C51.4224 76.9444 51.3535 76.8187 51.3145 76.7658C51.4244 76.3962 52.4516 75.8584 52.8149 75.6311C54.822 74.3752 55.883 73.525 56.9017 71.3927C57.1192 70.3591 55.7787 69.1318 55.2034 68.0593C54.0098 65.8344 54.5786 63.8405 55.1592 61.5199C55.24 61.1972 55.4824 60.547 55.7794 60.3857C55.8378 60.3878 55.9276 60.3887 55.9811 60.4229C58.3254 61.9211 59.9484 64.3452 59.6428 67.2121C59.6044 67.5732 59.5793 68.1668 59.3863 68.4684C59.1199 68.3923 58.9149 67.739 58.8741 67.4724C58.5079 65.0772 57.8898 64.0597 56.3728 62.1905C55.8311 64.2003 55.7113 66.0025 56.4699 68.051C56.5898 68.3752 56.8227 68.6488 57.155 68.7726C57.3376 68.3772 56.82 66.8277 57.322 66.4239L57.5283 66.4834C58.1752 67.3036 58.1654 70.0536 58.1685 71.1016C59.1128 69.8748 60.5805 67.8274 61.2071 66.4443C61.0387 63.9931 60.2367 62.5402 61.5528 59.9214C63.3533 56.3386 68.366 55.2272 71.9655 54.0361ZM61.9643 65.3037C63.1639 63.9701 66.6203 59.6038 68.1773 59.058L68.4087 59.0897C68.11 60.0955 63.7042 65.2618 62.755 66.1335C66.3723 64.7641 68.2448 64.4497 69.9757 60.6185C70.6717 59.0779 70.826 57.526 71.177 55.902L71.0614 55.8362C67.9918 57.254 63.997 57.9599 62.6437 61.6023C62.261 62.6321 62.0301 64.2085 61.9643 65.3037ZM63.334 70.2448C64.5615 70.1338 64.6504 69.9647 65.6554 70.6207C64.0354 70.8637 62.0182 70.9582 60.7668 71.9359C61.3648 72.1213 62.3501 72.349 62.8594 72.547C64.849 72.8739 66.0327 72.6947 67.775 71.54C68.5004 71.0592 68.7239 70.6313 69.2945 70.1129C67.8133 69.7316 67.1682 69.6278 65.6589 69.6859C64.7791 69.8445 64.1777 69.9465 63.334 70.2448Z" fill="#C0A4C0"/>
<path d="M60.5492 11.8452C60.6091 11.8632 60.6289 11.875 60.6852 11.8977C61.3307 12.1593 61.9063 14.331 62.0497 14.987C63.0965 19.7777 63.0671 25.8724 61.463 30.5129C60.7397 32.6052 59.5577 34.4948 59.375 36.7635C59.1217 39.9086 59.9267 41.3958 61.0324 44.198C61.3165 44.918 61.5532 46.0219 61.169 46.7308C60.4027 48.144 58.482 48.2813 57.0856 48.6825C55.8318 49.0427 56.7679 50.5257 56.6539 51.5063C56.5017 52.8155 55.0901 52.6374 54.4404 53.2832C54.252 53.4705 55.0283 54.8109 54.7146 55.5288C54.2177 56.6664 52.7198 56.8787 52.1616 57.672C51.4087 58.7419 51.7892 60.3775 51.1306 61.6104C50.6644 62.4707 49.8719 63.1075 48.9314 63.3778C46.0655 64.1772 42.4156 62.3877 39.942 61.0759C39.082 60.6199 38.1964 60.2491 37.3385 59.7769C35.8957 60.9218 35.1938 61.0571 33.8412 62.7298C29.8892 67.6663 29.5962 74.5959 33.1172 79.8484C33.7679 80.8386 34.3853 81.5917 35.204 82.4374C35.332 82.5695 35.3394 82.65 35.3579 82.8211L35.1902 82.9237C35.0324 82.9176 34.8181 82.8569 34.6839 82.7709C28.6314 78.8943 26.7645 70.9466 29.9949 64.692C31.2615 62.251 33.0855 59.8923 35.658 58.7126C31.981 56.4462 28.0102 54.4095 26.8825 49.7944C26.7287 49.1649 26.4811 46.896 26.7841 46.4103C27.115 46.5606 27.481 48.0953 27.6618 48.5745C29.6921 53.889 34.993 56.6658 39.7424 59.2305C41.8932 60.3918 45.8461 63.1424 48.5193 62.1693C50.7007 61.3751 49.9668 58.1488 50.9469 56.6142C51.344 55.9925 52.9988 55.7929 53.3084 55.0184C53.6786 53.3357 49.3032 53.3122 48.552 51.8607C48.6324 51.6146 48.911 51.6666 49.1328 51.7423C49.9696 52.0281 54.4712 51.474 55.0765 51.0693C55.4404 50.5078 54.9712 49.5231 55.0428 48.6754C55.2066 46.7375 59.6873 47.5042 59.831 46.0241C59.9593 44.702 58.5917 42.1522 58.1024 40.8035C56.4503 36.2503 58.6203 32.5431 60.0012 28.328C60.6038 26.4124 61.0196 22.9965 61.1857 20.9404C61.295 19.5158 61.2735 18.0843 61.1212 16.6637C61.0236 15.7837 60.4194 12.5012 60.5492 11.8452Z" fill="#C0A4C0"/>
<path d="M39.503 36.4741C39.9091 36.6704 40.0739 38.3473 40.3137 38.9474C40.9658 40.5796 42.2867 40.7827 43.6711 41.374L43.7191 41.5523C43.494 41.7891 41.7547 42.2317 41.3206 42.595C40.0767 43.6363 40.1131 44.9095 39.8537 46.1954L39.6738 46.2164C39.1789 45.933 39.0974 44.3928 38.6171 43.6138C37.7501 42.2077 37.1316 42.0626 35.7007 41.6226C35.6103 41.2659 37.3524 40.6934 37.8526 40.2382C38.9729 39.219 39.0082 37.9199 39.503 36.4741ZM37.8252 41.2967C38.2974 41.7201 38.7815 42.1346 39.2269 42.5872C39.4514 42.8154 39.5364 43.053 39.6637 43.1955C40.1824 41.8502 41.0663 41.8427 41.2493 41.3966C40.9896 41.2172 40.6701 41.1299 40.4883 40.9769C40.2494 40.7758 39.7695 39.9653 39.5529 39.8083C39.0766 40.5221 38.6506 40.955 37.8252 41.2967Z" fill="#C0A4C0"/>
<path d="M46.0923 33.3301C46.6164 33.392 48.469 35.14 49.4944 35.4746C50.6268 35.8442 51.4359 35.9016 52.6155 36.0874C53.5613 36.2363 53.8442 36.8597 54.4499 37.478C54.6376 37.6696 54.7838 37.661 54.9553 37.9038C54.5166 38.2723 52.6858 37.9901 52.1462 37.8194C51.8998 37.7362 51.6872 37.6305 51.4645 37.7142C51.6634 37.9648 52.6484 38.3533 53.0879 38.6511C52.6432 39.1912 51.4635 38.8523 50.9027 38.6639C48.8328 37.9684 46.9589 36.2713 46.1581 34.2284C46.0132 33.8588 45.9623 33.7075 46.0923 33.3301Z" fill="#C0A4C0"/>
<path d="M50.2903 27.5579C50.3211 27.5553 50.3519 27.5528 50.3827 27.5505C52.112 27.4223 56.1428 28.2032 56.4127 30.5159C56.4901 31.1795 56.0832 31.5935 55.6625 32.057C55.1923 30.9034 54.8228 30.5421 53.8566 29.7815C52.2144 28.7565 48.929 28.7782 47.1101 29.1494C46.7379 29.2254 46.2164 29.3548 45.9199 29.095C46.441 28.438 49.4455 27.623 50.2903 27.5579Z" fill="#C0A4C0"/>
<path d="M33.7529 43.6035C34.2568 43.8908 34.5842 46.0027 35.1095 46.4239C35.4731 46.7154 36.4628 47.1875 36.9267 47.4401C36.632 47.6915 35.4671 48.0257 35.0959 48.2584C34.5758 48.5846 34.3352 49.9583 34.1909 50.5698L33.9513 50.53C33.6271 50.221 33.3083 48.8702 32.9108 48.478C32.5736 48.1454 31.2219 47.7024 31.0391 47.4059C31.4937 47.1056 31.9571 46.7933 32.415 46.5009C33.4526 45.8384 33.3056 44.6051 33.7529 43.6035ZM33.0186 47.412C33.1355 47.5088 33.77 48.047 33.878 48.0928C34.2637 47.8263 34.4648 47.6763 34.8204 47.3619C34.6494 47.2042 33.9222 46.5161 33.7751 46.4336C33.5384 46.7308 33.2244 47.1024 33.0186 47.412Z" fill="#C0A4C0"/>
</svg>
