<svg width="178" height="460" viewBox="0 0 178 460" fill="none" xmlns="http://www.w3.org/2000/svg">
<path d="M32.2251 330.034C34.291 330.063 43.7197 333.746 46.5704 333.89C47.5881 333.942 52.3432 334.572 52.9472 335.079C52.3304 335.303 50.3076 334.958 49.5574 334.875C43.4344 334.188 37.8013 332.641 32.2251 330.034Z" fill="#C19357" fill-opacity="0.780392"/>
<path d="M64.4522 102.502C62.3367 100.401 56.3215 95.0279 55.0906 93.0752C58.5824 96.1347 61.6852 98.9644 64.9129 102.295L64.4522 102.502Z" fill="#AC7C46" fill-opacity="0.67451"/>
<path d="M64.9128 102.295C65.5646 102.908 66.4833 103.637 66.7579 104.449C65.9135 104.252 65.0715 103.182 64.4521 102.502L64.9128 102.295Z" fill="#AC7C46" fill-opacity="0.466667"/>
<path d="M120.967 176.885C121.276 177.186 121.154 176.996 121.199 177.547C119.419 179.781 116.424 182.083 113.883 183.361L113.659 183.041C114.09 182.403 115.288 181.808 115.964 181.339C117.877 180.011 119.378 178.581 120.967 176.885Z" fill="#AC7C46" fill-opacity="0.898039"/>
<path d="M75.9931 95.0578C74.6956 93.2645 72.6835 89.415 75.0592 87.6801C75.6065 87.2862 76.2985 87.1514 76.9533 87.3115C79.1698 87.8411 80.6012 91.3379 79.878 93.3551C79.5478 94.2765 79.1244 95.4465 79.3914 96.3525C81.1499 102.488 82.2537 107.738 83.28 114.051C83.7258 113.209 84.2731 112.221 84.4527 111.286C84.8995 108.961 83.8941 101.369 87.9659 102.264C89.029 103.251 89.2396 107.085 88.6327 108.079C88.4007 107.698 87.9518 106.333 87.7761 105.835C87.5793 106.55 87.649 108.545 87.6506 109.386L85.4093 110.917C85.0402 111.844 83.7388 114.562 83.6242 115.347C83.0054 119.581 82.6661 123.783 82.4591 128.097C82.4074 129.17 82.0417 134.746 83.6381 135.358C86.7652 135.617 86.866 137.894 87.5631 140.849C88.3676 136.557 91.5198 130.908 92.8332 126.476C93.0882 125.616 94.0769 121.752 94.3948 121.423L94.6725 121.573C94.5731 124.245 89.302 138.305 89.3826 138.781C89.7898 138.569 90.0631 138.429 90.4431 138.173L91.3556 138.78C86.8866 142.312 85.3934 147.424 84.2953 152.912C83.9184 154.796 84.3402 157.493 84.116 159.439C83.7816 169.349 82.5478 179.16 81.727 189.036C80.9966 197.822 81.1718 206.427 81.3133 215.221C81.0368 214.714 81.2167 214.873 80.6255 214.668C80.2888 213.455 80.2502 207.95 80.1677 206.275C79.8847 200.511 79.1333 195.983 77.3736 190.43L78.2874 190.377C78.6081 191.3 79.7318 195.903 80.2807 196.17C80.8432 194.739 81.1018 187.075 81.2493 185.107C82.244 171.837 84.1314 158.542 83.0824 145.224C82.9955 144.118 82.8853 141.467 82.6045 140.548C81.5369 140.435 81.2216 141.384 80.283 141.678C78.9242 142.103 76.4446 139.911 76.0487 138.664C76.383 137.639 76.909 137.831 77.9428 136.802L77.9426 136.201C76.9656 135.79 77.2402 136.594 75.7757 136.892C75.7224 136.249 75.7347 136.456 76.1594 135.787C77.6085 134.968 80.0252 135.753 82.0637 135.929C81.7598 130.299 79.3565 124.758 76.8735 119.758L77.4621 118.926C78.866 121.942 80.5501 126.94 81.8802 129.484C81.8481 124.867 82.5222 120.904 82.5486 116.374C82.5773 111.495 80.7004 100.043 77.8912 95.847C77.6863 95.5414 76.4157 95.1819 75.9931 95.0578ZM85.2159 146.159C85.7533 144.839 87.0834 142.267 86.5648 140.853C86.4677 140.587 85.8681 140.436 85.8647 140.37C85.7423 137.976 86.4079 136.706 83.1547 136.274C83.2019 138.112 83.6498 147.223 84.3587 148.09C84.9322 147.605 85.0078 146.921 85.2159 146.159ZM76.1802 91.5986L76.709 91.3632C77.4474 91.992 78.1556 92.6043 78.9323 93.1882L79.3766 93.0942C80.3506 90.9267 78.2665 88.4586 76.4097 87.554C73.6727 89.3638 74.4469 93.521 76.549 94.5077L76.9111 94.219C76.9815 93.2961 76.5399 92.4581 76.1802 91.5986ZM78.4239 140.511C82.197 140.925 82.919 140.18 82.1401 136.417C80.2966 136.377 77.6382 137.198 77.5871 139.417C77.8979 139.984 77.9488 140.075 78.4239 140.511Z" fill="#976A36" fill-opacity="0.984314"/>
<path d="M130.113 275.769C128.388 280.672 127.075 284.998 124.231 289.384C119.061 297.359 110.34 296.886 105.091 304.034C103.501 306.202 102.342 309.136 101.373 311.646L100.454 311.403C101.79 308.041 102.918 306.084 104.416 302.965C105.202 301.327 105.925 297.91 106.889 295.855C112.594 283.671 118.721 280.779 130.113 275.769ZM127.079 279.734C121.16 286.346 111.918 292.874 107.711 299.969C114.724 295.81 121.536 294.062 125.302 286.126C126.137 284.363 128.687 279.854 128.152 278.067L127.788 277.72C125.332 278.773 122.242 279.985 119.93 281.388C114.175 284.875 110.093 290.442 107.552 296.607C107.46 296.832 107.43 297.166 107.422 297.401L107.651 297.691C108.612 297.265 109.526 295.627 110.008 295.126C111.296 293.788 127.878 278.506 127.784 278.519C127.531 279.039 127.421 279.269 127.079 279.734Z" fill="#AC7C46" fill-opacity="0.980392"/>
<path d="M122.916 286.576L123.248 286.785C122.918 287.709 121.726 288.83 121.016 289.593L120.67 289.475C120.799 288.731 122.319 287.239 122.916 286.576Z" fill="#AC7C46" fill-opacity="0.894118"/>
<path d="M106.154 229.008C110.702 241.453 111.912 246.302 108.043 259.434C107.179 262.367 105.995 268.36 105.872 271.362C105.725 270.813 105.457 270.27 105.224 269.747C104.991 261.111 99.0642 252.271 101.154 243.12C102.232 238.402 103.586 233.159 106.154 229.008ZM105.8 258.517C105.765 259.538 105.566 262.407 106.087 263.12C106.921 262.349 109.507 248.911 109.62 246.934C109.775 244.251 107.618 232.749 105.786 231.655C99.9177 243.096 101.349 251.048 104.706 262.503L105.083 262.822C105.725 261.816 105.128 258.723 105.639 258.193L105.8 258.517Z" fill="#81592C"/>
<path d="M141.556 13.9512C141.983 12.835 142.588 10.8922 143.527 10.1537C144.185 9.63622 145.271 8.96668 146.145 9.12394C146.783 9.23888 147.32 9.7266 147.682 10.2417C148.395 11.2569 148.755 12.6963 148.502 13.9173C147.921 16.7203 146.275 17.1377 144.187 18.5875C143.101 19.3417 133.488 48.0321 133.004 51.448C132.94 51.9007 132.864 52.147 133.148 52.5242C134.294 52.0854 138.868 44.8961 140.04 43.2636C139.911 40.9358 139.965 39.829 140.208 37.5058C140.995 36.4983 141.815 35.0923 143.192 35.0644L143.605 35.5004C143.817 36.5053 143.499 37.2125 143.186 38.1856C142.348 38.9653 141.454 39.6244 141.184 40.7255L141.322 41.1626C142.472 40.8167 142.951 39.7038 143.61 38.6351C145.355 37.3617 147.748 33.1613 149.41 31.4479C151.815 28.9681 153.646 26.1097 155.408 23.1468C155.244 21.8221 155.274 20.9595 155.303 19.6445C155.583 20.4088 155.692 20.7652 156.129 21.4603C157.11 21.5112 156.749 20.2929 157.994 19.9577C158.147 20.3788 157.578 21.377 157.347 21.9052L157.494 22.2664L158.139 22.2753C159.494 21.6223 160.495 20.2863 161.398 19.1009C163.372 14.5813 157.592 12.1545 155.303 19.6445C154.937 20.0695 154.51 20.4875 154.116 20.8903C153.892 20.2443 156.986 12.126 157.192 10.2579C157.308 10.731 157.367 11.1427 157.639 11.5411C157.49 12.9261 157.174 13.9194 156.799 15.2501C157.623 14.6147 158.848 13.4975 159.905 13.6918C163.701 14.389 162.71 20.2393 160.158 21.8163C159.012 22.5248 157.74 22.6358 156.599 23.3001C155.597 24.0381 153.818 26.9346 153.15 27.7027C151.708 29.3599 145.636 37.7423 144.607 38.5038C144.015 39.1741 143.511 39.6435 143.235 40.4941L143.449 40.8047C144.296 40.6673 144.922 40.0288 145.598 39.4706L146.056 39.4275C145.646 40.6396 142.306 42.5105 141.179 43.6821C132.857 52.3377 127.761 65.6378 125.394 77.2173L124.708 76.7239C125.311 68.5573 133.165 56.7538 132.307 48.8406C131.693 43.1761 128.153 37.8867 127.206 31.1115L127.63 30.0783C128.762 34.9163 129.76 38.7375 131.864 43.2636C132.429 44.4794 132.087 45.7276 132.991 46.8049C134.108 46.4368 134.342 43.3621 134.568 42.1793C134.614 42.1092 134.66 42.0385 134.704 41.9671C137.638 37.1939 139.737 26.3427 142.182 20.8059C143.28 18.3203 142.186 16.5729 141.556 13.9512ZM144.591 16.9888L144.515 17.4789C145.379 17.4055 145.779 17.2401 146.331 16.5437C147.571 14.9802 149.21 12.2914 146.923 10.8196C146.149 10.3217 145.826 9.88595 144.83 9.87968C143.139 11.4369 141.021 14.9948 143.055 17.0254L143.533 16.9423C143.807 16.5238 144.14 15.9209 144.535 15.6557L144.654 16.2401L144.481 15.7352L144.409 15.888C144.732 16.58 144.701 16.2918 144.591 16.9888Z" fill="#AC7C46" fill-opacity="0.968627"/>
<path d="M143.843 79.8838L144.657 79.9055C144.09 83.8775 143.12 87.3299 142.51 91.0982C144.213 89.0164 145.553 87.2076 147.117 85.0306L147.755 85.5282C145.65 88.2304 143.006 91.5553 141.199 94.4043C145.291 92.3878 146.87 92.5785 151.277 92.8233C154.995 93.0299 159.265 90.8662 161.883 88.2638C161.654 85.6458 161.617 84.4052 163.252 82.1753C165.325 79.3475 170.54 79.5006 170.731 83.4924C170.865 86.298 167.38 89.636 164.639 89.7698C164.263 89.7782 162.607 89.1577 162.307 89.2735C159.788 90.246 157.971 92.4108 155.287 93.1034C152.228 93.8933 149.263 93.3228 146.179 93.4578C143.517 93.5746 140.602 95.3181 138.988 97.4547C136.628 100.577 134.249 103.855 132.093 107.147C134.678 106.328 140.038 102.481 141.583 102.172C143.202 102.5 144.498 102.895 146.037 102.019C146.609 101.693 146.788 101.636 147.461 101.739C145.743 103.826 145.11 104.217 142.64 105.398L142.29 105.359C142.546 104.368 143.054 103.642 142.917 102.868C141.44 102.404 133.905 106.541 133.513 107.582C134.969 107.46 136.055 107.314 137.514 107.511L137.756 107.735C136.824 108.468 133.919 108.011 132.501 108.691C128.284 110.712 119.361 123.071 117.421 126.866C116.836 127.079 116.555 127.114 115.956 127.217C119.478 121.668 123.539 117.212 127.461 111.942C131.919 105.95 137.521 98.9502 140.895 92.3092C142.44 89.2688 143.356 83.3472 143.843 79.8838ZM166.524 86.4224C165.96 87.4075 165.383 88.4555 164.775 89.4088C167.417 88.1133 170.733 85.6719 170.04 82.2997C169.635 81.5089 168.377 80.6926 167.499 80.7495C164.696 82.3033 161.3 84.1599 162.525 88.158C163.833 88.4694 164.975 86.2165 166.352 85.9678L166.524 86.4224Z" fill="#AC7C46" fill-opacity="0.972549"/>
<path d="M128.951 325.559C132.536 317.004 138.703 328.469 130.033 329.334C128.11 332.208 126.513 335.455 124.647 338.08C126.409 337.208 127.64 336.696 129.529 336.147C131.769 335.494 131.924 331.808 134.83 332.255C135.663 332.85 135.749 333.075 136.219 334.002C136.229 337.913 131.882 336.366 130.461 336.502C121.441 337.377 113.686 350.504 112.373 358.323L111.565 358.733C112.206 356.186 113.016 352.9 114.398 350.677C118.622 343.89 118.424 337.897 114.849 330.544C113.225 330.066 111.891 329.433 111.051 327.829C110.694 327.161 110.625 326.377 110.859 325.659C112.06 321.933 118.187 323.213 115.735 330.867C117.785 335.771 118.315 338.605 118.198 343.96C123.572 338.284 125.499 335.421 129.515 328.861C129.312 327.767 129.094 326.662 128.951 325.559ZM131.418 327.871L131.445 328.328C133.613 328.054 135.575 323.72 132.211 322.895C130.744 323.574 128.89 325.23 129.769 326.986L129.572 326.604L129.753 326.991L130.986 326.1L131.419 326.212C131.42 326.761 131.428 327.325 131.418 327.871Z" fill="#AC7C46" fill-opacity="0.976471"/>
<path d="M106.684 35.2559C103.646 30.6376 103.381 25.6633 104.229 20.301C104.294 19.8885 104.43 19.5821 104.708 19.2642C107.675 19.65 112.045 29.0454 113.223 31.9072C114.936 36.0668 113.195 43.8595 114.236 46.9569C118.007 58.1776 123.463 65.0516 123.955 77.8002C122.458 75.8146 121.667 61.7601 117.608 58.5344C113.054 54.9153 109.602 56.7272 104.529 56.9182C99.4957 57.1076 93.5963 54.8189 89.973 51.4736L90.0886 50.8083L89.613 50.7965C90.6401 50.4998 94.076 53.7171 95.8522 54.4715C101.749 56.9767 105.746 55.7502 111.655 55.3017C112.379 55.5407 112.466 55.7097 113.088 55.507C112.512 54.6102 112.53 54.8145 111.468 54.2474C110.407 53.6755 108.119 53.1651 106.852 52.8391L106.819 52.5723C108.275 51.6915 111.529 53.6572 112.747 53.6444C111.803 51.9731 107.734 50.7699 106.313 49.0998C107.768 49.8151 109.225 50.7213 110.626 51.5546C109.108 49.5327 108.722 49.1662 106.516 47.9723C106.386 47.8451 105.387 47.2315 105.166 47.0912L105.713 46.5753C109.221 48.4974 114.178 52.726 116.81 55.8072C115.408 52.5313 112.531 43.1806 110.859 41.195C112.493 41.7219 112.076 41.3481 112.971 42.8546L113.201 42.5957C113.481 33.9913 112.898 29.403 107.075 22.2017C106.675 21.7069 106.065 21.1923 105.406 21.1594C102.776 23.1521 105.945 32.4918 107.072 35.037L106.684 35.2559Z" fill="#81592C" fill-opacity="0.988235"/>
<path d="M131.185 127.119C135.799 124.673 141.363 123.765 145.974 121.106C146.532 120.784 148.332 121.673 148.855 122.283C149.148 123.241 148.645 124.322 148.047 125.06L147.533 125.187C148.052 124.017 148.443 123.929 148.418 122.834C146.541 120.538 141.833 122.999 143.187 125.467C144.121 125.883 145 125.983 146 126.149L146.051 126.381C141.242 128.289 143.325 123.316 138.809 124.57C138.008 124.792 136.776 125.114 136.359 125.827C136.858 126.271 137.385 126.267 138.043 126.352L136.176 126.576C134.726 126.809 132.624 127.083 131.456 127.91C122.169 134.483 110.61 146.7 104.183 155.623C103.776 156.189 103.381 156.764 103 157.347L101.54 156.461C104.17 149.956 107.609 141.937 110.531 135.605L111.423 135.869C109.862 141.065 105.056 149.398 103.188 155.426C104.683 153.904 106.444 151.227 107.939 149.512C110.568 146.668 113.172 143.219 115.973 140.57C122.281 134.607 128.233 129.382 133.985 122.821L134.278 123.489C133.241 124.64 132.075 125.863 131.185 127.119Z" fill="#AC7C46" fill-opacity="0.956863"/>
<path d="M109.977 172.86C117.507 165.083 120.767 163.354 129.98 158.102C126.946 176.371 123.934 185.789 104.133 189.314C103.685 188.937 103.066 188.728 102.514 188.496C107.839 188.484 115.972 185.691 119.738 181.783C123.99 177.582 126.577 172.148 127.841 166.348C128.176 164.812 129.327 162.137 128.036 160.96C124.024 160.302 110.461 172.375 108.262 176.161C106.6 179.022 104.283 182.428 102.247 185.173L101.078 185.266C103.091 182.14 106.01 178.27 107.752 175.112C109.744 171.505 111.815 165.332 113.234 161.3L113.501 162.184C113.573 163.511 110.51 170.823 109.977 172.86Z" fill="#976A36" fill-opacity="0.976471"/>
<path d="M31.2222 221.974C32.356 223.56 33.131 224.586 34.7873 225.67L35.0891 225.594C34.6633 222.673 29.8772 216.665 32.8008 211.782C33.5105 211.338 33.1847 211.398 34.0207 211.569C40.2216 216.181 35.8397 226.937 40.96 231.339L40.5885 232.162C39.0227 230.751 38.2191 230.466 36.3148 229.714C36.0819 229.377 35.7507 229.095 35.4516 228.805L35.7288 228.408C35.4633 227.676 31.7518 223.68 30.7495 222.183L31.2222 221.974Z" fill="#C19357"/>
<path d="M36.3147 229.714C31.1324 228.136 28.4249 229.014 23.3023 227.987C20.8423 227.493 19.0413 225.317 17.1926 224.763C15.2199 224.353 12.9246 224.486 11.4264 222.862C10.0798 221.402 9.12376 217.742 10.9782 216.238C11.5104 215.807 12.1442 215.344 12.7682 215.411C19.0137 216.083 17.3683 219.627 18.4543 224.119C21.599 228.384 30.5618 227.877 35.7287 228.408L35.4515 228.805C35.7507 229.095 36.0819 229.377 36.3147 229.714ZM13.3265 220.939C13.4054 220.245 13.284 220.432 13.6888 219.984C14.9787 219.903 16.3864 221.733 17.4575 222.569C17.4053 220.676 16.9595 215.91 14.0777 216.238C8.02282 216.274 10.8584 223.841 14.5598 223.705L14.6582 223.47C14.2315 222.715 13.6288 221.722 13.3265 220.939Z" fill="#C19357" fill-opacity="0.968627"/>
<path d="M97.0027 97.127C99.4878 105.908 103.032 113.797 101.103 123.254C100.65 125.472 100.159 127.485 99.036 129.473L98.1413 129.129C100.621 122.625 101.122 119.02 100.359 112.088C98.385 116.217 99.4487 119.257 97.5229 123.889L97.3574 123.802C97.5323 120.599 98.189 120.701 98.4978 118.427C99.665 109.825 99.5765 108.019 96.9484 99.9916C96.8594 101.108 96.5465 105.912 96.3293 106.716C96.1568 104.106 96.2247 102.755 96.4001 100.185C93.8349 106.549 91.8663 110.919 90.7307 117.937C90.3125 120.521 91.2297 125.823 90.6545 127.22L90.3744 127.051C90.3666 125.602 90.212 124.359 90.0614 122.921C89.115 113.889 93.2726 105.009 97.0027 97.127Z" fill="#976A36"/>
<path d="M124.708 76.7241L125.395 77.2176C123.446 85.705 123.33 92.6375 121.617 100.961C120.409 106.934 118.953 112.855 117.252 118.707C116.353 121.796 114.944 125.651 114.203 128.646L113.294 128.385C113.517 127.097 115.222 121.797 115.653 120.38C120.55 104.311 121.898 101.431 115.509 85.8481L115.801 85.4236C118.693 88.3596 119.399 96.8099 120.539 98.9269L120.877 99.0178C122.872 96.1991 122.865 79.0384 123.955 77.8001L124.708 76.7241Z" fill="#AC7C46"/>
<path d="M62.7913 230.573C63.2848 229.058 64.1973 225.511 65.6937 224.886C67.1906 225.534 67.2456 229.387 67.3307 230.895C67.331 232.485 67.3832 233.773 67.0715 235.341C66.4999 237.943 65.9693 238.94 65.3283 241.203L63.9491 240.811L63.0118 238.645L62.5211 238.483C62.4616 239.17 62.4412 239.385 62.241 240.043C62.2358 239.573 62.1301 239.254 62.0168 238.797L61.7791 237.867C62.0009 236.514 62.0236 234.541 62.2898 232.822L62.7913 230.573Z" fill="#E1B169"/>
<path d="M62.2898 232.822C62.4496 234.042 62.4634 234.397 63.0186 235.476C62.75 236.163 62.7881 235.866 63.0648 236.743C64.1036 236.495 63.8358 236.524 64.7097 235.727C65.5167 235.884 66.1254 235.45 67.0715 235.341C66.4999 237.942 65.9693 238.94 65.3283 241.203L63.9491 240.811L63.0118 238.645L62.5211 238.483C62.4616 239.17 62.4412 239.384 62.241 240.043C62.2358 239.572 62.1301 239.254 62.0168 238.797L61.7791 237.867C62.0009 236.513 62.0236 234.541 62.2898 232.822Z" fill="#CD9E60"/>
<path d="M62.7913 230.573C63.2848 229.058 64.1973 225.511 65.6937 224.886C67.1906 225.534 67.2457 229.387 67.3307 230.895C66.4806 229.842 66.8588 229.447 65.1871 229.189C64.0942 229.379 63.6411 229.868 62.7913 230.573Z" fill="#C19357"/>
<path d="M63.0188 235.476L64.4859 234.384L64.7889 234.557C64.7712 234.943 64.7636 235.343 64.7099 235.727C63.836 236.524 64.1038 236.495 63.065 236.743C62.7883 235.865 62.7502 236.163 63.0188 235.476Z" fill="#C19357"/>
<path d="M42.8004 218.259C40.1389 213.688 44.9973 207.504 48.9918 213.828C49.706 217.15 49.6903 218.382 47.2519 220.863C47.9867 223.568 48.5544 226.145 49.1552 228.88L48.379 228.723C47.704 226.09 47.0737 223.446 46.4885 220.791C44.6805 220.05 44.0692 219.744 42.8004 218.259ZM43.6508 217.614C45.4567 217.088 46.8437 218.012 48.1454 216.998C48.7642 215.801 48.5549 215.738 48.5121 214.294C47.7421 213.265 47.0147 212.126 45.7023 211.932C44.0329 212.218 43.4984 213.61 42.6475 214.962C42.8717 215.549 43.5098 217.089 43.6508 217.614Z" fill="#AC7C46"/>
<path d="M42.8004 218.259C40.1389 213.688 44.9973 207.504 48.9918 213.828L48.5121 214.294C47.7421 213.265 47.0147 212.126 45.7023 211.932C44.0329 212.218 43.4984 213.61 42.6475 214.962C42.8717 215.549 43.5098 217.089 43.6508 217.614L42.8004 218.259Z" fill="#976A36"/>
<path d="M117.294 392.703C118.723 394.662 121.015 400.119 122.32 402.507C126.84 410.77 130.553 419.383 135.414 427.473C134.708 427.86 134.613 427.891 133.811 427.959C132.672 426.227 130.438 421.7 129.391 419.73C124.643 410.812 120.773 402.008 115.895 393.113L117.294 392.703Z" fill="#81592C"/>
<path d="M70.8925 163.897C68.9944 163.392 68.9174 163.373 67.7915 162.003C65.9829 159.804 65.6919 154.609 69.7584 155.828C73.375 156.912 72.9461 161.278 71.5521 163.758C73.3648 168.732 74.5135 172.69 75.4769 177.883C76.3027 182.335 76.522 186.174 78.2872 190.377L77.3734 190.43C76.7028 187.506 76.2737 186.836 74.6122 184.343L75.4338 183.695C76.6016 180.976 72.1464 167.192 70.8925 163.897ZM69.3275 160.018L69.8346 159.514C70.6226 160.267 70.2311 161.274 70.9935 161.866C73.9771 160.486 70.8708 156.168 68.2754 155.647C67.3775 156.754 66.9393 157.505 67.1134 159C67.2877 160.427 68.0167 161.729 69.1424 162.623C69.4434 162.858 69.6525 162.985 70.0181 163.1L70.3118 162.935C70.0719 161.762 69.5815 161.295 69.3275 160.018Z" fill="#AC7C46" fill-opacity="0.941176"/>
<path d="M88.8593 313.151C89.2446 314.716 89.7716 316.978 90.356 318.475C91.1168 321.466 96.4714 340.455 97.5805 341.314C97.8871 340.99 98.4621 340.512 98.8135 340.199C99.2752 344.271 99.4955 348.955 101.229 352.766C101.033 352.947 100.523 353.44 100.326 353.566C99.0319 350.826 97.5523 345.849 96.521 342.863C93.9028 335.277 91.3768 327.649 89.5307 319.831C89.0723 318.255 88.4326 316.262 88.1799 314.687C88.4211 314.258 88.6633 313.618 88.8593 313.151Z" fill="#AC7C46"/>
<path d="M132.803 228.162L133.313 228.669C131.042 234.753 128.533 238.904 124.258 243.812C122.158 246.221 121.254 249.348 119.776 252.13C118.166 255.137 116.389 258.102 114.636 261.041L119.927 258.619L120.338 259.089C114.525 261.401 111.168 264.619 108.356 270.249L107.878 269.194C116.651 254.97 124.701 249.332 122.74 230.696C123.027 230.132 123.138 229.272 123.234 228.645C124.228 232.444 123.861 239.656 123.224 243.577C128.332 238.28 130.076 234.701 132.803 228.162Z" fill="#976A36" fill-opacity="0.976471"/>
<path d="M77.3558 330.752C73.7178 328.616 73.0241 322.451 76.9546 322.691L76.6401 322.905C75.3695 323.911 74.9905 326.518 75.3358 328.025C75.8132 328.587 75.6036 328.516 76.1705 328.569C76.2165 327.377 76.0672 326.204 76.6933 325.369C78.0446 325.617 78.4017 326.471 78.9171 327.691C79.424 328.072 79.418 328.232 79.6341 328.864C78.7877 329.94 78.0801 330.397 78.3218 331.763C79.4848 338.333 80.9562 346.69 84.9444 352.171C86.2218 353.924 89.1315 356.309 90.5282 358.03L89.914 358.338C86.63 354.872 82.8506 351.267 79.4394 347.884L79.7072 347.33L82.0537 349.088C79.4522 341.588 78.861 338.443 77.3558 330.752Z" fill="#AC7C46"/>
<path d="M145.008 111.646C145.412 109.441 146.024 107.575 147.946 106.256C149.433 105.234 150.719 105.128 151.913 106.463C152.663 109.042 148.675 112.737 146.016 111.868C145.78 111.79 143.813 113.221 143.536 113.456C140.545 115.994 138.434 117.259 136.59 120.8C137.469 120.317 140.412 118.592 141.205 118.412C140.361 119.857 137.615 120.597 136.293 121.48C135.828 121.79 134.688 123.05 134.278 123.489L133.985 122.821L134.104 122.688C135.367 121.261 136.251 119.488 137.298 118.282C139.15 116.148 142.685 113.425 145.008 111.646ZM148.662 109.716L147.792 110.734L147.904 111.072C149.338 110.829 151.38 108.661 151.162 106.999C150.697 106.541 150.067 106.144 149.397 106.112C147.786 107.033 146.381 108.652 146.325 110.588L146.658 110.684C147.435 110.111 147.962 109.691 148.68 109.049L148.901 109.198L148.662 109.716Z" fill="#AC7C46" fill-opacity="0.905882"/>
<path d="M143.843 79.8835C143.74 78.5066 141.763 77.7709 141.661 75.76C141.534 74.4956 141.832 71.8549 142.941 70.9544C146.853 67.7786 147.724 72.4682 147.651 75.0246C147.278 76.2566 147.192 76.6372 146.482 77.691C145.805 78.3676 144.891 79.0572 144.658 79.9052L143.843 79.8835Z" fill="#C19357"/>
<path d="M146.482 77.6911C145.456 77.0978 145.278 76.2541 145.844 75.2872C146.78 74.7373 146.435 74.8729 147.651 75.0247C147.278 76.2567 147.193 76.6373 146.482 77.6911Z" fill="#E1B169"/>
<path d="M60.0681 204.988C58.3911 203.364 57.6112 201.864 57.7576 199.342C57.4859 196.973 61.5336 194.152 62.7998 196.889C64.3212 200.178 63.5763 203.075 60.7783 204.822L60.0681 204.988ZM61.3843 199.832C61.494 200.666 61.49 201.462 62.0497 202.06L62.4644 201.983C63.4077 200.216 62.8951 197.778 61.4527 196.411C60.8253 196.17 60.7073 196.107 60.0412 196.137C58.419 197.853 58.2063 199.331 58.5513 201.631L58.8515 201.844C59.6301 201.033 60.1975 200.008 61.0951 199.754L61.3843 199.832Z" fill="#AC7C46"/>
<path d="M98.1799 163.856L99.1511 164.128C94.2783 175.688 90.4175 185.605 87.0922 197.804L86.2664 196.761C90.0207 184.17 92.5097 176.214 98.1799 163.856Z" fill="#976A36"/>
<path d="M83.4242 288.182C83.8011 289.797 84.0188 291.858 84.414 293.707C85.7686 300.217 87.2509 306.698 88.8595 313.151C88.6635 313.618 88.4212 314.258 88.1801 314.687C86.8615 310.418 85.9317 305.76 84.5982 301.526C84.042 299.76 82.418 296.34 81.6201 294.564L82.0583 294.047L82.6929 294.54L82.981 294.384C83.1898 293.378 82.7597 291.364 82.5843 290.264L82.7516 290.003L82.9946 289.992C83.1207 289.318 83.2439 288.838 83.4242 288.182Z" fill="#C19357"/>
<path d="M80.5697 227.59L80.7696 229.019L80.9849 229.157L81.6497 227.195C81.697 230.064 81.1347 232.715 80.9928 235.523C80.6135 243.01 80.0949 250.476 80.7597 257.963C80.8476 258.953 80.873 260.022 80.8304 261.012L80.685 260.92C80.322 260.946 80.0724 260.944 79.7151 260.936C79.0315 252.417 79.428 236.148 80.5697 227.59Z" fill="#AC7C46"/>
<path d="M30.0649 254.531C39.4315 256.581 45.5613 253.29 54.7661 259.303L54.2812 259.771C45.9508 255.218 42.0855 255.698 32.7434 255.84C39.959 259.648 48.0002 262.099 55.6199 264.956C57.2094 265.555 58.3879 266.051 59.8391 266.937L59.7263 267.349L59.2805 267.19C56.1933 265.455 51.088 264.079 47.7387 262.786C42.7604 260.866 37.612 258.828 32.847 256.43C34.2907 258.326 35.4663 259.774 37.0425 261.566L36.8823 262.208L30.0649 254.531Z" fill="#AC7C46" fill-opacity="0.901961"/>
<path d="M62.0169 238.797C62.1301 239.254 62.2359 239.573 62.2411 240.043C62.4413 239.385 62.4616 239.17 62.5211 238.483L63.0118 238.645L63.9491 240.811L65.3283 241.203C64.0447 244.784 62.589 249.395 63.2415 253.248L62.3909 253.389C62.0769 248.598 60.9859 244.63 60.4941 240.027L60.6771 238.253C61.0149 239.055 61.001 239.413 61.6207 239.839C61.9576 239.411 61.9396 239.356 62.0169 238.797Z" fill="#C19357"/>
<path d="M115.719 354.898L116.155 355.397C115.473 356.52 114.414 358.072 114.117 359.3C114.267 359.901 114.135 359.754 114.553 360.039L114.791 360.355L114.397 361.037L114.668 361.259C116.386 361.073 118.398 360.24 119.93 359.446L120.528 360.076C115.917 361.643 112.932 361.544 111.033 366.392L110.238 365.608C110.779 361.771 109.246 359.864 107.415 356.471L107.75 356.254C109.29 357.651 108.908 355.721 110.139 358.511L110.216 358.445L110.039 357.939L110.447 357.636L110.423 356.86L110.661 356.596C110.695 357.38 110.635 358.357 111.066 358.955C111.314 358.874 111.416 358.887 111.565 358.733L112.373 358.323C111.973 359.472 111.74 361.222 111.532 362.461C113.086 360.214 113.753 357.643 115.719 354.898Z" fill="#AB783B"/>
<path d="M157.087 67.2393C157.157 66.3934 156.625 66.0013 156.324 65.2617C154.907 61.7824 155.256 59.2101 158.265 57.0103C158.381 57.1808 158.895 57.9094 158.955 58.0419C159.694 60.8321 159.076 65.1013 159.469 66.0355L160.685 66.1646C159.874 66.4754 158.064 67.0454 157.621 67.6421L157.087 67.2393Z" fill="#C19357"/>
<path d="M51.2537 224.821C51.7133 225.257 52.3426 225.999 52.7863 226.493C55.8127 229.165 52.9453 230.764 50.6492 232.208C51.3795 234.865 52.6493 239.303 53.585 241.843L52.7519 241.691C51.221 237.754 49.8745 232.919 48.3789 228.724L49.1551 228.88L49.5399 229.071L49.8359 228.87C50.2952 227.833 50.8718 225.957 51.2537 224.821Z" fill="#C19357"/>
<path d="M113.233 161.299C113.259 160.769 109.653 154.67 114.724 153.521C118.09 152.758 117.716 159.141 115.264 160.047C114.194 160.606 113.94 161.248 113.501 162.183L113.233 161.299Z" fill="#AC7C46"/>
<path d="M59.8822 300.1C62.2757 305.549 64.5668 310.277 63.713 316.353C63.4643 318.125 63.0156 319.82 62.7823 321.46L62.1368 320.912C62.2334 320.112 62.314 319.279 62.5098 318.498C63.8994 312.944 62.7327 307.249 59.9503 302.281C57.9147 308.911 56.583 312.158 59.1114 318.911C59.3309 319.499 59.6674 320.63 59.7365 321.249C54.9729 314.992 57.5707 306.701 59.8822 300.1Z" fill="#976A36"/>
<path d="M105.123 363.686C105.758 365.391 108.47 373.633 109.482 374.234C110.044 373.73 109.868 373.563 109.938 372.594C110.233 373.27 110.477 373.766 110.634 374.493C110.633 377.878 111.755 379.61 112.89 382.774L111.639 383.056C110.355 381.277 105.118 367.095 104.169 364.451L105.123 363.686Z" fill="#AC7C46"/>
<path d="M82.6913 213.111C83.7192 213.51 83.8536 213.614 84.7029 214.324C83.7401 217.277 83.1277 219.741 82.5313 222.795C82.4133 223.399 81.7903 226.827 81.6499 227.195L80.9851 229.157L80.7698 229.019L80.5698 227.59C80.8608 222.864 80.7588 219.365 80.6254 214.669C81.2166 214.873 81.0368 214.714 81.3132 215.221C81.3855 216.194 81.3816 216.517 81.7459 217.417C82.2844 216.896 82.584 213.981 82.6913 213.111Z" fill="#AC7C46"/>
<path d="M130.446 344.961C129.235 351.419 126.588 356.967 120.528 360.076L119.93 359.446C120.736 358.952 121.914 358.213 122.651 357.675C124.685 356.194 129.345 350.337 128.691 347.863C126.057 345.515 117.935 353.438 116.156 355.397L115.719 354.898C121.162 348.263 123.456 348.73 130.446 344.961Z" fill="#81592C" fill-opacity="0.964706"/>
<path d="M60.0679 204.988L60.7781 204.822C60.8473 212.619 58.725 220.621 59.7459 228.609C59.8497 229.421 60.6936 238.183 60.6771 238.254L60.4942 240.027C57.3054 228.58 59.2661 216.424 60.0679 204.988Z" fill="#976A36"/>
<path d="M22.9241 325.854C26.9611 326.458 29.5315 325.786 33.4542 325.543C39.6044 325.159 50.6874 327.659 55.8964 331.058L55.7643 331.484C49.1279 328.098 40.8672 325.721 33.348 326.466C31.5123 326.646 26.804 326.494 25.5517 327.568C25.8377 328.231 27.3096 329.778 27.8655 330.405L27.3218 330.862C25.8808 329.203 24.4097 327.463 22.9241 325.854Z" fill="#C19357" fill-opacity="0.866667"/>
<path d="M90.528 358.03C94.3844 361.951 109.701 379.553 110.998 383.923L110.537 384.558C108.954 382.834 105.196 376.421 103.213 373.869C98.8983 368.318 94.7469 363.433 89.9138 358.339L90.528 358.03Z" fill="#53361E" fill-opacity="0.94902"/>
<path d="M107.878 269.193L108.356 270.249C104.983 276.523 103.553 281.341 102.164 288.349C101.814 290.115 101.545 292.526 101.12 294.183C100.999 293.903 101.022 294.008 100.687 293.783C100.204 289.982 103.604 279.379 104.547 275.4C104.969 273.621 105.076 271.591 105.224 269.747C105.457 270.27 105.725 270.813 105.872 271.362L106.111 271.644L106.562 271.513C107.037 270.727 107.443 270.001 107.878 269.193Z" fill="#976A36"/>
<path d="M64.7802 266.842C65.5144 267.555 66.9398 269.097 67.8019 269.436C67.964 268.948 67.6155 268.284 67.3571 267.777L67.2689 267.61L67.8878 267.083C69.2602 269.572 70.62 272.07 71.9671 274.575L71.1906 274.828C69.1701 272.062 66.1677 271.74 63.1084 271.304L62.9456 270.481L64.1921 270.471L64.3383 270.189C64.4205 268.849 64.4542 268.175 64.7802 266.842Z" fill="#AC7C46"/>
<path d="M55.2163 85.8569C64.2217 91.8566 69.2263 97.6251 73.0096 108.009L72.4683 109.084C68.711 99.9349 64.2316 91.3339 54.7854 86.6385L55.2163 85.8569Z" fill="#81592C" fill-opacity="0.960784"/>
<path d="M124.188 21.9048L124.763 22.0686C124.488 23.6313 124.078 25.022 124.866 26.4293L125.18 26.6526C125.315 25.5411 125.334 23.6848 125.74 22.7637L126.096 22.6383C127.186 23.7681 127.89 26.7778 128.31 28.3086C128.942 25.6777 129.248 24.9358 128.619 22.2841L128.929 22.0315C129.606 23.7488 129.464 25.0443 129.326 26.8653C128.454 28.1009 127.729 28.725 127.63 30.0784L127.206 31.1116C126.077 27.2232 122.181 28.073 124.188 21.9048Z" fill="#AC7C46"/>
<path d="M89.9161 275.742C89.1101 274.204 88.7953 272.318 90.3008 271.124C92.9422 270.155 94.0027 272.42 94.7999 274.436L94.3005 275.322L93.8451 275.434C93.2839 274.896 92.9913 274.551 92.4996 273.95L92.1055 274.063C91.6675 275.573 93.0127 276.651 92.6588 277.764C91.2073 277.61 91.5344 276.32 89.9161 275.742Z" fill="#AC7C46" fill-opacity="0.894118"/>
<path d="M152.428 78.4164L152.323 78.708L152.608 78.9397C154.179 78.7302 155.43 75.5724 157.982 75.8929C158.966 76.4935 158.669 76.1727 159.21 77.1719L159.003 77.7532C158.683 77.5094 158.358 77.2717 158.029 77.04L157.32 77.2435C156.765 78.6636 158.085 78.4514 157.049 79.1155L156.355 79.0225L156.202 79.5136C156.838 79.8511 157.102 79.9645 157.641 80.4768C157.57 80.4961 157.498 80.5167 157.426 80.5345C152.549 81.7401 153.842 76.0105 147.928 85.2552L147.755 85.5282L147.117 85.0305C149.126 82.7098 150.301 80.3414 152.045 77.8015L152.428 78.4164Z" fill="#C19357" fill-opacity="0.980392"/>
<path d="M24.8951 208.607C25.0668 208.415 25.2832 207.968 25.4174 207.719C26.0918 212.389 28.2882 218.26 31.2222 221.973L30.7496 222.183C27.797 218.112 27.6553 220.463 26.2372 223.043L25.7891 223.136C24.9319 222.626 23.4178 220.392 23.6339 219.359C24.7176 218.725 26.0822 219.611 27.7242 219.151C29.0151 217.559 24.5331 212.206 24.8951 208.607Z" fill="#C19357" fill-opacity="0.988235"/>
<path d="M63.055 174.84C61.4017 175.128 59.4147 175.244 57.9467 174.338C55.9372 173.097 52.9596 169.865 54.3461 167.41C54.9081 167.054 56.0735 166.757 56.5587 167.275C55.7381 167.592 55.3902 167.665 54.8619 168.369C53.8181 171.746 59.4092 175.269 61.4064 174.162C61.2887 173.374 59.6637 172.157 58.9308 171.503L59.0978 171.36C60.4827 171.841 61.4756 172.79 62.6107 173.722C62.0561 172.215 61.437 170.54 60.2917 169.352C59.5932 168.627 58.4137 168.419 57.9595 167.637C60.7299 167.517 62.4239 171.468 62.7668 173.772C65.4294 175.542 67.5783 176.334 70.4554 178.51L69.8496 178.859C67.5015 177.122 65.6919 176.054 63.055 174.84Z" fill="#AC7C46" fill-opacity="0.941176"/>
<path d="M55.8962 331.058C59.0273 332.385 62.7391 334.846 65.8449 336.578C65.1835 337.427 65.1553 337.565 65.0141 338.639C61.9652 338.939 60.1833 339.075 57.2689 340.118L56.6485 339.446C58.7389 338.545 60.4738 338.595 62.3943 337.743L62.4912 337.406C61.6181 336.855 59.0931 336.322 57.9512 336.04C59.6767 335.823 62.8759 336.886 64.5865 337.432C62.5374 335.763 58.0691 332.983 55.7642 331.484L55.8962 331.058Z" fill="#976A36" fill-opacity="0.976471"/>
<path d="M51.6493 98.2393C54.3802 101.291 56.7695 103.604 60.3112 105.79C63.4242 107.711 66.6769 109.141 69.7286 111.165L69.5298 112.013C68.3529 111.084 66.4031 110.134 65.0148 109.387C59.5028 106.42 54.3695 103.94 50.7861 98.5198L51.6493 98.2393Z" fill="#81592C" fill-opacity="0.964706"/>
<path d="M98.3442 319.817C98.5953 320.243 98.9323 320.862 99.203 321.252C99.2225 325.489 98.7232 330.948 98.6157 335.57C98.6836 337.09 98.7799 338.683 98.8135 340.199C98.4622 340.512 97.8872 340.99 97.5805 341.314C97.8295 340.585 97.7956 339.553 97.8123 338.759C97.1402 335.562 98.0245 323.119 98.3442 319.817Z" fill="#976A36"/>
<path d="M97.8123 338.759C97.971 337.636 97.7698 337.137 98.0812 335.807L98.6157 335.569C98.6836 337.09 98.7799 338.683 98.8136 340.198C98.4623 340.512 97.8873 340.99 97.5806 341.314C97.8296 340.585 97.7956 339.553 97.8123 338.759Z" fill="#AC7C46"/>
<path d="M141.583 102.171C142.622 100.532 143.541 98.6192 145.59 98.1288C148.124 97.5225 149.218 100.884 147.461 101.738C146.788 101.636 146.609 101.693 146.037 102.018C144.498 102.894 143.202 102.5 141.583 102.171Z" fill="#AC7C46" fill-opacity="0.988235"/>
<path d="M85.7437 208.816C87.4963 202.324 93.4215 195.586 97.0138 190.277L98.1427 191.429C92.6586 195.884 89.0937 202.973 86.54 209.458L85.7437 208.816Z" fill="#976A36" fill-opacity="0.988235"/>
<path d="M101.078 185.266L102.247 185.173C101.839 185.871 101.379 186.416 101.491 187.164C102.352 187.138 103.192 186.246 103.843 185.642L104.061 186.285L104.025 186.715L105.789 186.374C104.523 187.052 102.399 187.347 101.951 188.466L102.514 188.496C103.066 188.728 103.685 188.937 104.133 189.314C102.224 189.773 99.8104 190.4 98.1428 191.429L97.0139 190.277C98.4432 188.672 99.7094 186.654 101.078 185.266Z" fill="#AC7C46"/>
<path d="M145.263 444.145C147.464 447.716 149.948 451.104 152.691 454.275C153.823 455.586 156.816 458.76 157.638 459.944C153.426 456.887 151.089 454.575 147.987 450.263C147.197 449.165 145.132 446.169 144.309 445.299L145.263 444.145Z" fill="#1E1108" fill-opacity="0.984314"/>
<path d="M71.9672 274.575C73.5048 276.939 82.2199 292.268 82.0583 294.047L81.6201 294.564C79.5962 290.327 77.3181 285.933 75.1653 281.743C74.0104 279.494 72.431 277.203 71.1907 274.828L71.9672 274.575Z" fill="#976A36"/>
<path d="M136.093 27.54C136.193 29.7939 137.102 32.7498 136.114 34.2134L135.426 34.5428L135.114 34.4104L134.69 32.3287L134.586 32.2819L134.786 32.8571L134.2 33.1641L133.872 34.5893C134.481 35.8179 135.202 36.6714 134.575 38.0049L132.904 37.9177C133.309 33.2639 132.721 31.0413 136.093 27.54Z" fill="#C19357"/>
<path d="M73.0096 108.009C74.4864 111.585 75.5249 115.727 77.4619 118.926L76.8733 119.758C74.6534 115.501 73.3585 114.757 69.5298 112.013L69.7287 111.165C70.827 111.684 71.2673 111.969 72.2654 112.669L72.5716 112.534L72.2673 111.481C72.5972 111.606 73.0419 111.902 73.3588 112.096C73.5183 111.485 72.7473 109.838 72.4682 109.084L73.0096 108.009Z" fill="#976A36"/>
<path d="M26.8235 203.066L26.9963 202.246C27.339 202.683 27.369 203.567 27.4661 204.203C27.0602 206.196 27.0615 206.484 25.4174 207.719C25.2833 207.969 25.0669 208.415 24.8952 208.608C24.1197 207.494 22.8005 207.702 21.2478 205.813L21.6701 205.374C21.9679 205.665 22.2942 205.952 22.6032 206.233L22.9271 206.086C23.1691 204.682 23.1425 203.715 24.4694 202.928C25.5038 202.866 25.5678 203.069 26.557 203.677L26.8235 203.066Z" fill="#C19357"/>
<path d="M34.2549 296.821C41.9014 300.019 46.982 302.783 51.4097 310.165L51.2719 310.426C50.9713 310.269 49.347 308.219 49.0252 307.741C47.3996 305.337 39.3339 298.036 36.4722 298.89L36.1864 299.551C36.214 301.092 37.5358 303.282 38.2932 304.653L37.7007 305.128C36.4609 303.195 34.9137 298.987 34.2549 296.821Z" fill="#AC7C46" fill-opacity="0.913725"/>
<path d="M43.3408 79.8345C46.9769 81.7198 51.8777 83.5776 55.2162 85.8571L54.7853 86.6387C53.0248 85.5515 46.9905 81.0764 45.355 82.8428C44.9591 84.5076 46.5852 88.6923 47.3424 90.2291L46.9764 91.6217C45.2606 87.8467 44.3601 83.8462 43.3408 79.8345Z" fill="#976A36"/>
<path d="M27.8655 330.405C33.3634 335.603 38.4165 339.415 46.0163 340.896L46.0398 341.719C37.7919 340.554 33.0483 336.319 27.3218 330.862L27.8655 330.405Z" fill="#53361E" fill-opacity="0.972549"/>
<path d="M128.322 252.093L128.831 252.242C128.507 253.303 128.288 253.337 128.62 254.136L129.148 254.794C128.774 255.184 128.725 255.202 128.603 255.711C129.78 256.087 131.932 254.865 133.156 254.316L133.63 254.779C129.296 257.242 128.805 256.97 123.863 257.796C123.505 257.856 120.87 258.896 120.338 259.089L119.927 258.619C123.578 257.245 124.052 256.939 127.242 254.598C127.575 253.749 127.95 252.924 128.322 252.093Z" fill="#AC7C46"/>
<path d="M63.2416 253.248C65.0345 260.79 63.7895 259.925 67.8878 267.083L67.269 267.611C65.2289 264.356 63.228 260.583 61.2449 257.208L61.7095 256.641C62.0256 257.18 62.1848 257.323 62.6251 257.77L62.9474 257.66C63.0505 256.555 62.5395 254.682 62.391 253.389L63.2416 253.248Z" fill="#AC7C46"/>
<path d="M67.9234 335.379C69.5688 337.247 72.4274 340.53 74.2774 342.14L73.7376 342.662C70.8255 340.154 68.7469 339.201 65.0142 338.639C65.1554 337.565 65.1836 337.427 65.845 336.578L69.0366 338.255C68.5412 337.403 68.0239 336.711 67.447 335.92L67.9234 335.379Z" fill="#AC7C46"/>
<path d="M59.7364 321.249C60.0673 321.455 60.2689 321.554 60.6223 321.721C61.149 320.598 60.3576 319.389 60.8089 317.829C61.0597 318.082 61.2777 320.475 61.5841 321.421L61.8777 321.531L62.1366 320.912L62.7821 321.46C62.3588 323.937 61.9691 325.804 63.2433 328.093L62.4673 328.493C60.7914 326.123 59.0862 323.775 57.3518 321.447L57.7629 321.055C58.47 321.97 59.3848 323.328 60.3359 323.892L60.6408 323.738C60.7434 322.811 60.2018 322.071 59.7364 321.249Z" fill="#976A36"/>
<path d="M115.956 127.217C116.555 127.114 116.836 127.079 117.421 126.866C115.7 129.406 112.888 133.304 111.423 135.87L110.531 135.605C111.404 133.202 112.264 130.719 113.294 128.385L114.203 128.646C115.047 128.642 115.489 127.839 115.956 127.217Z" fill="#AC7C46"/>
<path d="M122.418 220.648C125.351 222.724 124.998 225.897 123.234 228.645C123.138 229.272 123.027 230.132 122.74 230.696C122.707 229.92 122.786 229.092 122.258 228.562C121.442 228.186 121.241 228.079 120.547 227.499L120.387 227.363L120.885 226.597C120.852 223.341 122.21 225.955 124.127 223.595L124 222.917C123.204 221.916 123.01 221.75 121.921 221.078L122.418 220.648Z" fill="#AC7C46"/>
<path d="M86.2662 196.76L87.0921 197.803C86.3151 201.349 84.7795 207.016 84.222 210.381C83.9662 210.423 83.3142 210.512 83.1138 210.601C83.9678 206.346 84.9539 200.775 86.2662 196.76Z" fill="#976A36"/>
<path d="M59.3406 262.344C60.6571 263.357 63.807 265.695 64.7803 266.842C64.4543 268.174 64.4206 268.848 64.3384 270.189C62.9162 268.997 61.402 268.12 59.7264 267.349L59.8391 266.936C60.6167 267.075 62.338 267.835 63.1471 268.164C61.7988 265.964 60.8811 264.948 58.959 263.248L59.3406 262.344Z" fill="#996935"/>
<path d="M98.1411 129.129L99.0358 129.473C97.0227 133.956 95.5002 135.938 91.3554 138.781L90.4429 138.173C93.8034 134.8 95.8393 133.795 98.1411 129.129Z" fill="#AC7C46"/>
<path d="M135.414 427.473C136.817 430.331 139.135 433.845 140.211 436.172L139.131 437.217C138.326 435.326 135.032 430.07 133.811 427.959C134.613 427.891 134.708 427.86 135.414 427.473Z" fill="#CD9E60"/>
<path d="M101.229 352.766C102.322 355.726 104.362 360.799 105.123 363.686L104.169 364.451C102.898 360.93 101.372 357.113 100.326 353.565C100.523 353.44 101.033 352.946 101.229 352.766Z" fill="#976A36"/>
<path d="M55.4906 318.341C54.9618 317.443 52.1912 312.633 52.162 311.842C53.4409 312.673 56.0797 318.853 57.763 321.055L57.3519 321.447C55.5329 319.551 52.2285 317.991 49.8408 316.698L50.1877 316.074L54.4842 318.386C53.7006 317.49 52.9343 316.581 52.1857 315.658L52.4026 315.726L51.8308 315.102L52.3557 315.747L52.2909 315.509C53.3029 316.46 54.3772 317.529 55.4906 318.341Z" fill="#AC7C46"/>
<path d="M80.3247 269.499L81.5468 270.283C81.671 272.663 82.2387 280.627 82.6738 282.84C82.3922 282.26 82.287 281.97 81.8527 281.479L81.6577 283.313C80.9451 280.296 80.5453 272.819 80.3247 269.499Z" fill="#976A36"/>
<path d="M140.211 436.172C141.973 438.737 143.611 441.496 145.263 444.145L144.309 445.299C142.533 442.637 140.807 439.941 139.131 437.217L140.211 436.172Z" fill="#81592C"/>
<path d="M157.166 7.12213C157.564 6.34862 157.825 5.60229 158.59 5.23291C159.731 5.62711 159.25 7.45311 159.028 8.39824L159.343 9.07273L159.759 8.97817L160.299 9.28538C159.126 9.99175 158.321 10.3253 157.639 11.5414C157.367 11.143 157.308 10.7313 157.192 10.2582C157.138 9.27728 155.508 7.75953 155.97 5.83086L156.561 5.68379L157.166 7.12213Z" fill="#AC7C46"/>
<path d="M157.166 7.12213C157.564 6.34862 157.825 5.60229 158.59 5.23291C159.731 5.62711 159.25 7.45311 159.028 8.39824C158.517 8.25482 158.067 8.13805 157.549 8.02389L157.166 7.12213Z" fill="#AC7C46"/>
<path d="M99.0304 310.423L99.7075 310.711L100 311.523L100.454 311.403L101.372 311.646C100.192 314.271 99.3862 318.367 99.203 321.251C98.9323 320.862 98.5953 320.243 98.3442 319.817L99.0304 310.423Z" fill="#976A36"/>
<path d="M109.672 68.9795C112.181 72.7287 110.246 74.6268 110.984 76.941L110.545 77.2331C109.528 74.9251 108.363 76.3645 106.121 73.8224L106.401 73.58C107.048 74.2271 107.175 74.2976 107.982 74.7166L108.244 74.5202C108.217 73.7485 108.149 73.1004 108.066 72.3358L108.539 71.8154C109.691 71.9189 109.222 72.2438 110.355 72.8663C110.521 71.4672 109.988 70.5087 109.286 69.3632L109.672 68.9795Z" fill="#AC7C46"/>
<path d="M121.672 170.434L121.932 170.975C118.283 175.753 114.768 178.868 109.853 182.303C108.094 183.532 105.643 184.961 104.061 186.285L103.843 185.642C111.47 180.782 115.903 177.51 121.672 170.434Z" fill="#AC7C46" fill-opacity="0.870588"/>
<path d="M38.2932 304.653C42.1285 310.52 44.0772 312.498 50.1877 316.074L49.8408 316.698C44.7673 314.496 40.4575 309.82 37.7007 305.128L38.2932 304.653Z" fill="#53361E" fill-opacity="0.933333"/>
<path d="M89.916 275.742C91.5343 276.32 91.2072 277.61 92.6587 277.764C93.0126 276.651 91.6674 275.572 92.1054 274.063L92.4995 273.95C92.9912 274.551 93.2838 274.896 93.845 275.434L94.3005 275.322L94.7998 274.436C95.6948 277.338 94.7108 277.435 94.7199 279.439L94.3407 280.079C93.1562 277.913 91.32 279.177 89.916 275.742Z" fill="#CD9E60"/>
<path d="M21.2478 205.814C20.2821 203.591 19.2837 200.132 21.4117 198.229C22.0546 197.654 22.9018 197.364 23.7616 197.424C27.2868 197.653 27.7402 201.447 27.4661 204.203C27.369 203.567 27.339 202.683 26.9963 202.246L26.8235 203.066C26.4871 201.03 26.6447 199.862 24.7626 198.508C23.4421 197.558 22.2201 198.437 21.5216 199.572C20.8349 200.676 20.6279 202.012 20.9479 203.272C21.0983 203.873 21.3856 204.828 21.6701 205.375L21.2478 205.814Z" fill="#AC7C46" fill-opacity="0.964706"/>
<path d="M48.4038 269.261C52.1419 270.089 58.3803 271.22 62.1052 270.322L62.9457 270.481L63.1085 271.304C56.2714 271.181 54.8674 272.234 47.241 269.577L48.4038 269.261Z" fill="#976A36"/>
<path d="M99.4669 297.033L100.555 297.884C100.577 300.327 100.238 308.488 99.7076 310.711L99.0305 310.423C99.3072 305.904 99.6509 301.56 99.4669 297.033Z" fill="#976A36"/>
<path d="M155.97 5.83058C156.019 4.36534 156.454 1.79275 157.621 1.06574C162.561 -2.01077 164.869 6.06569 160.299 9.2851L159.759 8.97789C161.997 7.10643 163.442 2.99885 160.494 1.21673C157.792 0.590565 157.088 3.80161 156.561 5.68351L155.97 5.83058Z" fill="#976A36" fill-opacity="0.94902"/>
<path d="M98.1799 163.856C98.8813 161.769 100.544 158.541 101.54 156.461L103 157.348C101.716 159.514 100.241 161.88 99.1512 164.128L98.1799 163.856Z" fill="#AC7C46"/>
<path d="M79.7153 260.936C80.0727 260.944 80.3222 260.947 80.6852 260.92L80.8306 261.012C81.1029 263.807 81.1258 267.746 81.5468 270.283L80.3248 269.499C79.9881 266.579 79.862 263.87 79.7153 260.936Z" fill="#AC7C46"/>
<path d="M37.0426 261.565C41.3234 265.15 43.0294 266.897 48.4038 269.261L47.241 269.577C43.8988 268.19 39.1301 264.974 36.8823 262.208L37.0426 261.565Z" fill="#1E1108" fill-opacity="0.94902"/>
<path d="M40.96 231.338C42.7297 232.867 50.8009 239.86 51.4892 241.837L51.1318 242.281C48.0402 238.493 44.4999 235.095 40.5886 232.161L40.96 231.338Z" fill="#AC7C46" fill-opacity="0.933333"/>
<path d="M55.7722 246.926C57.2665 249.003 60.6904 254.408 61.7094 256.641L61.2448 257.208C59.1426 253.901 57.0793 250.568 55.0549 247.211L55.7722 246.926Z" fill="#53361E" fill-opacity="0.972549"/>
<path d="M132.289 225.213L132.868 225.396C133.598 224.262 133.67 223.997 134.824 223.35L135.176 223.598C135.347 224.677 135.27 225.192 135.173 226.289L135.477 226.647C134.446 227.274 133.835 227.564 133.313 228.669L132.803 228.162C132.876 227.391 132.256 226.576 131.909 225.628L132.289 225.213Z" fill="#AC7C46"/>
<path d="M107.415 356.471C106.272 354.412 104.844 350.363 107.531 348.958C110.49 349.402 110.732 354.185 110.661 356.596L110.424 356.86C109.589 355.757 110.305 349.336 107.517 349.255C105.819 350.7 106.97 354.467 107.751 356.254L107.415 356.471Z" fill="#C19357" fill-opacity="0.909804"/>
<path d="M114.553 360.039C118.389 356.254 122.996 353.336 126.582 349.295C127.022 348.798 127.575 348.216 128.153 347.887C126.066 351.176 118.124 357.96 114.791 360.355L114.553 360.039Z" fill="#C19357" fill-opacity="0.823529"/>
<path d="M85.7437 208.816L86.54 209.457C85.6834 211.322 85.1765 212.344 84.7028 214.324C83.8534 213.614 83.719 213.51 82.6912 213.111C82.8436 212.466 82.9984 211.295 83.1137 210.601C83.3142 210.512 83.9662 210.423 84.222 210.381L84.5495 210.555C85.3156 210.086 85.271 209.768 85.7437 208.816Z" fill="#AC7C46"/>
<path d="M111.639 383.056L112.89 382.774L114.308 385.893C113.762 386.745 113.253 387.022 112.417 387.601L110.537 384.558L110.998 383.923C111.148 384.109 111.448 384.37 111.63 384.542L111.855 384.266L111.639 383.056Z" fill="#E1B169"/>
<path d="M94.7198 279.439C95.9685 281.189 98.9312 290.29 99.3107 292.561L98.7631 293.023C97.7778 287.393 95.8148 284.922 94.3406 280.079L94.7198 279.439Z" fill="#AC7C46" fill-opacity="0.964706"/>
<path d="M84.4194 45.8085C86.2332 45.5836 87.5863 45.5455 89.4326 45.1675L89.5504 45.5473C89.025 45.7385 87.1402 46.0732 86.4963 46.202C89.6814 47.4747 91.9193 47.4992 95.3487 49.1753C93.0852 48.8017 88.7545 47.4569 86.3835 46.7829C86.9617 47.3187 88.1346 48.4146 88.4105 49.1006C87.2872 48.5914 85.3794 46.7145 84.4194 45.8085Z" fill="#AC7C46" fill-opacity="0.909804"/>
<path d="M52.7519 241.691L53.5851 241.842C54.4292 243.525 54.9577 245.489 55.7723 246.926L55.0551 247.211C54.1585 245.852 52.2182 243.611 51.1318 242.281L51.4892 241.837L52.2975 242.104L52.7519 241.691Z" fill="#AC7C46"/>
<path d="M81.6577 283.313L81.8527 281.479C82.287 281.97 82.3922 282.26 82.6738 282.84C82.9119 284.609 83.1353 286.427 83.4242 288.182C83.2439 288.838 83.1207 289.319 82.9946 289.992L82.7516 290.003L82.5843 290.264C82.0062 288.172 81.8039 285.458 81.6577 283.313Z" fill="#AC7C46"/>
<path d="M128.322 252.093C129.916 249.672 134.808 244.745 137.956 246.605C138.536 247.501 138.327 247.469 138.285 248.755L137.802 248.54C137.619 247.435 137.782 247.822 136.997 246.989C134.928 246.291 131.592 249.16 130.222 250.586C129.866 250.957 129.145 252.041 128.831 252.242L128.322 252.093Z" fill="#C19357" fill-opacity="0.937255"/>
<path d="M157.087 67.2393L157.621 67.6421C156.545 71.1499 154.44 75.3147 152.428 78.4163L152.045 77.8013C154.387 73.7627 155.29 71.4197 157.087 67.2393Z" fill="#C19357" fill-opacity="0.945098"/>
<path d="M158.265 57.0105C164.559 56.2336 164.004 63.1008 160.685 66.1648L159.469 66.0358C163.38 63.7132 163.804 56.156 158.955 58.0421C158.895 57.9097 158.381 57.1811 158.265 57.0105Z" fill="#AC7C46" fill-opacity="0.905882"/>
<path d="M47.3425 90.229C48.3602 92.9082 50.1645 95.7519 51.6494 98.2394L50.7863 98.5199C49.2009 96.3483 48.012 94.0952 46.9766 91.6216L47.3425 90.229Z" fill="#1E1108"/>
<path d="M56.6486 339.446L57.269 340.118C52.2608 340.972 51.9804 341.907 46.0398 341.719L46.0164 340.896C48.8188 341.348 53.9317 340.481 56.6486 339.446Z" fill="#C19357" fill-opacity="0.835294"/>
<path d="M114.308 385.893C114.783 386.912 115.259 387.975 115.767 388.976C115.246 389.553 114.887 389.932 114.46 390.59C113.708 389.673 113.06 388.605 112.417 387.602C113.253 387.022 113.762 386.745 114.308 385.893Z" fill="#81592C"/>
<path d="M63.2435 328.093C64.1803 329.614 66.9107 334.167 67.9234 335.379L67.4471 335.92C66.1321 334.535 63.5724 330.261 62.4675 328.493L63.2435 328.093Z" fill="#81592C" fill-opacity="0.988235"/>
<path d="M131.909 225.628C131.766 223.734 131.793 220.228 134.469 220.161C135.142 220.149 135.791 220.406 136.275 220.874C136.873 221.444 137.21 222.235 137.205 223.062C137.201 224.348 136.457 225.829 135.476 226.647L135.173 226.289C137.007 225.066 137.673 221.239 134.574 220.721C132.421 221.371 132.479 223.305 132.288 225.213L131.909 225.628Z" fill="#AC7C46" fill-opacity="0.960784"/>
<path d="M128.62 254.136C129.511 253.541 136.867 248.201 136.541 248.201L136.45 248.4L136.147 248.246L136.299 248.64C134.256 251.412 132.205 253.081 129.148 254.795L128.62 254.136Z" fill="#AC7C46"/>
<path d="M91.8589 44.7776C95.6981 44.2505 99.7899 43.6745 103.433 45.6885L103.266 46.1431C99.9554 44.7797 96.7395 44.8523 93.2214 45.0877L91.8589 44.7776Z" fill="#AC7C46" fill-opacity="0.952941"/>
<path d="M99.3108 292.561C99.5128 293.274 99.5916 293.909 100.129 294.368C100.616 294.07 100.446 294.269 100.687 293.783C101.022 294.008 100.998 293.903 101.12 294.183C100.99 295.076 100.745 297.093 100.555 297.884L99.4669 297.033C99.4575 295.633 99.0905 294.381 98.7632 293.023L99.3108 292.561Z" fill="#AC7C46"/>
<path d="M109.938 372.594C109.447 370.828 109.991 367.466 110.238 365.608L111.034 366.392C110.59 369.469 110.576 371.389 110.634 374.493C110.477 373.767 110.233 373.27 109.938 372.594Z" fill="#81592C"/>
<path d="M157.641 80.4768C157.102 79.9645 156.838 79.8511 156.202 79.5136L156.355 79.0225L157.049 79.1155C158.085 78.4515 156.765 78.6636 157.32 77.2435L158.029 77.04C158.358 77.2718 158.683 77.5095 159.003 77.7532L159.21 77.172C159.496 77.8948 159.6 78.0601 159.383 78.8384C158.729 79.6113 158.441 79.8438 157.641 80.4768Z" fill="#976A36"/>
<path d="M110.984 76.9409C111.852 78.3902 115.115 84.0137 115.801 85.4233L115.508 85.8478C113.793 83.5743 111.776 79.8322 110.545 77.233L110.984 76.9409Z" fill="#976A36" fill-opacity="0.913725"/>
<path d="M61.7528 269.562C59.9062 269.039 52.6989 267.963 52.0388 267.568C53.0847 267.132 57.7933 267.999 59.1996 268.198C59.8712 268.451 61.5064 268.916 61.7528 269.562Z" fill="#AC7C46" fill-opacity="0.886275"/>
<path d="M114.46 390.59C114.887 389.932 115.246 389.553 115.767 388.976C116.156 389.929 116.869 391.847 117.294 392.703L115.894 393.113L114.46 390.59Z" fill="#CD9E60"/>
<path d="M74.2773 342.14C74.9831 342.821 79.3435 346.774 79.7071 347.33L79.4393 347.884C77.2943 345.933 75.8637 344.825 73.7375 342.662L74.2773 342.14Z" fill="#AC7C46" fill-opacity="0.898039"/>
<path d="M120.387 227.363C119.801 226.639 119.423 225.769 119.291 224.847C118.957 222.515 120.102 220.959 122.418 220.648L121.921 221.078C119.981 222.345 119.34 224.779 120.885 226.597L120.387 227.363Z" fill="#AC7C46" fill-opacity="0.984314"/>
<path d="M59.2806 267.19L59.7264 267.349C61.4021 268.12 62.9162 268.998 64.3385 270.189L64.1923 270.471L62.9457 270.481L62.1053 270.322L61.7529 269.562C61.5065 268.917 59.8713 268.452 59.1997 268.198L59.2806 267.19Z" fill="#C19357" fill-opacity="0.0156863"/>
<path d="M132.904 37.918L134.575 38.0052C134.219 39.8414 134.16 40.2897 134.568 42.1797C133.893 41.3247 133.462 40.9208 132.669 40.2178C132.338 39.0977 132.519 39.2348 132.904 37.918Z" fill="#AC7C46"/>
<path d="M70.4554 178.51C71.9445 180.114 74.0829 182.172 75.4339 183.695L74.6123 184.343C73.118 182.154 71.82 180.612 69.8496 178.859L70.4554 178.51Z" fill="#AC7C46" fill-opacity="0.772549"/>
<path d="M106.121 73.8227C104.346 70.4978 105.977 65.6835 109.672 68.9797L109.286 69.3635C108.28 68.491 108.69 68.6373 107.486 68.409C105.471 69.3491 105.686 71.7976 106.401 73.5803L106.121 73.8227Z" fill="#AC7C46" fill-opacity="0.921569"/>
<path d="M137.802 248.541L138.285 248.755C137.118 252.19 136.609 252.705 133.63 254.779L133.156 254.316C136.021 252.53 136.571 251.686 137.802 248.541Z" fill="#CD9E60" fill-opacity="0.807843"/>
<path d="M54.7662 259.303C56.5225 260.327 57.8281 260.967 59.3407 262.344L58.9591 263.248C57.3766 261.693 56.1258 260.952 54.2812 259.771L54.7662 259.303Z" fill="#53361E" fill-opacity="0.945098"/>
<path d="M106.516 47.9722C108.722 49.166 109.108 49.5325 110.626 51.5544C109.225 50.7211 107.768 49.8149 106.313 49.0996L106.357 49.0179C106.28 48.5051 106.318 48.4706 106.516 47.9722Z" fill="#AC7C46" fill-opacity="0.0313725"/>
<path d="M76.9544 322.691C79.7689 323.838 79.6872 326.233 79.6339 328.864C79.4178 328.232 79.4238 328.072 78.9169 327.691C79.8527 325.834 78.0467 323.895 76.6399 322.905L76.9544 322.691Z" fill="#AC7C46" fill-opacity="0.92549"/>
<path d="M143.61 38.6351C142.951 39.7038 142.472 40.8167 141.322 41.1625L141.184 40.7255C141.454 39.6244 142.348 38.9653 143.186 38.1855L143.61 38.6351Z" fill="#C19357" fill-opacity="0.0235294"/>
<path d="M107.072 35.0371C108.069 36.6037 110.671 39.8265 110.859 41.1951C109.882 40.2771 107.388 36.466 106.684 35.256L107.072 35.0371Z" fill="#AC7C46" fill-opacity="0.643137"/>
<path d="M124.188 21.9051C125.571 19.8223 127.799 19.8526 128.929 22.0318L128.619 22.2844C127.521 20.5503 126.094 20.7105 124.763 22.0689L124.188 21.9051Z" fill="#C19357" fill-opacity="0.901961"/>
<path d="M138.043 126.352C139.101 126.383 140.154 126.374 141.187 126.606C140.314 127.395 137.317 126.795 136.176 126.577L138.043 126.352Z" fill="#C19357" fill-opacity="0.890196"/>
<path d="M144.607 38.5039C144.916 38.8221 145.256 39.2019 145.599 39.4707C144.922 40.029 144.296 40.6674 143.449 40.8048L143.235 40.4942C143.511 39.6437 144.016 39.1742 144.607 38.5039Z" fill="#CD9E60" fill-opacity="0.0117647"/>
<path d="M100.723 50.3276C102.764 50.4862 104.721 50.8224 106.539 51.8031C105.08 51.8712 102.028 51.0267 100.723 50.3276Z" fill="#C19357" fill-opacity="0.815686"/>
<path d="M111.468 54.2471C112.53 54.8142 112.512 54.6099 113.088 55.5067C112.466 55.7094 112.379 55.5404 111.655 55.3014L110.548 54.8463L111.468 54.2471Z" fill="#AC7C46" fill-opacity="0.0156863"/>
<path d="M121.672 170.434C122.196 169.704 122.717 168.852 123.473 168.393C123.427 169.151 122.436 170.32 121.932 170.975L121.672 170.434Z" fill="#C19357" fill-opacity="0.721569"/>
<path d="M89.4326 45.1674C90.2877 44.9835 90.9919 44.8889 91.859 44.7773L93.2214 45.0874C92.256 45.217 90.4268 45.3837 89.5503 45.5472L89.4326 45.1674Z" fill="#C19357" fill-opacity="0.733333"/>
<path d="M103.433 45.6885L105.713 46.5754L105.166 47.0913L103.266 46.143L103.433 45.6885Z" fill="#AC7C46" fill-opacity="0.815686"/>
</svg>
